<svg version="1.1" id="Layer_1" xmlns="http://www.w3.org/2000/svg" xmlns:xlink="http://www.w3.org/1999/xlink" x="0px" y="0px"
	 width="100%" viewBox="0 0 1024 1024" enable-background="new 0 0 1024 1024" xml:space="preserve">
<path fill="#000000" opacity="1.000000" stroke="none" 
	d="
M703.586975,539.695435 
	C711.092407,525.384521 720.055054,512.799194 735.161987,506.404144 
	C741.240356,503.831085 746.481079,500.931580 750.746765,495.597992 
	C755.514282,489.636810 762.641235,487.334869 770.218689,486.685852 
	C773.539124,486.401398 775.352966,487.571289 775.098938,491.132050 
	C775.051636,491.794647 775.199341,492.478882 775.099548,493.128937 
	C772.969666,507.003326 777.439575,518.632324 786.045410,529.508728 
	C792.949463,538.234436 798.505249,548.018494 804.809204,557.230286 
	C809.138428,563.556519 809.545959,570.002869 805.516541,576.420410 
	C801.417786,582.948364 795.219910,586.153381 787.500366,586.273804 
	C784.255432,586.324463 781.555725,584.766174 779.729309,582.333740 
	C774.245239,575.029968 766.093323,574.264893 757.557617,572.590027 
	C756.301514,581.407471 756.975769,589.754089 758.932617,597.996338 
	C761.327026,608.081421 762.861084,618.214050 762.421936,628.628662 
	C762.238098,632.987671 762.047058,637.347168 760.508057,641.406555 
	C758.868286,645.731873 760.318665,647.564697 764.477295,648.999939 
	C769.651733,650.785645 774.599304,653.276672 779.543091,655.673035 
	C791.052307,661.251648 794.258484,670.086731 788.750183,681.592651 
	C782.995667,693.613159 776.842041,705.442993 771.109375,717.473633 
	C769.190308,721.500916 767.014099,721.273193 763.632263,719.480957 
	C760.454346,717.796814 758.437866,716.516785 760.623291,712.364075 
	C766.596313,701.014404 772.207153,689.473572 777.915833,677.985779 
	C781.390320,670.994080 780.553955,668.704163 773.519226,665.587585 
	C768.037109,663.158936 762.507507,660.833618 757.071289,658.307007 
	C754.886108,657.291382 753.583557,657.665894 751.967651,659.522461 
	C747.978943,664.105286 745.147278,668.860840 744.063049,675.166260 
	C739.526855,701.546143 734.334229,727.812439 729.604980,754.160400 
	C728.895874,758.110962 727.275879,759.548218 723.376282,759.383057 
	C718.053284,759.157654 712.700867,759.103333 707.384705,759.399475 
	C702.913757,759.648682 701.659729,757.820435 701.688354,753.557190 
	C701.842529,730.561401 701.786255,707.563965 701.761047,684.567139 
	C701.754211,678.303528 702.781494,677.478271 694.821594,677.063110 
	C686.528809,676.630493 678.364624,674.580444 670.538574,671.637573 
	C666.969543,670.295410 664.959045,670.800476 663.195679,674.599121 
	C658.357544,685.021057 651.308533,693.876892 642.215393,700.941345 
	C639.479919,703.066711 639.170776,705.104553 640.152100,708.249451 
	C644.612244,722.543640 648.675537,736.963013 653.245850,751.220642 
	C654.705566,755.774353 652.740051,756.912842 649.056030,758.162354 
	C645.036377,759.525696 643.358704,758.287292 642.242920,754.450134 
	C637.316467,737.508484 632.273865,720.599487 627.108093,703.729309 
	C626.058350,700.301147 626.838501,698.293152 629.773987,696.201477 
	C639.675964,689.145935 647.860413,680.478760 653.190735,669.383972 
	C653.614685,668.501648 653.853455,667.530396 654.118164,666.772461 
	C653.605164,665.207031 652.289307,665.080994 651.269043,664.660217 
	C642.262634,660.945923 642.135437,660.985779 637.498840,669.308716 
	C631.222595,680.575134 622.622986,689.812439 612.172791,697.190735 
	C608.503052,699.781555 606.893188,702.802307 606.435852,706.962769 
	C604.746094,722.335022 602.900879,737.690918 601.313843,753.073486 
	C600.866211,757.412292 599.520569,759.780334 594.574463,759.410278 
	C589.271423,759.013550 583.913574,759.221985 578.584167,759.350281 
	C575.311768,759.429077 573.678650,758.366455 573.689575,754.800293 
	C573.761108,731.470459 573.739197,708.140137 573.679138,684.810181 
	C573.672424,682.185730 574.764648,680.416199 576.810791,678.960876 
	C582.000000,675.270020 583.888062,670.137146 583.978882,663.851379 
	C584.183228,649.705383 583.041504,635.542725 584.588684,621.409180 
	C585.291565,614.988525 588.133179,609.376221 590.919739,603.720703 
	C582.062195,600.269775 571.431396,607.284424 570.296448,617.573730 
	C568.851929,630.668213 569.481934,643.853699 569.449707,657.002014 
	C569.435425,662.840820 567.521912,667.704651 563.268433,671.720459 
	C559.461304,675.314880 555.027283,677.310669 549.782776,677.315125 
	C525.286133,677.335999 500.789185,677.406128 476.293121,677.290649 
	C465.256287,677.238586 456.784546,668.569824 456.695435,657.498901 
	C456.602936,646.001221 456.762573,634.501160 456.636841,623.004089 
	C456.515625,611.924072 450.695465,604.615051 440.932404,602.842102 
	C439.081268,602.505920 437.318054,602.266724 435.563080,604.365906 
	C442.752350,616.007263 442.512512,629.185974 442.273956,642.384277 
	C442.156525,648.881348 442.480530,655.393677 442.169037,661.878113 
	C441.832428,668.884827 443.730438,674.693359 449.553680,678.909546 
	C451.636688,680.417664 452.305084,682.450317 452.300049,684.975037 
	C452.253937,708.138367 452.225739,731.302124 452.329071,754.465088 
	C452.345612,758.175720 450.919922,759.491760 447.300476,759.362427 
	C441.974731,759.172180 436.615295,759.018127 431.311188,759.407166 
	C426.876373,759.732483 425.407806,757.690918 424.994995,753.779419 
	C423.965240,744.021362 422.799805,734.277710 421.705536,724.526367 
	C420.963684,717.915161 420.261322,711.299622 419.518066,704.688660 
	C419.245880,702.267578 418.231689,700.383057 416.113342,698.900513 
	C403.479553,690.058044 393.068298,679.238098 386.690460,664.966370 
	C385.596497,662.518433 383.973572,662.027161 381.475037,662.576965 
	C371.195801,664.838989 370.575806,666.230530 376.234985,675.195251 
	C381.647095,683.768677 388.630493,690.874878 396.922699,696.632996 
	C399.524902,698.440002 400.300842,700.156311 399.343933,703.262207 
	C394.051239,720.440247 388.837616,737.644775 383.850464,754.913452 
	C382.648376,759.075806 380.534271,759.048218 377.204254,757.897095 
	C373.968201,756.778381 371.449554,756.051697 372.960449,751.402283 
	C377.588989,737.159302 381.692169,722.746399 386.158264,708.449158 
	C387.101959,705.428040 387.095825,703.371887 384.263641,701.174500 
	C375.041260,694.018860 367.779999,685.124939 363.057159,674.415466 
	C361.343140,670.528687 359.200592,670.222351 355.680542,671.523743 
	C346.737213,674.830200 337.510681,677.032288 327.939514,677.264282 
	C323.682129,677.367554 324.254486,680.216492 324.253143,682.827576 
	C324.241394,705.657776 324.256561,728.487976 324.261932,751.318176 
	C324.263824,759.315002 324.261566,759.317932 316.426971,759.325439 
	C311.927582,759.329712 307.415771,759.114746 302.932526,759.382874 
	C298.951935,759.620972 297.358643,757.965210 296.671417,754.140564 
	C292.083923,728.608582 287.264313,703.118408 282.652100,677.590759 
	C281.452332,670.950195 279.849640,664.726807 274.569427,659.886780 
	C272.739380,658.209351 271.573273,657.261108 269.095764,658.405945 
	C263.049683,661.199585 256.845123,663.649353 250.788071,666.420593 
	C246.160049,668.538025 245.115555,671.433044 247.423355,676.163147 
	C253.267120,688.140808 259.041016,700.164429 265.344421,711.900269 
	C267.894684,716.648438 265.407990,717.734314 262.069092,719.665466 
	C258.168915,721.921143 256.564240,720.465332 254.897552,716.988098 
	C249.066803,704.823303 242.916977,692.811279 237.094742,680.642517 
	C232.156784,670.321899 235.225464,661.562622 245.504578,656.503479 
	C251.328690,653.636963 257.346710,651.163574 263.284882,648.530029 
	C265.380035,647.600830 267.111511,646.708374 266.184814,643.735168 
	C261.499420,628.702759 263.612457,613.762451 267.164276,598.901978 
	C268.526184,593.203918 268.971802,587.400208 269.537872,581.616211 
	C269.822632,578.706970 270.099854,575.611694 267.888519,572.502502 
	C261.303986,574.919556 253.794693,574.161987 248.183792,580.389160 
	C240.643082,588.758179 229.791702,587.746277 222.421173,578.841553 
	C216.948105,572.229248 216.413483,564.942688 221.227066,557.633667 
	C230.206512,543.999023 239.253159,530.406433 248.472519,516.933655 
	C250.783524,513.556458 251.671677,510.200226 251.368942,506.175842 
	C251.007202,501.367096 251.293747,496.512390 251.023026,491.693146 
	C250.772186,487.228180 253.032791,486.219208 256.871613,486.739349 
	C265.685364,487.933655 273.020477,491.718201 278.495239,498.860352 
	C279.798096,500.559967 280.906891,502.397583 283.199158,503.127197 
	C305.070831,510.089050 317.329468,526.427795 325.604675,546.666870 
	C328.892273,554.707458 331.080658,563.078125 333.260864,571.450439 
	C335.913971,581.638977 338.700623,583.830017 349.380310,583.822083 
	C365.044800,583.810425 380.709442,583.843323 396.373779,583.788818 
	C406.293976,583.754272 415.624176,585.723694 423.544769,592.025879 
	C426.217896,594.152832 428.586731,592.831604 431.064697,592.260132 
	C444.772980,589.098633 458.327759,595.109131 464.475433,607.186035 
	C467.182495,612.503967 468.027740,618.239746 468.045502,624.126343 
	C468.077209,634.624695 467.980225,645.124146 468.100616,655.621216 
	C468.180817,662.612732 471.265991,665.804016 478.148315,665.830505 
	C501.311401,665.919556 524.475220,665.912964 547.638367,665.835632 
	C554.710510,665.812073 557.847107,662.554016 557.923523,655.260742 
	C558.033569,644.763367 557.924438,634.263916 557.950989,623.765442 
	C557.971313,615.713501 559.796570,608.154663 565.150940,601.937561 
	C573.334961,592.434937 583.798645,589.582581 595.821777,592.457031 
	C598.786499,593.165833 601.028931,593.047485 603.653564,591.174622 
	C610.916016,585.992249 619.248962,583.837219 628.132019,583.817566 
	C644.962952,583.780396 661.794006,583.795166 678.624939,583.757874 
	C687.201965,583.738831 690.622314,581.120544 692.597046,572.643188 
	C695.208435,561.431885 698.389587,550.430725 703.586975,539.695435 
M632.898132,650.388794 
	C634.369446,646.450867 634.393921,642.217468 635.372681,638.190674 
	C636.571167,633.259705 640.654419,635.399109 643.647827,635.270874 
	C646.151794,635.163696 646.883118,636.729431 646.770630,639.244751 
	C646.602295,643.010193 643.842590,647.518494 646.260742,650.256531 
	C648.488281,652.778809 653.107605,653.182983 656.667053,654.536865 
	C659.312683,655.543213 661.963196,656.539062 664.585388,657.603943 
	C678.145752,663.110474 692.070190,666.581482 706.876465,665.883118 
	C713.120911,665.588623 713.291138,665.990479 713.294189,672.286743 
	C713.305115,694.781921 713.203369,717.277893 713.415588,739.771057 
	C713.440247,742.395569 711.011719,747.023010 715.984863,747.483765 
	C721.024902,747.950806 719.969604,742.847839 720.509033,740.064392 
	C725.378540,714.937561 729.986389,689.759827 734.596802,664.583435 
	C734.973083,662.528259 735.589294,660.733276 737.096069,659.290649 
	C750.932129,646.042908 753.143372,629.521973 749.885376,611.805298 
	C747.382690,598.195923 744.351807,584.660156 745.843323,570.745239 
	C746.256958,566.886719 745.435303,564.233398 743.022461,561.378113 
	C739.718750,557.468506 738.439270,552.561646 737.798828,547.536926 
	C737.495361,545.156128 737.871704,542.915222 740.922058,543.090637 
	C743.809265,543.256836 748.243958,541.310181 748.992737,545.642944 
	C750.858765,556.439880 758.035278,561.376221 767.665894,563.031006 
	C774.939941,564.281006 780.970520,567.014587 785.832275,572.421204 
	C788.445679,575.327515 791.022339,574.786682 793.683350,572.613708 
	C797.398438,569.579895 797.159546,566.346497 794.588562,562.571716 
	C785.397888,549.077820 776.441101,535.424194 767.211487,521.957336 
	C764.750122,518.365906 763.360168,514.769653 763.575439,510.361237 
	C763.715210,507.498810 764.368347,504.440918 762.789185,501.471588 
	C758.252197,502.569031 756.339600,506.257050 754.018494,509.377563 
	C752.474976,511.452637 750.857727,513.058655 748.216248,513.725281 
	C733.481384,517.444092 723.679382,527.146362 716.489197,540.036133 
	C710.094055,551.500793 706.541382,563.957336 703.311096,576.559937 
	C700.095032,589.107361 692.018372,595.355835 679.201782,595.381287 
	C662.705383,595.414062 646.208801,595.361572 629.712402,595.401917 
	C609.350281,595.451782 595.441772,609.280396 595.356079,629.556946 
	C595.306824,641.220886 595.184753,652.888184 595.402283,664.548340 
	C595.547791,672.348206 592.926636,678.904114 587.656128,684.448730 
	C586.055542,686.132629 585.208130,687.820679 585.218262,690.171631 
	C585.295349,708.000854 585.278748,725.830444 585.319580,743.659851 
	C585.323669,745.448425 585.018677,747.659668 587.834473,747.573975 
	C590.327026,747.498047 590.445862,745.536560 590.670288,743.638550 
	C592.367798,729.283569 594.135193,714.936768 595.814087,700.579651 
	C596.278259,696.610168 597.650696,693.608276 601.270325,691.180420 
	C616.026001,681.282776 627.586731,668.718201 632.898132,650.388794 
M229.499786,566.776550 
	C231.109497,574.470520 236.217789,576.526489 241.649887,571.333740 
	C246.272034,566.915222 251.324661,564.338745 257.762817,563.235291 
	C267.418060,561.580444 275.479675,557.370239 276.923370,545.970642 
	C277.500793,541.411133 281.535583,543.287598 284.221710,543.043945 
	C287.082001,542.784485 288.464508,544.216675 288.324402,547.244080 
	C288.068817,552.768372 286.365601,557.785767 282.729523,561.880127 
	C280.639435,564.233704 279.889343,566.588806 280.289062,569.580872 
	C282.017090,582.516052 279.472595,595.057983 276.888062,607.630737 
	C272.953522,626.770630 273.915283,644.845825 289.192505,659.477234 
	C290.431671,660.664001 291.024414,662.139832 291.345032,663.862122 
	C293.959351,677.906677 296.671692,691.932861 299.328766,705.969543 
	C301.707947,718.538269 304.043182,731.115356 306.427521,743.683044 
	C306.805847,745.677185 307.235779,747.721191 309.985413,747.664490 
	C313.089783,747.600342 312.622437,745.285889 312.707275,743.348083 
	C312.765533,742.017456 312.735840,740.682800 312.736237,739.349915 
	C312.743011,717.523987 312.746124,695.698120 312.755035,673.872192 
	C312.758331,665.818237 312.764893,665.880249 320.589386,665.791687 
	C325.407928,665.737183 330.218994,665.898987 335.042847,665.213257 
	C348.052826,663.363708 359.881683,657.846008 372.155487,653.688354 
	C380.466431,650.873047 380.515625,651.030518 379.763214,642.546326 
	C379.689758,641.718079 379.778076,640.872070 379.666016,640.051392 
	C378.952209,634.822632 382.925720,635.780701 385.844452,635.336487 
	C389.009308,634.854736 391.124634,635.776611 391.221863,639.369629 
	C391.317139,642.890869 392.130035,646.280884 393.068665,649.648804 
	C398.162079,667.925171 409.750275,681.221863 425.314941,691.370483 
	C428.207672,693.256653 429.859802,695.482056 430.242889,698.928589 
	C431.876678,713.628662 433.636444,728.314819 435.324097,743.009033 
	C435.574524,745.189392 435.514404,747.812195 438.598785,747.551636 
	C441.606445,747.297607 440.679260,744.560242 440.687653,742.768188 
	C440.768860,725.441101 440.700684,708.113220 440.813660,690.786438 
	C440.832550,687.888794 439.867554,685.784424 437.924927,683.700134 
	C432.945496,678.357544 430.610748,671.923340 430.645721,664.588440 
	C430.702911,652.592773 430.693939,640.596619 430.664307,628.600769 
	C430.616943,609.421265 416.710724,595.443787 397.593475,595.391663 
	C381.099213,595.346680 364.604706,595.398010 348.110352,595.368652 
	C333.871796,595.343384 326.264191,589.475769 322.720062,575.565918 
	C320.703705,567.652283 318.539642,559.793030 315.495117,552.212891 
	C308.206757,534.066406 297.811523,518.904968 277.529816,513.505249 
	C274.471191,512.690979 273.069366,510.229919 271.328339,508.017609 
	C269.040283,505.110168 266.958984,501.890656 262.384399,500.983337 
	C262.384399,503.055725 262.208008,504.725128 262.414825,506.345642 
	C263.330750,513.522339 260.911987,519.432495 256.798218,525.320557 
	C247.454132,538.694580 238.693954,552.476501 229.499786,566.776550 
z"/>
<path fill="#000000" opacity="1.000000" stroke="none" 
	d="
M409.935364,424.000000 
	C409.933563,393.501251 409.936554,363.502502 409.927551,333.503754 
	C409.925659,327.191376 409.736145,327.002747 403.522827,327.001648 
	C384.190308,326.998199 364.857758,327.019012 345.525238,327.008209 
	C338.757477,327.004456 338.225220,326.473602 338.813141,319.951721 
	C342.293243,281.345642 357.754761,248.065643 384.259644,220.041641 
	C414.777771,187.774384 452.321411,168.327133 496.611084,165.174194 
	C568.458069,160.059479 624.577881,188.498413 663.956116,248.979874 
	C677.354675,269.558899 684.379089,292.570679 687.154846,316.907074 
	C687.173706,317.072601 687.181274,317.239349 687.196289,317.405334 
	C688.057190,326.895050 687.949463,327.015045 678.589111,327.014801 
	C659.923218,327.014343 641.255371,327.158478 622.592651,326.917236 
	C617.653442,326.853424 615.943359,328.216492 615.958618,333.377777 
	C616.123535,389.208374 616.108215,445.039764 615.983948,500.870575 
	C615.973328,505.662292 617.506836,507.379547 622.318115,507.132904 
	C628.800293,506.800629 635.313843,507.129242 641.812500,507.054108 
	C645.235901,507.014526 647.060974,508.163635 647.042175,511.949036 
	C646.945923,531.280762 646.907898,550.613708 647.025879,569.945129 
	C647.056396,574.953857 644.043518,574.934998 640.436707,575.001526 
	C636.527222,575.073669 635.314392,573.566650 635.382385,569.626770 
	C635.641052,554.631836 635.599304,539.630798 635.563599,524.632263 
	C635.548950,518.472473 635.067261,518.227844 628.897949,518.562561 
	C624.409729,518.805969 619.907532,518.878845 615.411560,518.880066 
	C560.080444,518.895142 504.749329,518.917175 449.418274,518.857727 
	C431.931000,518.838928 414.444183,518.535828 396.956757,518.460449 
	C390.415802,518.432251 390.415192,518.559082 390.414520,525.206055 
	C390.413025,539.872009 390.271545,554.540100 390.495911,569.202637 
	C390.562927,573.581421 389.082794,575.045654 384.772125,575.046570 
	C380.410645,575.047485 378.935394,573.420227 379.000336,569.124207 
	C379.292328,549.809265 379.414490,530.491028 379.452057,511.173615 
	C379.458099,508.074097 380.671051,507.048950 383.571747,507.077881 
	C390.403870,507.146088 397.247040,506.850830 404.067017,507.141754 
	C408.764130,507.342102 410.026184,505.453644 409.999023,500.992371 
	C409.843811,475.495728 409.931000,449.997620 409.935364,424.000000 
M510.918091,344.372375 
	C512.885376,342.160156 514.363403,343.476349 515.886780,345.005981 
	C519.297363,348.430359 522.991760,351.606964 526.114929,355.272644 
	C529.081055,358.753998 531.778625,358.819763 535.570068,356.621399 
	C541.705627,353.063965 548.129700,350.004181 554.403687,346.748901 
	C555.791565,348.849579 555.240295,350.481781 554.950745,352.079681 
	C553.052246,362.555664 551.275391,373.057037 549.136963,383.484100 
	C548.491699,386.630829 548.893433,389.277283 550.110596,392.131287 
	C554.291565,401.934753 558.446472,411.754059 562.339233,421.674072 
	C564.857910,428.092377 566.413086,434.640259 563.568481,441.561279 
	C561.583008,446.392059 557.257812,449.086731 553.740906,453.106262 
	C556.083618,454.005798 558.057190,454.775513 560.039246,455.522705 
	C570.069519,459.303955 578.260864,465.082031 582.528931,475.447510 
	C585.006042,481.463470 585.384644,487.669708 585.328796,494.046204 
	C585.214600,507.095093 585.298096,507.095856 598.100647,507.037842 
	C604.652283,507.008179 604.681274,507.008148 604.682190,500.321655 
	C604.689575,444.822479 604.688110,389.323273 604.681274,333.824097 
	C604.680420,327.002930 604.658569,326.994690 597.718262,326.993988 
	C541.219177,326.988373 484.720032,326.985626 428.220917,326.983398 
	C421.326019,326.983124 421.319153,326.986877 421.318542,333.879822 
	C421.313873,386.879028 421.313873,439.878235 421.308136,492.877441 
	C421.306549,507.613464 421.297516,507.532257 436.022614,507.093658 
	C439.374817,506.993805 440.953552,505.969025 440.788269,502.447998 
	C440.616486,498.789734 440.761566,495.116669 440.764709,491.450073 
	C440.779968,473.689209 449.099152,461.818329 465.740570,455.675385 
	C467.858398,454.893616 470.321930,454.731720 472.222534,452.449402 
	C470.725098,451.107727 469.286041,449.808899 467.836792,448.521545 
	C462.413025,443.703674 460.498291,437.696167 461.439087,430.556793 
	C461.969116,426.534637 463.275146,422.794983 464.801819,419.102905 
	C468.684418,409.713287 472.608276,400.340729 476.525635,390.965485 
	C477.373779,388.935699 477.854401,386.929596 477.375549,384.662537 
	C476.172882,378.968475 474.939392,373.267700 474.097412,367.514130 
	C473.127228,360.884674 470.923798,354.404297 471.011536,347.604645 
	C473.481476,347.337433 474.990570,348.479218 476.602753,349.306793 
	C481.642181,351.893463 486.794952,354.287933 491.672943,357.150330 
	C494.907257,359.048279 497.062561,358.459229 499.462158,355.841125 
	C502.949310,352.036530 506.737488,348.507812 510.918091,344.372375 
M595.594788,260.842072 
	C594.923767,258.784088 594.303467,256.708008 593.573914,254.670975 
	C585.216431,231.333237 573.823181,209.889038 555.057739,193.055954 
	C531.384705,171.820663 504.171051,169.779205 478.256470,187.416214 
	C469.777771,193.186646 462.819763,200.567917 456.650055,208.725754 
	C439.701385,231.136002 430.171844,256.629211 425.286835,284.056305 
	C423.458130,294.323608 421.886230,304.618103 421.998444,314.988342 
	C424.260895,316.079620 426.289093,315.654480 428.245270,315.657196 
	C452.734680,315.690979 477.224213,315.679504 501.713684,315.679932 
	C534.199768,315.680481 566.685913,315.637085 599.171692,315.741638 
	C602.944885,315.753784 604.352478,314.985504 604.115540,310.716766 
	C603.188416,294.013977 600.234924,277.702332 595.594788,260.842072 
M429.057739,198.584091 
	C385.393402,225.510712 358.492554,263.659210 350.452423,314.674713 
	C351.588104,315.192261 352.028198,315.567413 352.469421,315.568726 
	C370.619354,315.622986 388.769409,315.626587 406.919281,315.686279 
	C409.762390,315.695618 410.511139,314.243317 410.703705,311.641418 
	C411.206116,304.852631 411.750305,298.052185 412.684601,291.312805 
	C416.233948,265.710297 423.537292,241.323853 436.388336,218.726166 
	C443.741272,205.796570 453.013275,194.411301 464.698517,183.215622 
	C451.433136,186.885361 440.350708,192.051529 429.057739,198.584091 
M573.433105,187.162811 
	C570.083984,186.017258 566.935608,184.187759 562.608887,183.888763 
	C563.805481,185.201340 564.522766,186.084824 565.337219,186.867218 
	C579.858215,200.817413 590.348938,217.487793 598.319946,235.838821 
	C608.703796,259.744751 614.070374,284.805511 615.320862,310.785065 
	C615.451965,313.508789 615.649475,315.709900 619.294617,315.694580 
	C636.946655,315.620361 654.599243,315.655121 672.251587,315.687042 
	C674.948792,315.691925 675.771362,314.554047 675.202454,311.935364 
	C674.391968,308.204590 674.030884,304.367737 673.090149,300.674957 
	C659.224792,246.243500 625.225891,209.361328 573.433105,187.162811 
M509.525543,488.315430 
	C505.536438,488.862854 501.547302,489.410309 496.361847,490.121918 
	C503.474365,498.110229 509.523010,506.258270 519.657471,506.790833 
	C536.237061,507.662048 552.895935,506.989014 569.520996,507.058167 
	C572.824890,507.071899 573.880432,505.532196 573.796936,502.460266 
	C573.674927,497.974701 573.804443,493.482971 573.759277,488.994537 
	C573.648254,477.954529 566.953796,469.284576 556.354797,466.179932 
	C554.548462,465.650848 553.245422,465.744507 551.903137,467.160553 
	C540.575317,479.110748 526.208496,485.111847 509.525543,488.315430 
M535.064697,408.549530 
	C536.005920,404.021393 536.076599,399.458466 536.197266,394.393738 
	C521.182373,394.393738 506.747559,394.383728 492.312744,394.404694 
	C490.185760,394.407776 489.370880,395.711212 489.529449,397.683502 
	C490.450012,409.131561 492.908173,420.031860 500.652985,429.073578 
	C508.238434,437.929352 517.622864,438.096252 525.423157,429.431396 
	C530.580994,423.701874 533.327209,416.817566 535.064697,408.549530 
M500.678131,447.321045 
	C499.159271,452.295502 496.457672,456.273346 491.609070,458.625977 
	C482.902374,462.850555 482.921906,462.892456 486.612762,472.255768 
	C486.978363,473.183289 487.422211,474.084747 487.722412,475.032318 
	C488.612854,477.843079 490.489258,478.884552 493.403625,478.679443 
	C502.530945,478.037170 511.614136,477.172699 520.313965,474.087830 
	C527.987854,471.366760 535.155579,467.765991 541.943848,461.418732 
	C532.857971,458.724213 526.463257,453.912903 524.456665,444.516174 
	C517.265137,447.638245 510.614288,447.877563 503.956421,445.260040 
	C502.423218,444.657257 501.373077,444.987183 500.678131,447.321045 
M458.075409,473.591064 
	C453.920624,478.104401 452.066437,483.428802 452.256226,489.553223 
	C452.374725,493.377075 452.550232,497.233398 452.200775,501.029144 
	C451.740143,506.031677 453.932739,507.322693 458.572418,507.148346 
	C466.716064,506.842377 474.878540,507.035706 483.033142,507.024536 
	C487.106293,507.018951 491.179474,507.023560 496.694580,507.023560 
	C484.088501,494.865631 476.963806,481.187958 472.812378,465.739594 
	C466.944641,466.723358 462.396759,469.195221 458.075409,473.591064 
M498.862915,371.687195 
	C493.742218,372.621857 490.615875,367.285522 485.398346,367.281708 
	C486.142548,371.445984 486.808685,375.344971 487.544922,379.230682 
	C488.004608,381.656647 489.330750,382.926605 492.016022,382.912262 
	C506.004181,382.837585 519.992920,382.877747 533.981506,382.864105 
	C535.689880,382.862427 537.542664,382.753845 538.062988,380.753998 
	C539.208496,376.351166 540.442200,371.936951 540.388855,367.146667 
	C537.402100,367.437988 535.302917,368.928711 533.276245,370.238770 
	C529.521423,372.665955 526.827515,372.099304 523.831848,368.768494 
	C520.546143,365.115234 517.245605,361.344513 511.506866,357.449280 
	C507.536743,361.990234 503.496185,366.611755 498.862915,371.687195 
M472.460876,431.739777 
	C472.738739,438.124756 480.300507,446.181854 486.715057,446.976410 
	C487.611023,447.087402 488.489777,447.059967 488.921021,446.268311 
	C490.758179,442.895599 492.838348,438.972290 490.669739,435.561005 
	C486.199524,428.529175 482.726166,421.132294 480.138123,412.293091 
	C476.801056,418.885376 474.283844,424.748688 472.460876,431.739777 
M545.161072,415.221100 
	C543.314453,421.838623 540.649719,428.072968 536.677368,433.724304 
	C534.549377,436.751770 534.560425,444.089691 537.118408,446.151581 
	C540.477539,448.859253 542.728577,445.100525 545.307678,443.886230 
	C547.223694,442.984192 548.922180,441.520935 550.538208,440.103241 
	C553.267578,437.708862 554.450500,434.437469 553.440369,431.067322 
	C551.773438,425.505798 549.567139,420.101868 547.474609,414.675293 
	C547.025085,413.509583 546.094788,412.425415 545.161072,415.221100 
z"/>
<path fill="#000000" opacity="1.000000" stroke="none" 
	d="
M445.220123,778.679443 
	C489.999664,778.669067 534.304871,778.664490 578.610046,778.671997 
	C584.743469,778.673096 587.101807,782.083984 585.061340,787.833801 
	C584.162842,790.365662 581.995911,790.027893 580.071411,790.134766 
	C570.258118,790.680237 570.255493,790.661621 570.253296,800.597717 
	C570.250061,815.421631 570.394531,830.247803 570.158875,845.067993 
	C570.088562,849.488892 571.534424,851.252625 575.887207,850.656799 
	C576.867737,850.522583 577.883240,850.638672 578.882568,850.648682 
	C584.769836,850.707764 586.958191,853.943359 585.099243,859.598206 
	C584.357605,861.854065 582.644287,861.430908 581.038330,861.480347 
	C560.228333,862.120789 539.423218,861.857483 518.607544,861.537598 
	C494.638428,861.169312 470.659119,861.339050 446.685638,861.494629 
	C442.182861,861.523865 440.387207,860.242432 440.713257,855.536865 
	C440.959625,851.980835 442.047150,850.506653 445.757660,850.581970 
	C454.748169,850.764526 463.745148,850.664062 472.739075,850.607971 
	C474.167145,850.599060 475.754120,851.048645 477.492462,849.347290 
	C473.602325,839.580322 469.642853,829.578430 465.634918,819.595947 
	C462.472168,811.718628 458.869659,803.991516 456.198242,795.953186 
	C454.625946,791.222168 452.097443,789.893250 447.467163,790.017700 
	C441.223358,790.185425 439.327515,787.191162 440.985962,781.114319 
	C441.566498,778.987122 442.995667,778.722229 445.220123,778.679443 
M499.188995,841.577759 
	C498.420776,844.361633 496.261871,846.777954 496.834198,850.577148 
	C507.910522,850.577148 518.854248,850.615784 529.797241,850.550537 
	C532.599915,850.533813 532.737183,848.366455 532.737610,846.266479 
	C532.741333,828.948853 532.748230,811.631226 532.732178,794.313599 
	C532.731018,793.009521 532.876526,791.605896 531.579102,790.687195 
	C528.211487,788.302551 519.600586,790.694824 518.052063,794.528015 
	C511.819122,809.956299 505.631744,825.402893 499.188995,841.577759 
M498.435730,813.029114 
	C501.328522,805.664734 504.221313,798.300293 507.207397,790.698486 
	C493.296844,790.698486 480.149994,790.698486 466.888306,790.698486 
	C468.488434,797.855957 484.317627,836.884521 487.230438,840.761963 
	C490.927216,831.589294 494.525482,822.661072 498.435730,813.029114 
M544.310852,815.500000 
	C544.314331,825.646545 544.406616,835.794250 544.270874,845.938965 
	C544.226318,849.271790 545.186279,851.016174 548.789124,850.648865 
	C550.270142,850.497803 551.795532,850.500488 553.274597,850.666260 
	C557.397827,851.128418 558.788635,849.405945 558.737488,845.268860 
	C558.550232,830.134521 558.760498,814.995605 558.629333,799.860107 
	C558.541016,789.666260 560.940735,790.233093 548.648926,790.147644 
	C545.428772,790.125244 544.191162,791.313538 544.263123,794.540588 
	C544.411194,801.190796 544.309875,807.846558 544.310852,815.500000 
z"/>
<path fill="#000000" opacity="1.000000" stroke="none" 
	d="
M485.290833,542.959473 
	C503.241669,542.922729 520.722046,543.049744 538.197632,542.815247 
	C543.039001,542.750244 544.815186,544.404175 544.366333,549.165405 
	C544.055298,552.465454 544.477966,555.829712 544.258484,559.144470 
	C544.021851,562.719238 545.589172,563.783020 548.959900,563.708191 
	C556.114136,563.549194 563.278381,563.810364 570.430908,563.616760 
	C574.293274,563.512207 575.296204,565.295349 575.226746,568.760254 
	C575.158081,572.188110 575.103455,575.137451 570.402466,575.055481 
	C563.247192,574.930725 556.086121,575.149719 548.930420,575.036987 
	C545.523010,574.983337 544.125000,576.278259 544.260559,579.748230 
	C544.448792,584.568115 544.319031,589.401245 544.294250,594.228577 
	C544.202209,612.178406 530.808411,626.161133 513.578613,626.309753 
	C495.726471,626.463684 482.157471,613.077209 481.750946,594.836304 
	C481.639709,589.844788 481.557831,584.841919 481.769836,579.857422 
	C481.929565,576.101135 480.357422,574.876770 476.761871,574.964600 
	C469.941162,575.131287 463.110443,574.884766 456.289337,575.043945 
	C452.161438,575.140198 450.698486,573.411865 450.823914,569.352112 
	C450.939026,565.626831 451.636108,563.406860 456.134430,563.605408 
	C463.112122,563.913452 470.117035,563.553223 477.103668,563.734497 
	C480.568634,563.824280 481.924103,562.567383 481.752930,559.096863 
	C481.556396,555.111511 481.744873,551.108459 481.691132,547.114075 
	C481.660919,544.869263 482.136322,543.122070 485.290833,542.959473 
M516.496582,554.373352 
	C510.178528,554.377869 503.859528,554.446716 497.542816,554.357483 
	C494.732941,554.317810 493.201385,555.122253 493.228516,558.289490 
	C493.338226,571.090881 493.036438,583.901306 493.411804,596.692993 
	C493.714264,607.000183 502.483215,614.871765 512.831177,614.921936 
	C523.374451,614.973022 532.323914,607.283752 532.614319,597.148682 
	C532.985535,584.190430 532.704712,571.214355 532.781494,558.246399 
	C532.797607,555.526794 531.763672,554.275085 528.965454,554.351257 
	C525.144226,554.455200 521.318054,554.374573 516.496582,554.373352 
z"/>
<path fill="#000000" opacity="1.000000" stroke="none" 
	d="
M501.508301,230.561951 
	C505.139404,219.786545 508.653748,209.389008 512.201599,199.002930 
	C512.278320,198.778412 512.739929,198.685394 513.132690,198.470428 
	C514.849670,199.276184 514.831848,201.076309 515.329102,202.560715 
	C518.551636,212.182098 521.909912,221.762390 524.882935,231.460648 
	C525.921814,234.849442 527.705261,235.801834 531.013184,235.751053 
	C540.671814,235.602768 550.334534,235.692444 559.995361,235.749344 
	C561.765747,235.759766 563.652527,235.298050 565.519592,236.682663 
	C565.258179,239.167068 562.934753,239.903564 561.360168,241.096252 
	C553.796509,246.825409 546.259644,252.606583 538.445740,257.980438 
	C535.263550,260.168976 534.534912,262.137756 535.814880,265.784027 
	C539.065247,275.043457 541.916077,284.443970 544.864563,293.807648 
	C545.349365,295.347412 546.294495,296.830536 545.879089,298.637939 
	C544.289368,299.615906 543.430908,298.197357 542.469360,297.507568 
	C533.944946,291.392792 525.364380,285.349060 517.012573,279.004974 
	C514.159546,276.837769 512.209167,276.662048 509.255890,278.928253 
	C501.200745,285.109406 492.873077,290.937897 484.589447,296.816010 
	C483.344208,297.699646 482.355164,299.405975 479.838135,298.720642 
	C481.410583,293.663940 482.944580,288.655640 484.526825,283.662628 
	C486.336639,277.951538 487.916687,272.146271 490.113678,266.586304 
	C491.730499,262.494568 491.078674,260.049072 487.322113,257.507141 
	C479.052338,251.911179 471.109650,245.829895 463.077332,239.887314 
	C461.938110,239.044434 460.333557,238.540054 460.061432,236.667969 
	C461.476715,235.014648 463.430908,235.762634 465.120239,235.749268 
	C474.947266,235.671463 484.778961,235.553589 494.600952,235.789062 
	C498.397095,235.880066 500.650146,234.694244 501.508301,230.561951 
M524.526428,266.567474 
	C524.116516,265.302094 523.859863,263.959717 523.269592,262.784943 
	C520.960876,258.190277 522.159119,255.032333 526.708191,252.642441 
	C528.903809,251.488953 530.678528,249.534180 532.643799,247.942215 
	C529.662292,246.922043 527.172119,246.751404 524.713806,246.958633 
	C520.028748,247.353607 517.132080,245.705917 516.153076,240.818909 
	C515.584961,237.982956 514.372681,235.276031 513.093323,231.440979 
	C511.650208,235.787231 510.359955,238.992722 509.544342,242.314758 
	C508.672668,245.865051 506.653564,247.131485 503.107086,247.066193 
	C499.980255,247.008636 496.737671,246.561768 492.852814,247.705246 
	C496.092682,250.119202 498.505493,252.168198 501.161346,253.828400 
	C504.094299,255.661819 504.549591,257.797089 503.448059,260.987732 
	C502.376404,264.091980 500.834839,267.185944 500.909363,271.297943 
	C504.153625,268.986969 506.950348,267.194763 509.511475,265.112701 
	C511.952087,263.128601 514.019653,262.899536 516.565002,265.018799 
	C519.188660,267.203369 522.142883,268.991058 525.004883,270.988953 
	C525.936829,269.290497 524.758484,268.356873 524.526428,266.567474 
z"/>
</svg>