<svg version="1.1" id="Layer_1" xmlns="http://www.w3.org/2000/svg" xmlns:xlink="http://www.w3.org/1999/xlink" x="0px" y="0px"
	 width="100%" viewBox="0 0 1024 1024" enable-background="new 0 0 1024 1024" xml:space="preserve">
<path fill="#000000" opacity="1.000000" stroke="none" 
	d="
M542.337585,779.515503 
	C489.708344,791.513428 438.418243,788.261963 388.221832,769.650146 
	C357.728027,758.343567 330.180786,741.966309 306.124359,719.551941 
	C312.119476,720.311462 318.114380,721.072937 324.109802,721.829956 
	C369.695312,727.585815 412.745331,719.230835 452.921204,697.327148 
	C501.402710,670.895386 536.452209,631.978516 556.060730,580.226257 
	C576.617004,525.972778 574.724182,471.806488 550.747192,418.986908 
	C526.027710,364.531616 484.725708,327.900391 428.055847,308.737427 
	C399.650208,299.132019 370.446289,297.155823 340.767578,300.094177 
	C338.151459,300.353210 335.487457,300.128510 332.619690,300.128510 
	C332.597839,297.986511 334.462463,297.511627 335.668304,296.680817 
	C370.910431,272.399200 409.299591,255.961563 452.005310,250.577454 
	C533.741516,240.272568 605.140015,263.009827 666.046265,318.350189 
	C708.328491,356.768463 735.597107,404.266937 746.668518,460.130432 
	C763.124451,543.162659 745.054443,618.636047 691.870117,684.767334 
	C653.045166,733.043640 603.096008,764.638977 542.337585,779.515503 
M537.511597,355.016357 
	C582.342285,409.432587 600.108398,471.682404 590.017334,541.364868 
	C582.595337,592.616333 559.541382,636.363281 523.014709,673.066467 
	C487.481476,708.771423 445.277252,732.027039 395.748444,741.790161 
	C392.698883,742.391235 389.361237,742.093079 386.364960,744.095154 
	C425.078735,761.744202 474.280518,768.364868 516.655457,761.460022 
	C579.591553,751.204773 631.600708,721.444336 672.412964,672.599670 
	C707.844299,630.195068 726.896912,581.029114 729.486145,525.839417 
	C731.047791,492.553619 726.018677,460.046478 713.813232,428.919769 
	C688.081543,363.297913 643.070496,316.087585 577.996643,288.601868 
	C539.899597,272.510559 500.022308,267.785187 459.060516,272.477478 
	C445.245667,274.059998 431.604980,276.929779 417.688477,281.917480 
	C465.648865,293.680115 505.104279,317.942963 537.511597,355.016357 
z"/>
</svg>