<svg version="1.1" id="Layer_1" xmlns="http://www.w3.org/2000/svg" xmlns:xlink="http://www.w3.org/1999/xlink" x="0px" y="0px"
	 width="100%" viewBox="0 0 1024 1024" enable-background="new 0 0 1024 1024" xml:space="preserve">
<path fill="#000000" opacity="1.000000" stroke="none" 
	d="
M360.051514,747.000000 
	C360.068756,769.663879 360.088623,791.827759 360.102936,813.991638 
	C360.107269,820.714905 359.941742,820.885071 353.039490,820.923035 
	C349.040161,820.945068 345.040527,820.907288 341.041046,820.904541 
	C332.917603,820.898987 332.918884,820.901245 332.920197,813.014587 
	C332.926331,775.519287 332.936340,738.023987 332.936523,700.528687 
	C332.937317,538.382263 332.935120,376.235809 332.935059,214.089371 
	C332.935059,212.756256 333.023346,211.418686 332.943298,210.090866 
	C332.727631,206.513626 334.290100,204.911301 337.940033,204.994217 
	C343.769653,205.126648 349.604858,205.088806 355.436554,205.021469 
	C358.548615,204.985565 360.082611,206.327133 360.042389,209.484558 
	C360.002075,212.650024 360.053894,215.816589 360.054932,218.982681 
	C360.082458,302.472168 360.108612,385.961670 360.134949,469.451172 
	C360.135468,471.100983 360.135040,472.750793 360.135040,474.375000 
	C362.458496,474.972290 363.067841,473.265381 363.929901,472.250916 
	C394.675995,436.068237 425.434082,399.895416 456.030457,363.586334 
	C459.001068,360.061066 462.035492,358.637817 466.648621,358.646545 
	C539.305969,358.783875 611.963623,358.749817 684.621216,358.756317 
	C692.981934,358.757080 692.994812,358.760345 692.997498,366.884949 
	C693.032593,472.871613 693.064941,578.858276 693.093689,684.844971 
	C693.095886,692.982544 693.068481,693.009644 685.146606,693.009644 
	C617.655029,693.009583 550.163391,692.959778 482.672089,693.093262 
	C477.876373,693.102722 474.811340,691.646912 471.739807,687.869263 
	C435.684784,643.526428 399.427979,599.347534 363.216309,555.132141 
	C362.501282,554.259033 361.688934,553.465698 360.052002,551.692932 
	C360.052002,617.385620 360.052002,681.942810 360.051514,747.000000 
M665.937622,654.467712 
	C665.944946,566.981567 665.953125,479.495392 665.957947,392.009247 
	C665.958313,385.380127 665.947388,385.363159 659.334900,385.362396 
	C599.011047,385.355591 538.687073,385.382477 478.363373,385.287994 
	C474.569885,385.282043 471.917358,386.258636 469.369263,389.277435 
	C435.310333,429.627838 401.139862,469.884369 366.900513,510.081879 
	C364.291443,513.144958 365.182587,515.080933 367.380432,517.761780 
	C406.463165,565.432495 445.498108,613.142700 484.407104,660.955261 
	C487.197113,664.383728 490.002960,665.838928 494.467499,665.826782 
	C548.125366,665.681213 601.783752,665.760620 655.442017,665.713379 
	C667.068970,665.703125 665.859863,667.354492 665.937622,654.467712 
z"/>
</svg>