<svg version="1.1" id="Layer_1" xmlns="http://www.w3.org/2000/svg" xmlns:xlink="http://www.w3.org/1999/xlink" x="0px" y="0px"
	 width="100%" viewBox="0 0 1024 1024" enable-background="new 0 0 1024 1024" xml:space="preserve">
<path fill="#000000" opacity="1.000000" stroke="none" 
	d="
M542.216492,853.926392 
	C542.214783,862.305176 542.214783,862.299072 534.279785,862.295044 
	C519.614929,862.287659 504.950043,862.299072 490.285156,862.280212 
	C483.975433,862.272095 483.807068,862.105469 483.804077,855.869141 
	C483.786652,819.706909 483.786133,783.544678 483.770599,747.382446 
	C483.767120,739.341736 483.749847,739.334961 475.897949,739.333252 
	C439.402374,739.325439 402.906830,739.327209 366.411255,739.311462 
	C359.770844,739.308594 359.749329,739.278381 359.740570,732.659485 
	C359.720306,717.328003 359.875122,701.994080 359.624695,686.666626 
	C359.548431,681.999329 361.159912,680.668335 365.688965,680.685120 
	C402.850586,680.823181 440.012909,680.764099 477.175049,680.751099 
	C483.706116,680.748840 483.741760,680.719238 483.746185,674.062256 
	C483.763580,647.898804 483.645538,621.734375 483.859528,595.572693 
	C483.898621,590.794373 482.408234,589.131226 477.662079,588.143738 
	C393.103973,570.552063 334.745056,521.781860 308.638855,439.147705 
	C276.912109,338.722717 324.954193,230.900024 418.873505,185.556961 
	C450.477020,170.299179 483.917450,162.782532 518.955872,164.028412 
	C574.850098,166.015839 623.609558,185.978439 663.556641,225.360214 
	C696.786926,258.120239 717.634949,297.809967 724.315491,344.230255 
	C734.498413,414.986511 714.766235,476.547913 664.712585,527.552002 
	C632.825562,560.044495 593.828064,580.223816 548.787964,588.087158 
	C543.916504,588.937622 542.122925,590.769409 542.167603,595.862488 
	C542.397034,622.023865 542.393127,648.189636 542.154541,674.350952 
	C542.108765,679.366150 543.465576,680.907532 548.582520,680.877686 
	C585.576843,680.661682 622.572937,680.740723 659.568420,680.733887 
	C666.264343,680.732605 666.273621,680.748535 666.278687,687.335510 
	C666.290344,702.500305 666.106262,717.668823 666.403442,732.827881 
	C666.501282,737.818481 665.085388,739.452332 659.957825,739.425232 
	C623.130005,739.230469 586.300659,739.318604 549.471802,739.317322 
	C542.224243,739.317078 542.198120,739.317810 542.197571,746.455627 
	C542.195007,782.116455 542.207214,817.777283 542.216492,853.926392 
M368.136200,322.564941 
	C354.184265,360.412903 354.396149,398.073334 369.468628,435.599792 
	C397.281250,504.845764 472.578156,545.278809 544.689331,529.621704 
	C639.480835,509.040253 692.821350,408.823425 656.564697,318.941071 
	C629.089600,250.828766 557.388123,210.753723 482.809387,225.873657 
	C428.013794,236.982803 389.744965,269.836456 368.136200,322.564941 
z"/>
</svg>