<svg version="1.1" id="Layer_1" xmlns="http://www.w3.org/2000/svg" xmlns:xlink="http://www.w3.org/1999/xlink" x="0px" y="0px"
	 width="100%" viewBox="0 0 1024 1024" enable-background="new 0 0 1024 1024" xml:space="preserve">
<path fill="#000000" opacity="1.000000" stroke="none" 
	d="
M670.361145,863.475708 
	C631.544495,881.300354 591.179260,892.190674 549.076294,896.022400 
	C518.995239,898.760071 488.921692,897.858521 458.915039,893.552307 
	C400.353760,885.148193 346.740479,864.249207 297.891022,831.023193 
	C239.654236,791.412109 195.481339,739.643799 165.029236,676.213989 
	C148.272552,641.310852 137.328400,604.534302 131.887589,566.228638 
	C127.752899,537.118713 127.160332,507.777832 129.874985,478.529480 
	C136.177811,410.621155 158.796890,348.502502 198.257248,292.813690 
	C244.114822,228.096802 304.181488,181.341019 378.240784,152.844604 
	C408.506561,141.199005 439.876556,133.915543 472.187073,130.564178 
	C497.296021,127.959778 522.431213,127.702934 547.502686,129.887482 
	C604.802917,134.880188 658.251160,152.286346 707.660889,181.728500 
	C767.952454,217.654922 815.488281,266.161255 849.696289,327.503937 
	C870.129578,364.145233 883.833252,403.209320 891.525635,444.502136 
	C897.142456,474.653198 898.717896,505.043793 897.013916,535.472656 
	C893.388306,600.218689 874.142517,660.269470 839.618774,715.216309 
	C798.071777,781.341125 741.587585,830.577332 670.361145,863.475708 
M834.420166,344.051910 
	C773.661072,229.075043 662.922180,169.300735 582.804871,157.227722 
	C585.388123,158.665955 587.507874,159.934814 589.703308,161.055573 
	C664.308289,199.142578 701.418701,282.817902 687.656372,362.542603 
	C680.897888,401.694214 663.957275,435.727417 636.523071,464.585388 
	C613.511108,488.791565 586.228577,505.885101 554.200745,515.430237 
	C538.767517,520.029785 522.816284,520.791687 506.954926,522.657715 
	C468.988220,527.124023 435.943665,542.886780 408.933472,569.953125 
	C363.233917,615.747742 347.046021,671.223328 359.384308,734.264709 
	C369.150665,784.164978 397.085999,822.488647 440.026764,849.727600 
	C463.211121,864.434326 488.562805,873.212524 515.908447,875.478394 
	C535.919189,877.136475 555.859497,875.036865 575.538269,871.387695 
	C651.519897,857.298035 716.693848,822.445007 771.115967,767.795898 
	C806.948303,731.814026 834.066162,689.950806 852.318970,642.445740 
	C873.999390,586.019714 880.844360,527.755249 873.457825,467.880035 
	C868.108215,424.516754 855.099915,383.431946 834.420166,344.051910 
M539.716003,286.775055 
	C530.520142,279.315765 520.035156,274.824890 508.200867,274.428375 
	C476.436615,273.364166 451.819763,298.451538 453.136505,330.214905 
	C454.498291,363.065430 486.331238,387.066986 518.112793,378.919739 
	C538.597229,373.668579 551.892273,360.461975 557.016479,340.050018 
	C562.221497,319.316589 555.750488,301.698669 539.716003,286.775055 
M169.458801,482.010437 
	C165.239960,489.799194 161.529999,497.704010 161.500305,506.884521 
	C161.464066,518.073914 164.801178,527.676086 173.434647,535.213989 
	C176.916061,538.253601 180.402267,538.144775 183.919418,535.850464 
	C187.703033,533.382324 190.559967,530.083008 192.873535,526.049622 
	C201.602890,510.831238 191.520813,489.885895 183.032104,480.657867 
	C178.231720,475.439270 174.511520,475.827484 169.458801,482.010437 
z"/>
<path fill="#000000" opacity="1.000000" stroke="none" 
	d="
M567.916138,711.564209 
	C560.397095,738.933899 535.017273,755.961670 507.892120,752.151733 
	C480.060333,748.242432 459.919342,724.246094 460.715759,695.944824 
	C461.469879,669.146362 483.172302,647.026306 510.107727,644.524719 
	C536.600342,642.064209 564.366943,659.062439 568.994812,690.825867 
	C569.977783,697.573120 569.767029,704.450806 567.916138,711.564209 
z"/>
</svg>