<svg version="1.1" id="Layer_1" xmlns="http://www.w3.org/2000/svg" xmlns:xlink="http://www.w3.org/1999/xlink" x="0px" y="0px"
	 width="100%" viewBox="0 0 1024 1024" enable-background="new 0 0 1024 1024" xml:space="preserve">
<path fill="#000000" opacity="1.000000" stroke="none" 
	d="
M343.674438,775.292175 
	C385.422546,801.774536 430.284698,819.369507 478.712738,827.298523 
	C507.380676,831.992249 536.243469,832.905334 565.292236,829.975708 
	C629.065735,823.544189 686.617981,801.232727 737.214172,762.126587 
	C795.463257,717.105652 834.543762,659.147766 851.038940,586.805725 
	C857.071838,560.347717 859.213562,533.436829 857.464539,506.443970 
	C854.494324,460.603973 842.357971,417.240021 818.535034,377.683563 
	C788.206238,327.324402 745.865601,290.911682 690.652222,270.052490 
	C663.549927,259.813477 635.364075,255.236938 606.436523,256.401642 
	C552.221985,258.584503 503.651550,275.621765 463.068298,312.627563 
	C430.373291,342.440521 410.140198,379.326752 403.728058,423.039886 
	C395.607178,478.402161 410.708466,526.754089 451.704498,565.598267 
	C475.059448,587.727295 503.512634,599.796997 535.886658,599.428223 
	C566.934753,599.074463 594.155579,587.939270 613.788086,563.058350 
	C627.353821,545.865967 631.791626,525.849670 625.639465,504.194824 
	C624.686951,500.842377 624.459290,500.412231 622.184692,497.695038 
	C619.498718,498.249512 619.512878,500.830750 618.701843,502.655609 
	C610.303467,521.552429 591.542603,534.049744 571.755737,533.202820 
	C556.729126,532.559631 544.240601,525.822266 533.821350,515.270874 
	C519.403748,500.670471 511.817078,483.352509 513.662598,462.485352 
	C515.137085,445.813477 523.167969,432.187225 533.699829,419.801880 
	C563.259155,385.040344 607.518860,379.081879 645.084229,395.050385 
	C687.670898,413.153412 711.959473,447.119263 719.963684,491.512665 
	C731.842468,557.394714 708.382141,610.749817 657.012390,652.454834 
	C631.320190,673.313171 601.481873,685.382935 569.179871,690.913147 
	C521.935730,699.001465 477.143494,690.808167 434.822784,668.424133 
	C396.918091,648.375610 367.004059,619.735291 344.502991,583.501587 
	C324.653290,551.537415 312.638123,516.714539 308.511841,479.142273 
	C301.496338,415.261810 315.955322,356.316711 349.674652,302.161285 
	C381.274689,251.409515 425.071808,213.968613 479.503387,189.449295 
	C508.615234,176.335556 539.339661,168.420959 571.150391,164.431854 
	C632.189636,156.777451 690.710083,165.647934 746.635803,190.774445 
	C811.344971,219.847168 861.531860,265.630920 898.392151,326.034271 
	C922.319519,365.244415 937.956665,407.685547 946.372498,452.838531 
	C950.560608,475.308960 952.830811,497.996185 952.950256,520.783691 
	C953.244934,576.982361 941.859741,630.813477 918.647522,682.087158 
	C897.440552,728.931335 868.247864,770.141907 831.460449,806.002686 
	C791.093140,845.353333 744.580750,875.273315 692.197327,895.988464 
	C659.253601,909.016113 625.148010,917.657532 590.013672,922.456909 
	C568.168457,925.440979 546.270935,926.766052 524.270142,926.274719 
	C483.300751,925.359802 443.227936,918.896912 403.993073,906.902344 
	C355.066742,891.944885 310.191986,869.013977 269.130219,838.697693 
	C210.529846,795.432495 164.504898,741.305420 130.575500,676.822327 
	C110.305794,638.299683 94.768753,598.033142 85.301437,555.532837 
	C78.930267,526.931641 74.769211,498.034576 73.481148,468.662659 
	C70.846909,408.593719 79.892403,350.329315 98.385468,293.291443 
	C105.491020,271.375885 114.272774,250.173416 123.861618,229.280029 
	C133.269943,208.779953 152.304794,199.591843 169.909576,201.185120 
	C193.499527,203.320053 209.395905,217.652420 213.644012,239.753845 
	C215.627640,250.074112 214.556290,260.313751 209.987549,270.013580 
	C193.810349,304.359253 181.570389,340.019653 174.932755,377.454224 
	C169.396164,408.679199 166.868759,440.096710 169.024124,471.870880 
	C171.999756,515.737427 181.368423,558.088379 198.053085,598.748718 
	C212.892807,634.913147 232.882812,668.030090 257.861084,698.144043 
	C282.612274,727.984253 311.099518,753.632141 343.674438,775.292175 
z"/>
</svg>