<svg version="1.1" id="Layer_1" xmlns="http://www.w3.org/2000/svg" xmlns:xlink="http://www.w3.org/1999/xlink" x="0px" y="0px"
	 width="100%" viewBox="0 0 1024 1024" enable-background="new 0 0 1024 1024" xml:space="preserve">
<path fill="#000000" opacity="1.000000" stroke="none" 
	d="
M327.144043,757.225464 
	C277.458221,753.483154 232.477844,737.377686 190.940475,711.061035 
	C187.037399,708.588135 186.240738,706.555969 189.076141,702.433960 
	C210.760345,670.910278 236.861237,643.917664 269.202179,623.198975 
	C270.296661,622.497864 271.645538,622.036377 272.057007,620.568909 
	C271.791260,619.056152 270.446228,618.514038 269.441711,617.710876 
	C224.489655,581.766785 192.840286,536.179260 171.573822,483.011993 
	C166.924164,471.387634 163.658539,459.346008 160.019012,447.408600 
	C159.020584,444.133881 159.392899,442.384460 163.135681,441.190125 
	C189.378540,432.815735 216.021301,426.594025 243.585968,424.561676 
	C254.718613,423.740875 265.836731,423.065247 276.985809,423.479034 
	C280.387543,423.605316 281.040558,422.060303 280.746307,419.280731 
	C279.463409,407.162018 279.477051,394.998871 279.696014,382.843445 
	C280.235718,352.883453 285.414215,323.652039 293.698944,294.909729 
	C294.764160,291.214172 296.469543,290.474823 300.233185,291.266998 
	C342.886932,300.244812 381.937164,317.363953 417.449097,342.606842 
	C418.785889,343.557037 420.167084,344.444733 421.746979,345.509430 
	C423.841583,343.359924 424.573303,340.752441 425.602875,338.386322 
	C443.969574,296.176544 469.836731,259.079773 501.915558,226.202637 
	C504.591888,223.459732 507.341827,220.779816 509.878540,217.912262 
	C512.019531,215.492050 513.706970,215.496002 516.047546,217.809341 
	C544.059875,245.495636 568.553223,275.853241 587.117554,310.760071 
	C592.437927,320.764160 597.437073,330.917938 601.882996,341.342682 
	C602.457458,342.689514 602.773560,344.219391 604.605652,345.469604 
	C607.276306,343.649017 610.127075,341.719543 612.963867,339.769623 
	C647.153198,316.269073 684.522888,300.182861 725.058594,291.306274 
	C729.761169,290.276459 731.540344,291.448395 732.836121,295.930817 
	C739.323364,318.371796 743.698486,341.153442 745.427429,364.474915 
	C746.723022,381.950378 746.893860,399.387268 745.387695,416.846588 
	C744.850281,423.076477 744.990234,423.126526 751.426270,423.116455 
	C789.369812,423.057037 826.286377,429.372864 862.394836,440.852264 
	C866.036804,442.010071 866.969116,443.614014 865.978455,447.396576 
	C849.714539,509.494873 817.951050,562.260193 770.819031,605.779297 
	C765.360229,610.819702 759.499390,615.424561 753.315002,620.663269 
	C763.264587,627.187073 772.498474,633.660095 781.224304,640.843689 
	C802.871155,658.664429 821.339417,679.307007 837.033875,702.513550 
	C839.498962,706.158508 839.548157,708.294922 835.533875,710.859436 
	C797.322205,735.271301 755.948975,751.021606 710.804016,756.105774 
	C672.517090,760.417603 635.770447,754.818298 601.126892,737.357056 
	C600.544678,737.063599 599.887146,736.919678 599.458862,736.772583 
	C598.058167,736.920227 597.584412,737.857300 597.101379,738.712036 
	C582.758423,764.087036 561.502625,782.424072 537.176453,797.650696 
	C530.531189,801.810242 523.612915,805.461975 516.635132,809.017517 
	C514.446777,810.132629 512.466736,810.611389 510.044678,809.381592 
	C479.472961,793.858398 452.145447,774.457642 432.926666,745.287476 
	C427.213806,736.616638 427.231262,736.631104 417.684967,740.933228 
	C389.021942,753.850586 358.902557,758.749084 327.144043,757.225464 
M361.709991,563.784912 
	C396.513641,597.125793 438.409882,616.744690 484.816376,627.736816 
	C484.453217,626.574280 483.843567,625.818115 483.173584,625.119751 
	C464.045837,605.181702 447.713776,583.161255 434.130432,559.110657 
	C413.946014,523.372314 402.442749,485.126740 402.235992,443.940125 
	C402.104889,417.827057 406.267090,392.224518 414.832794,367.485565 
	C416.410889,362.927887 415.625641,360.423370 411.697876,357.574249 
	C381.140991,335.408691 347.590820,319.639679 311.204254,309.794647 
	C309.503479,309.334442 307.750549,308.500610 305.713135,309.622772 
	C301.117828,326.737061 298.039490,344.257355 296.416443,361.970428 
	C294.053864,387.753845 295.006500,413.444489 299.132050,439.082550 
	C306.849609,487.043182 326.336212,528.974243 361.709991,563.784912 
M671.493408,325.076752 
	C652.633972,333.264862 634.746582,343.222504 618.114075,355.291321 
	C608.519958,362.252899 609.257690,359.448181 612.682312,370.797455 
	C624.677429,410.548676 627.759827,450.697937 618.570374,491.501404 
	C608.250549,537.324036 585.267578,576.419800 555.104248,611.738159 
	C550.754944,616.830750 546.227112,621.770813 541.508179,627.090027 
	C544.780884,628.092407 546.964661,626.912354 549.127930,626.325928 
	C570.893311,620.425476 591.947388,612.649048 611.838745,601.933289 
	C652.192627,580.194214 684.155823,550.074036 705.093811,508.830627 
	C721.125427,477.251892 728.374084,443.401581 730.500427,408.437103 
	C732.429810,376.710815 729.413208,345.276001 721.777710,314.327362 
	C720.684387,309.896088 719.070312,308.708801 714.579834,309.955261 
	C700.114197,313.970612 685.988220,318.889038 671.493408,325.076752 
M473.315582,644.046143 
	C474.522949,643.487976 476.203949,644.080017 477.398224,642.371155 
	C453.094757,636.247192 430.026917,627.772156 408.157318,616.170044 
	C367.011749,594.341614 333.777374,564.243225 311.065247,523.176880 
	C297.716644,499.041016 289.413879,473.161377 284.587341,446.090973 
	C283.930573,442.407440 284.035034,438.819122 278.181763,438.755676 
	C246.505905,438.412415 215.421158,442.206024 184.936707,450.833954 
	C177.843521,452.841522 177.822037,452.886230 180.102280,459.945129 
	C196.834793,511.743256 224.816223,556.462891 264.960052,593.286926 
	C305.955658,630.892151 354.487732,649.879822 410.140381,650.696655 
	C431.217163,651.006042 451.955414,648.252869 473.315582,644.046143 
M615.447693,650.684204 
	C624.279541,650.617737 633.051392,649.774597 641.823303,648.806458 
	C670.726196,645.616760 697.591370,636.338501 722.677551,621.792725 
	C748.351318,606.906311 769.919617,587.247375 788.788696,564.491455 
	C814.939819,532.953308 834.096313,497.607117 846.705139,458.641144 
	C848.151428,454.171661 846.974365,452.448639 842.627014,451.263306 
	C833.475098,448.767914 824.301208,446.437836 814.993103,444.594208 
	C792.855469,440.209564 770.505188,438.541748 747.962585,438.864807 
	C744.127441,438.919800 742.409668,439.989319 741.911621,444.129395 
	C741.179993,450.212219 739.596375,456.201141 738.235413,462.198242 
	C728.603882,504.638092 709.127380,541.775696 678.119141,572.518555 
	C648.332336,602.050476 612.811584,622.168823 573.166931,635.276245 
	C565.396240,637.845398 557.508972,640.062073 549.675415,642.441284 
	C571.078430,648.097900 592.604431,650.789917 615.447693,650.684204 
M606.041504,722.414856 
	C639.391907,740.255615 675.060852,744.914307 712.125732,740.433044 
	C744.522644,736.516052 774.996643,726.160950 803.912842,711.168335 
	C808.567444,708.754944 813.476013,706.649597 817.387878,703.027954 
	C817.110962,702.289795 817.027954,701.767639 816.753845,701.380981 
	C796.523071,672.845642 771.320068,649.703308 741.299744,631.769531 
	C739.089844,630.449280 737.393066,630.903076 735.352356,632.179993 
	C730.697815,635.092590 725.995789,637.967590 721.118408,640.479980 
	C669.029053,667.312500 614.080200,671.371948 557.360901,660.731140 
	C548.655884,659.097961 540.062683,656.869324 530.266907,654.656006 
	C550.393127,683.802002 574.973267,706.165466 606.041504,722.414856 
M283.658264,734.714478 
	C383.565796,761.414551 458.738342,711.168335 494.819702,654.741760 
	C493.303741,655.087708 492.026520,655.345154 490.767181,655.671570 
	C459.458496,663.786133 427.800598,667.893127 395.346466,665.474670 
	C358.479187,662.727356 324.015015,652.700134 292.504486,633.220215 
	C288.648956,630.836731 285.933014,630.946899 282.176208,633.256897 
	C259.251404,647.352966 239.209976,664.756104 221.861099,685.263611 
	C217.094742,690.897766 212.229599,696.535217 208.358109,703.298279 
	C232.113571,717.480408 256.741486,727.774963 283.658264,734.714478 
M470.088501,539.620789 
	C477.472321,572.293396 492.597076,601.151611 513.244385,628.387695 
	C541.656433,589.644470 560.316467,548.300293 560.904175,500.323273 
	C561.513306,450.594208 542.696106,407.788635 513.603210,368.589783 
	C511.059540,369.976288 510.008606,371.914276 508.808685,373.651154 
	C498.856110,388.057281 489.784515,402.975067 482.718750,419.042786 
	C465.760742,457.605591 459.885620,497.358521 470.088501,539.620789 
M488.891418,375.434326 
	C496.243652,364.431427 503.906616,353.671600 513.055542,343.320618 
	C528.102356,360.249542 540.006836,378.348999 550.880371,397.760895 
	C552.525208,395.905762 553.671021,394.724792 554.692139,393.444305 
	C563.960327,381.821320 574.442444,371.351471 585.362610,361.314392 
	C591.082092,356.057434 591.149292,356.173798 588.102905,348.915985 
	C571.012390,308.199005 546.749023,272.253052 516.061279,240.581757 
	C515.170776,239.662720 514.532593,238.346115 512.735840,238.188599 
	C507.172485,243.212173 502.102692,248.909790 497.102997,254.693253 
	C471.965393,283.771576 451.725342,315.864685 437.039795,351.442322 
	C435.527893,355.105072 435.926392,357.222504 439.042877,359.875397 
	C450.346832,369.497803 460.499207,380.303192 470.126312,391.600922 
	C471.711853,393.461609 472.734314,395.880035 475.611420,397.190247 
	C479.908478,390.130554 484.198914,383.081726 488.891418,375.434326 
M577.765869,740.267212 
	C579.140930,738.183533 580.346497,735.959839 581.927246,734.046082 
	C584.954529,730.381287 584.299194,728.208130 580.242126,725.511475 
	C560.001282,712.057251 542.276917,695.789734 527.151672,676.714966 
	C522.314453,670.614624 517.913879,664.196350 513.188477,657.120605 
	C503.161255,671.460571 493.193390,684.898621 481.210724,696.731323 
	C469.097656,708.692810 455.760803,719.078735 441.741638,728.260376 
	C441.833618,729.060913 441.801025,729.415283 441.922760,729.704773 
	C442.179565,730.315552 442.485718,730.911072 442.826141,731.480286 
	C458.984009,758.496338 482.639557,777.153931 509.951172,791.759460 
	C512.478638,793.111084 514.682861,792.700256 517.014587,791.412231 
	C540.418213,778.484009 561.559631,762.862671 577.765869,740.267212 
M563.470825,569.853577 
	C562.804443,572.013672 562.138000,574.173828 561.254517,577.037476 
	C582.990479,549.694397 606.099426,504.782166 608.466980,450.240479 
	C609.611450,423.875671 605.148804,398.153931 596.751038,372.490173 
	C595.126404,373.820618 594.231201,374.526733 593.365173,375.266937 
	C581.519470,385.391113 571.729065,397.364563 562.138733,409.558350 
	C559.539734,412.862854 559.104126,415.482147 560.701904,419.465393 
	C580.546814,468.938843 581.709473,518.859619 563.470825,569.853577 
M425.117462,387.499451 
	C406.806091,458.298889 424.096588,521.444702 466.159485,579.935181 
	C466.371918,579.077820 466.483276,578.897217 466.435486,578.783447 
	C453.176086,547.242371 447.318237,514.570618 450.566559,480.308960 
	C452.579559,459.076782 457.668549,438.707733 465.904083,419.112549 
	C467.292511,415.809021 467.355011,413.485535 465.119202,410.522278 
	C455.757202,398.114044 445.426147,386.609222 434.033539,376.052856 
	C432.778351,374.889801 431.743500,373.151031 429.142151,373.407043 
	C427.876434,377.782776 426.586914,382.240814 425.117462,387.499451 
z"/>
</svg>