<svg version="1.1" id="Layer_1" xmlns="http://www.w3.org/2000/svg" xmlns:xlink="http://www.w3.org/1999/xlink" x="0px" y="0px"
	 width="100%" viewBox="0 0 1024 1024" enable-background="new 0 0 1024 1024" xml:space="preserve">
<path fill="#000000" opacity="1.000000" stroke="none" 
	d="
M725.121277,541.156616 
	C710.568359,552.051758 696.392212,562.860718 681.986023,573.353882 
	C678.201843,576.110229 677.049866,578.507263 678.625061,583.260498 
	C704.487305,661.297485 730.165161,739.395630 755.831665,817.497375 
	C763.883301,841.998047 771.792969,866.545349 779.723267,891.085693 
	C780.423706,893.253174 781.589111,895.349243 781.322205,897.844971 
	C779.280090,898.659241 778.209595,896.999390 777.013733,896.112610 
	C721.217041,854.737122 665.417786,813.364929 609.694336,771.890991 
	C578.959290,749.015564 548.325745,726.003052 517.742188,702.925476 
	C514.514648,700.489990 512.220398,700.533508 509.012054,702.932495 
	C447.117126,749.215637 385.168945,795.427551 323.188873,841.596619 
	C298.745422,859.804443 274.202118,877.878235 249.684891,895.986816 
	C248.423309,896.918640 247.349274,898.438660 245.155548,897.906982 
	C245.114746,894.344177 246.646713,891.172363 247.708145,887.937927 
	C271.375183,815.819641 295.089569,743.716858 318.799133,671.612549 
	C328.569885,641.898193 338.293030,612.167847 348.201630,582.499512 
	C349.395081,578.926086 348.870209,576.922363 345.769073,574.597778 
	C276.321289,522.540649 206.960907,470.367004 137.583023,418.216705 
	C123.999130,408.005859 110.403847,397.810181 96.837273,387.576385 
	C95.561668,386.614136 93.963654,385.897614 93.356636,384.202881 
	C95.059906,382.236511 97.200890,383.028656 99.082298,383.028168 
	C201.237625,383.001495 303.392944,383.015686 405.548279,383.028137 
	C414.100739,383.029175 414.223755,383.077789 416.961243,374.803833 
	C432.384308,328.188263 447.712433,281.541290 463.133240,234.924973 
	C477.510986,191.461929 491.970703,148.025986 506.376801,104.572296 
	C508.453918,98.306908 510.433044,92.009033 512.625977,85.203545 
	C515.457214,87.100082 515.562988,89.566826 516.233826,91.595825 
	C533.892639,145.005127 551.465759,198.442780 569.121826,251.852997 
	C582.860291,293.412170 596.778931,334.912140 610.364197,376.521149 
	C611.985718,381.487640 614.198364,383.169403 619.474365,383.160065 
	C721.462891,382.979645 823.451721,382.996063 925.440491,383.021942 
	C927.792847,383.022552 930.423401,382.143982 932.984924,384.712921 
	C863.681763,436.877197 794.546875,488.914764 725.121277,541.156616 
M598.249756,516.103333 
	C590.418274,492.228607 582.505554,468.379913 574.835938,444.453339 
	C573.566345,440.492859 571.700195,438.878082 567.444580,438.891693 
	C531.132446,439.007751 494.819580,438.967316 458.507263,438.866425 
	C454.959808,438.856567 453.229553,440.055420 452.085907,443.551514 
	C440.344543,479.445465 428.491974,515.303711 416.453735,551.098999 
	C415.026886,555.341614 415.866302,557.670837 419.386169,560.283569 
	C449.471008,582.615112 479.459900,605.076782 509.366577,627.646545 
	C512.556091,630.053589 514.820007,629.671936 517.732666,627.482971 
	C547.953308,604.771423 578.209778,582.107239 608.527344,559.525391 
	C611.101135,557.608337 611.673462,555.839722 610.614258,552.800598 
	C606.453369,540.862671 602.541321,528.837952 598.249756,516.103333 
M351.452301,700.043396 
	C361.525604,669.369385 371.607117,638.698120 381.654327,608.015564 
	C382.350006,605.891174 383.914917,603.528687 381.443359,601.599609 
	C375.443268,596.916321 369.346649,592.356628 362.653137,587.263428 
	C332.848358,678.029541 303.242920,768.188599 273.204071,859.667542 
	C282.214325,852.964722 290.173157,847.041199 298.134888,841.121643 
	C345.589203,805.839172 393.063263,770.583252 440.491943,735.266418 
	C469.483154,713.678711 498.408142,692.002075 527.357300,670.358032 
	C558.842773,646.817505 590.321899,623.268494 621.803711,599.723022 
	C623.258728,598.634827 625.168640,597.682068 624.458862,595.419800 
	C622.092529,587.877686 619.603455,580.374084 616.918701,572.108459 
	C518.509216,645.692688 421.033722,718.990051 323.023163,791.563354 
	C322.604492,791.162109 322.185822,790.760864 321.767151,790.359619 
	C331.568298,760.502136 341.369446,730.644714 351.452301,700.043396 
M605.216797,488.439392 
	C638.482544,589.234497 671.748291,690.029541 705.014038,790.824646 
	C704.561157,791.045776 704.108215,791.266968 703.655273,791.488098 
	C702.821838,791.014648 701.925659,790.625061 701.163940,790.055603 
	C668.742737,765.815186 636.345642,741.542725 603.918091,717.310730 
	C586.169250,704.047668 568.380249,690.838257 550.580261,677.643860 
	C549.060120,676.517090 547.459351,674.370422 545.344299,675.887390 
	C539.049133,680.402466 532.932678,685.166687 525.963074,690.424561 
	C601.748657,746.808228 676.718994,802.585449 751.689392,858.362671 
	C752.464905,856.770752 752.413635,856.127075 752.217834,855.530884 
	C726.244202,776.445068 700.281677,697.355652 674.267151,618.283264 
	C661.367004,579.072876 648.366089,539.895752 635.418884,500.700775 
	C629.100037,481.571777 622.816772,462.430939 616.467041,443.312225 
	C615.763245,441.193176 615.438599,438.703217 612.130859,438.733032 
	C605.972168,438.788483 599.811340,438.545410 593.651001,438.517639 
	C592.197937,438.511078 590.598999,438.541290 589.486816,440.756531 
	C594.559875,456.124634 599.768982,471.904785 605.216797,488.439392 
M443.343567,597.224792 
	C366.675323,539.746582 290.007111,482.268341 213.312103,424.770081 
	C214.616150,423.084167 215.872894,423.632721 216.957230,423.632568 
	C275.773529,423.624573 334.589813,423.642578 393.406128,423.655762 
	C394.905548,423.656128 396.405151,423.613068 397.904388,423.625793 
	C399.557800,423.639801 400.931000,423.072144 401.478210,421.453308 
	C403.957031,414.120056 406.363220,406.762207 409.007538,398.772644 
	C318.236389,398.772644 228.356033,398.772644 137.685654,398.772644 
	C142.925720,402.869476 147.544067,406.608063 152.293045,410.172607 
	C185.994400,435.468658 219.739929,460.705841 253.436966,486.007568 
	C284.734802,509.507874 315.984528,533.072144 347.265472,556.594971 
	C377.218628,579.119324 407.187378,601.622925 437.143860,624.142761 
	C450.191284,633.951233 463.219757,643.784912 476.273376,653.585022 
	C477.686401,654.645874 479.071594,656.279968 481.106262,654.762939 
	C487.477722,650.012146 493.826599,645.231079 500.777710,640.016602 
	C481.480652,625.630432 462.704620,611.632629 443.343567,597.224792 
M797.492004,423.616180 
	C802.338013,423.942932 807.277649,422.964752 812.074402,424.225891 
	C811.917480,426.022003 810.769104,426.521240 809.869080,427.196960 
	C763.650208,461.898804 717.436584,496.607635 671.192200,531.275452 
	C661.586121,538.476746 662.979675,535.098694 666.506104,546.286987 
	C668.110962,551.378601 669.256531,556.735168 672.277893,561.812500 
	C744.561707,507.480713 816.350830,453.520752 888.478821,399.306091 
	C885.695557,398.101196 883.509705,398.343719 881.367798,398.343658 
	C745.573120,398.340271 609.778442,398.349457 473.983734,398.360626 
	C472.484619,398.360779 470.985291,398.391693 469.486481,398.427155 
	C468.028503,398.461609 466.882172,399.034576 466.383667,400.482239 
	C463.860229,407.810486 460.992828,415.039337 459.182953,423.618591 
	C572.073059,423.618591 684.284119,423.618591 797.492004,423.616180 
M523.293579,240.411377 
	C528.669128,256.680786 534.052612,272.947571 539.418579,289.220154 
	C549.215759,318.930878 558.999329,348.646118 568.800903,378.355377 
	C569.469238,380.381104 569.844604,382.839294 572.694946,382.866211 
	C580.315430,382.938202 587.937073,382.890747 596.514832,382.890747 
	C568.777466,298.955017 541.301086,215.809021 513.480591,131.621887 
	C511.063263,138.765915 508.954041,144.871368 506.928558,151.004456 
	C471.856140,257.202820 436.799225,363.406250 401.724884,469.603973 
	C395.463013,488.563568 389.105774,507.491821 382.892914,526.467407 
	C382.277649,528.346558 380.427124,530.612122 382.696472,532.434570 
	C388.744263,537.291260 394.739624,542.251099 402.011780,546.556641 
	C438.969971,434.839447 475.743286,323.681030 512.516663,212.522614 
	C513.055420,212.602783 513.594238,212.682968 514.133057,212.763153 
	C517.119629,221.723862 520.106140,230.684586 523.293579,240.411377 
M364.283081,709.627136 
	C359.766174,723.539551 355.249237,737.451965 350.380035,752.449341 
	C389.672913,723.099915 427.908234,694.540466 466.741089,665.534668 
	C443.042053,647.716797 419.916595,630.330139 396.305878,612.578613 
	C385.444946,645.439941 374.965332,677.147522 364.283081,709.627136 
M666.428467,722.935913 
	C654.466370,686.499390 642.504272,650.062805 630.171387,612.497009 
	C606.446472,630.358704 583.565430,647.585144 559.908264,665.395874 
	C598.612610,694.338135 636.622498,722.761047 674.632324,751.183960 
	C674.939453,750.949097 675.246643,750.714233 675.553833,750.479431 
	C672.599121,741.547791 669.644409,732.616211 666.428467,722.935913 
M696.500000,438.950745 
	C674.977295,438.950745 653.454590,438.950745 630.989258,438.950745 
	C640.346924,467.209778 649.245972,494.083893 658.464172,521.921814 
	C695.237793,494.337799 731.139465,467.407959 767.041077,440.478088 
	C766.809082,439.968323 766.577087,439.458557 766.345093,438.948792 
	C743.396729,438.948792 720.448364,438.948792 696.500000,438.950745 
M391.388397,451.974945 
	C392.070984,449.920990 392.743622,447.863678 393.438019,445.813751 
	C395.554108,439.566559 395.166840,438.980988 388.457794,438.976044 
	C347.460602,438.945831 306.463379,438.930939 265.466217,438.953735 
	C263.482483,438.954834 261.323151,438.509827 259.001434,440.067688 
	C295.380463,467.282928 331.322693,494.171356 368.269928,521.811707 
	C376.117401,498.053009 383.605560,475.382080 391.388397,451.974945 
M551.852600,375.504883 
	C539.229126,337.161560 526.605591,298.818207 513.982117,260.474884 
	C513.558655,260.546417 513.135193,260.617981 512.711792,260.689514 
	C499.291534,301.135986 485.871277,341.582489 472.463165,381.992432 
	C474.743011,383.202850 476.427979,383.022156 478.069946,383.022156 
	C501.208282,383.022156 524.346680,383.028259 547.484985,382.986267 
	C554.300354,382.973907 554.471741,382.657745 551.852600,375.504883 
z"/>
</svg>