<svg version="1.1" id="Layer_1" xmlns="http://www.w3.org/2000/svg" xmlns:xlink="http://www.w3.org/1999/xlink" x="0px" y="0px"
	 width="100%" viewBox="0 0 1024 1024" enable-background="new 0 0 1024 1024" xml:space="preserve">
<path fill="#000000" opacity="1.000000" stroke="none" 
	d="
M594.627136,501.376404 
	C588.810486,495.858490 583.440796,490.360931 577.619446,485.392517 
	C573.805542,482.137421 572.530701,478.477356 572.604797,473.601318 
	C572.837585,458.272003 572.643372,442.936646 572.781067,427.605133 
	C572.809265,424.465485 571.719788,422.395355 569.346558,420.371735 
	C543.902039,398.675720 522.472961,373.598358 505.909485,344.466156 
	C505.195892,343.210999 504.828979,341.633270 502.885345,341.084930 
	C499.879944,344.383545 498.410156,348.698151 496.139435,352.494171 
	C484.557373,371.855804 471.555908,390.127258 455.539703,406.109314 
	C453.527039,408.117706 453.248444,410.345123 453.253113,412.913147 
	C453.290131,433.245544 453.125763,453.579987 453.384674,473.909149 
	C453.448151,478.894196 451.768707,482.319550 448.225311,485.632935 
	C428.267792,504.294739 408.588959,523.255249 388.576630,541.857422 
	C377.672821,551.992859 372.132965,564.144836 372.258453,579.026733 
	C372.390503,594.689941 372.231201,610.355713 372.375916,626.018738 
	C372.407928,629.484253 372.814636,633.038452 373.685760,636.385986 
	C375.893982,644.871948 381.213531,650.006531 390.130981,651.741150 
	C402.617615,654.170044 414.583038,657.978271 424.653778,666.413818 
	C434.142944,674.362366 434.639526,686.229553 425.129303,694.328735 
	C415.348877,702.658020 403.468201,706.676025 391.174011,709.245422 
	C364.425995,714.835510 337.577881,714.470154 310.850647,709.094849 
	C300.521729,707.017517 290.852264,702.856201 281.774994,697.426208 
	C276.963898,694.548340 274.052612,690.162048 272.013916,685.123413 
	C269.470917,678.838379 272.191254,673.729797 276.022217,669.057800 
	C282.474304,661.189270 291.857056,658.273438 300.885529,654.912842 
	C304.763062,653.469604 308.854828,652.421265 312.940826,651.755676 
	C322.048676,650.272217 327.021820,644.653931 328.943085,636.122681 
	C330.181793,630.622314 330.752594,624.987122 330.703064,619.294861 
	C330.676422,616.237915 329.568878,614.958557 326.519073,615.438293 
	C305.874207,618.685913 285.344482,617.832947 264.983673,613.348694 
	C219.941986,603.428833 188.500061,577.933594 180.309509,532.511047 
	C173.776077,496.278381 181.390686,462.486359 206.958374,434.461060 
	C217.064377,423.383698 229.296494,414.903015 243.822006,410.486053 
	C248.575775,409.040497 249.792816,406.683167 249.758820,401.958588 
	C249.547821,372.627991 249.755203,343.294464 249.560486,313.963623 
	C249.524536,308.548706 251.412369,305.378204 256.319550,303.088013 
	C267.184509,298.017395 278.032898,292.844482 288.513397,287.037170 
	C297.407379,282.108948 306.549042,279.413361 316.659180,280.658997 
	C321.518738,281.257690 324.133667,279.311768 326.283905,274.931793 
	C334.494354,258.207367 344.765350,242.923447 359.119690,230.713516 
	C375.686188,216.621887 395.096588,208.836014 416.232544,204.811142 
	C446.556732,199.036575 477.179138,196.235260 508.016449,196.122330 
	C539.364258,196.007523 570.569336,198.220047 601.237183,205.046555 
	C636.384888,212.870285 666.078186,229.828842 687.899902,259.108368 
	C692.070679,264.704559 695.695679,270.726257 699.309387,276.710480 
	C700.951538,279.429810 702.800293,281.076080 706.087891,280.603638 
	C718.896057,278.763000 730.241638,282.618866 741.271912,288.856598 
	C750.685669,294.180176 760.548828,298.725159 770.314941,303.402069 
	C774.578735,305.443939 776.435425,308.302734 776.404724,313.164185 
	C776.235168,339.995331 776.398315,366.828552 776.241333,393.659882 
	C776.217529,397.722626 777.359009,399.701477 781.351135,401.316345 
	C809.591125,412.739929 827.995911,433.707703 838.752930,461.796326 
	C851.509277,495.105835 851.898193,528.254028 835.624573,560.450256 
	C826.866638,577.777222 813.093201,590.931396 795.963135,600.204651 
	C768.913208,614.848206 739.856384,619.309753 709.478455,616.536743 
	C706.334412,616.249695 703.190674,615.914673 700.066528,615.464966 
	C696.525146,614.955322 695.029907,616.450806 695.414856,619.919312 
	C696.038147,625.535828 695.874817,631.267273 697.389038,636.751343 
	C699.608948,644.791748 704.614258,649.934814 713.054321,651.702820 
	C724.010742,653.998047 734.570740,657.367310 744.039307,663.688171 
	C758.485046,673.331604 758.548157,688.115479 743.885071,697.485840 
	C731.292969,705.532837 717.151367,709.145935 702.552063,711.230652 
	C678.236938,714.702759 654.065857,713.738342 630.155762,708.186340 
	C620.877441,706.031860 612.018982,702.425232 604.135742,696.978638 
	C591.111816,687.980042 590.939392,673.647095 603.738586,664.374756 
	C612.500610,658.027283 622.619446,654.684265 633.027161,652.122803 
	C648.522278,648.309204 653.270935,642.826233 653.578125,626.932739 
	C653.916138,609.441345 654.036682,591.928223 653.545532,574.444397 
	C653.199585,562.129395 647.834900,551.575195 638.925964,543.075073 
	C624.339539,529.157837 609.572937,515.429443 594.627136,501.376404 
M412.029785,241.367996 
	C433.848022,233.697647 456.115875,240.058929 470.888763,258.011719 
	C484.170746,274.152649 492.257355,293.247925 501.427887,311.691223 
	C516.571472,342.147125 534.315796,370.749847 558.511414,394.958099 
	C562.900024,399.348999 567.462585,403.565948 572.611450,408.502228 
	C572.729309,406.484009 572.818359,405.676727 572.817566,404.869537 
	C572.787292,375.209137 572.934204,345.546417 572.567566,315.890076 
	C572.486084,309.296814 574.484314,305.585388 580.556763,302.756958 
	C596.497620,295.331879 612.133301,287.251770 628.051514,279.352783 
	C627.050964,273.997986 623.612061,269.869141 620.290161,265.749847 
	C605.478088,247.382217 586.293518,239.728302 563.182129,244.493759 
	C545.102600,248.221680 534.879944,261.573212 527.642456,277.508728 
	C522.882019,287.990356 519.756042,299.063171 516.237427,309.993530 
	C515.471863,312.371735 515.097046,315.198486 511.736298,316.916412 
	C509.399384,312.810547 505.411957,308.801239 506.538208,304.413879 
	C510.763519,287.954285 515.909302,271.633057 525.859497,257.580841 
	C537.504333,241.135284 553.300110,231.673569 573.980957,231.669769 
	C595.852417,231.665756 613.756836,240.385544 627.721375,256.943481 
	C640.707397,272.341095 646.252991,290.147766 643.312012,310.324280 
	C642.476135,316.058777 640.546387,321.518188 638.710022,327.481079 
	C662.707886,327.481079 686.196106,327.481079 710.341125,327.481079 
	C701.295227,307.867401 694.114624,288.155853 682.041016,270.799316 
	C665.319824,246.761398 643.575378,229.375595 615.450928,220.708237 
	C585.669067,211.530106 554.947571,208.096924 523.917236,207.428314 
	C509.443542,207.116440 494.959412,207.116653 480.467102,208.154984 
	C458.877319,209.701828 437.465027,212.355255 416.199860,216.340225 
	C380.563446,223.018295 355.629364,243.470215 339.044708,275.265961 
	C331.167084,290.368774 325.655518,306.457642 318.363281,321.784760 
	C317.545380,323.503784 315.980621,325.070129 316.499939,327.547180 
	C339.831665,327.547180 363.157440,327.547180 386.980682,327.547180 
	C384.336273,320.838196 381.219757,314.924164 379.891174,308.358521 
	C378.525024,301.607269 378.521851,294.805786 378.635498,287.964752 
	C378.990234,266.611115 391.095154,249.348389 412.029785,241.367996 
M685.690002,633.449341 
	C685.113342,628.995850 684.883179,624.516052 684.539246,620.042969 
	C683.488342,606.374329 684.872498,592.741272 684.692139,579.092041 
	C684.438477,559.904297 692.152588,544.480286 706.247559,531.593201 
	C724.925049,514.516418 743.119507,496.911377 761.518921,479.530609 
	C763.484253,477.674103 765.045166,475.757324 765.058044,472.715576 
	C765.143433,452.569153 764.241211,432.412842 765.564941,412.277588 
	C765.747192,409.505585 764.596863,407.799042 761.758362,407.420471 
	C759.287476,407.090973 756.800964,406.444794 754.341919,406.530365 
	C738.222656,407.091217 723.855103,412.578186 710.751953,421.912659 
	C701.401489,428.573761 692.736511,436.165009 682.829346,442.074280 
	C666.303467,451.931366 648.678284,455.957825 629.669983,452.095367 
	C615.178040,449.150604 601.726013,443.478424 589.279602,435.433441 
	C587.884766,434.531860 586.693359,432.713165 584.220093,433.562225 
	C584.220093,446.172913 584.320251,458.810333 584.154541,471.444275 
	C584.109192,474.904541 585.169189,477.387573 587.705566,479.734039 
	C605.549561,496.242249 623.124817,513.044128 641.120056,529.384277 
	C652.674133,539.875671 662.238770,551.632812 663.856506,567.529541 
	C666.149963,590.066040 666.474365,612.723450 663.805542,635.305481 
	C661.966980,650.862244 653.182556,659.594299 637.763245,662.620056 
	C628.490234,664.439697 619.287231,667.231873 611.328979,672.713013 
	C603.463196,678.130310 603.585999,683.211609 611.664795,688.421204 
	C618.022278,692.520874 625.200684,694.896484 632.440186,696.748901 
	C659.709778,703.726746 687.143005,703.633972 714.471069,697.281616 
	C723.176758,695.257935 731.900879,692.609009 739.218994,687.004456 
	C744.426880,683.016052 744.585999,679.640442 740.088989,675.044617 
	C738.085815,672.997437 735.794495,671.438843 733.221741,670.148010 
	C724.812500,665.928833 715.714844,663.820190 706.737244,661.377136 
	C698.807678,659.219116 693.331909,654.398132 689.673523,647.149658 
	C687.614136,643.069336 686.610229,638.733337 685.690002,633.449341 
M376.830109,700.259949 
	C388.845306,698.897400 400.345123,695.651306 411.178528,690.313599 
	C415.300446,688.282776 420.404053,686.049500 420.372345,680.756897 
	C420.338776,675.147644 415.397766,672.421326 410.800995,670.262146 
	C403.092896,666.641602 394.982208,664.143982 386.679535,662.281616 
	C373.261169,659.271912 364.787018,649.928223 362.622101,636.271484 
	C359.626831,617.376404 360.669495,598.379761 360.967468,579.413513 
	C361.292816,558.708252 370.050415,542.357117 385.823517,528.730103 
	C403.951813,513.068298 420.929871,496.076874 438.462097,479.721497 
	C440.821564,477.520386 441.886566,475.119934 441.838226,471.835266 
	C441.686340,461.506500 441.807709,451.173828 441.817230,440.842651 
	C441.823181,434.404236 441.818329,427.965790 441.818329,421.517426 
	C439.475769,421.394897 438.484344,422.626984 437.416138,423.588074 
	C429.451599,430.753906 420.723022,436.788910 411.243469,441.794678 
	C392.403290,451.743378 372.710724,456.807434 351.578156,451.137482 
	C337.960724,447.483856 325.838348,440.382385 313.991943,432.840729 
	C299.757782,423.779053 284.647369,417.066101 267.348480,417.032074 
	C261.148102,417.019867 260.082245,417.829926 260.486633,423.971680 
	C261.540222,439.972992 260.077728,455.943359 260.312012,471.928894 
	C260.352478,474.690887 261.322205,476.620209 263.263123,478.444214 
	C282.926117,496.922852 302.516235,515.478943 322.181305,533.955383 
	C334.878540,545.885132 341.373688,560.449951 341.332977,577.913879 
	C341.299164,592.410828 341.260468,606.908386 341.369354,621.404602 
	C341.418488,627.941223 340.654053,634.374451 339.240723,640.705261 
	C336.904602,651.169739 330.509003,658.088013 320.199097,661.211670 
	C316.379486,662.368896 312.492462,663.303955 308.634247,664.333191 
	C302.176605,666.055908 295.881500,668.253235 290.081879,671.592529 
	C280.311249,677.218384 280.344391,683.614807 290.046753,689.254883 
	C297.181732,693.402344 304.998627,695.740723 312.942627,697.637939 
	C333.757141,702.608887 354.813538,702.643066 376.830109,700.259949 
M348.500000,340.033997 
	C335.011658,340.038452 321.523193,340.011353 308.035034,340.065308 
	C303.601013,340.083038 299.604584,338.926758 295.623779,336.925049 
	C284.225037,331.193298 272.679535,325.753418 260.998413,320.105347 
	C260.998413,322.982056 261.016479,325.770264 260.995575,328.558197 
	C260.815765,352.530273 260.623627,376.502228 260.451477,400.474335 
	C260.431305,403.282654 259.833069,406.246582 264.521179,405.995514 
	C280.969482,405.114655 296.071777,409.906708 310.275482,417.755127 
	C320.030731,423.145538 329.404816,429.238281 339.245575,434.458588 
	C356.516113,443.620270 374.471985,444.378998 392.826111,437.740997 
	C410.897247,431.205383 425.600372,419.627258 439.552124,406.869934 
	C441.646301,404.955048 441.861328,402.625183 441.855133,400.063629 
	C441.794800,375.085327 441.779449,350.106934 441.701019,325.128693 
	C441.696167,323.585571 442.348633,321.733551 440.453979,320.632202 
	C428.786224,326.279816 417.108521,331.862305 405.503967,337.592987 
	C402.133728,339.257294 398.732178,340.115326 394.960236,340.091675 
	C379.807312,339.996643 364.653503,340.043182 348.500000,340.033997 
M662.574158,439.054169 
	C676.712219,434.539642 687.808899,425.099274 699.347839,416.368561 
	C711.411072,407.241211 724.390564,400.053436 739.413330,396.956940 
	C747.629761,395.263367 755.874756,395.571259 764.381104,396.208099 
	C764.381104,370.850525 764.381104,345.892334 764.381104,320.239014 
	C752.210571,326.206970 740.734924,331.752045 729.345886,337.469604 
	C725.984985,339.156952 722.583496,340.138306 718.829407,340.132111 
	C689.518311,340.083527 660.207153,340.064056 630.896057,340.047424 
	C627.008301,340.045227 623.328735,339.328613 619.809448,337.562805 
	C609.245544,332.262238 598.633057,327.058655 588.036926,321.822296 
	C587.025940,321.322693 586.075745,320.467651 584.568542,321.292816 
	C584.424927,322.263000 584.114685,323.385590 584.113525,324.508545 
	C584.083801,354.318939 584.103210,384.129425 584.054138,413.939758 
	C584.049561,416.719299 585.134399,418.603546 587.380554,420.185181 
	C593.784546,424.694672 600.249695,429.082764 607.294922,432.557861 
	C624.692688,441.139465 642.646240,445.175903 662.574158,439.054169 
M835.612122,490.919708 
	C831.159546,466.889618 821.393005,445.568420 803.480286,428.494415 
	C795.857849,421.228851 787.246155,415.437714 777.093750,411.689117 
	C776.025696,413.831024 776.337402,415.678436 776.334900,417.448029 
	C776.308655,435.945984 776.107483,454.447754 776.440063,472.939728 
	C776.542480,478.634491 774.719238,482.575836 770.614807,486.397308 
	C751.234741,504.441315 732.198120,522.854126 712.824707,540.905396 
	C701.585144,551.377930 695.396729,563.730713 696.020569,579.346619 
	C696.286072,585.992432 696.077942,592.689758 695.556030,599.321960 
	C695.254028,603.159912 696.718506,604.359863 700.166504,604.709412 
	C724.397217,607.165466 748.339417,606.800171 771.716064,598.700134 
	C805.330750,587.052673 827.221741,564.682861 835.063721,529.599792 
	C837.849670,517.136169 837.007874,504.434509 835.612122,490.919708 
M259.623718,600.789673 
	C281.614197,607.098938 303.975830,606.926941 326.459900,604.617004 
	C329.501434,604.304504 330.758606,602.638916 330.654694,599.579468 
	C330.513458,595.420593 330.454681,591.246826 330.632629,587.091125 
	C331.530365,566.126526 324.374969,549.298462 307.991852,535.341614 
	C289.266510,519.389465 272.051788,501.669617 254.047394,484.860626 
	C250.857452,481.882477 249.530487,478.729340 249.583649,474.369812 
	C249.780609,458.217560 249.681198,442.061310 249.616531,425.906860 
	C249.609695,424.201080 250.369537,422.201630 248.258270,420.646851 
	C231.842010,426.042816 218.666809,436.130920 208.504959,450.023132 
	C192.644333,471.706238 187.183029,496.184235 190.129623,522.701111 
	C192.741867,546.208984 202.502167,565.993774 220.862488,581.210632 
	C232.062347,590.492981 244.969650,596.512268 259.623718,600.789673 
M480.294647,356.822357 
	C485.975037,348.186218 490.855865,339.103821 495.480713,329.869690 
	C496.546326,327.742065 495.831909,326.147858 494.906158,324.277130 
	C490.333282,315.036499 485.638947,305.857788 481.148254,296.572845 
	C474.994873,283.850159 468.494568,271.185669 458.172913,261.139832 
	C440.551208,243.989105 412.258057,245.986710 397.472137,265.483398 
	C394.314850,269.646606 391.827515,274.339386 391.217987,280.503387 
	C398.736237,279.755249 404.678284,282.459534 410.634369,285.545990 
	C422.609650,291.751587 434.677551,297.794006 446.877258,303.542938 
	C451.607605,305.772064 453.442932,308.772705 453.391907,314.005035 
	C453.161194,337.659576 453.245575,361.317383 453.274994,384.973938 
	C453.277374,386.885010 452.716400,388.934174 454.317749,391.315094 
	C463.773041,380.473450 471.918579,369.015015 480.294647,356.822357 
M307.077942,318.614746 
	C310.880463,310.251404 315.545197,302.219666 317.679993,292.468689 
	C311.217621,292.268524 305.525787,291.358765 299.992004,294.254364 
	C293.654846,297.570343 287.147064,300.558746 280.745758,303.754242 
	C276.798920,305.724457 272.912354,307.815552 267.907104,310.420502 
	C279.205658,316.008057 289.438629,321.084137 299.689453,326.123993 
	C301.578857,327.052917 302.944519,326.041229 303.893066,324.532135 
	C304.951813,322.847717 305.806152,321.034821 307.077942,318.614746 
M718.920776,318.595642 
	C719.465393,319.622559 720.085388,320.617218 720.541626,321.682007 
	C722.460999,326.160828 725.299988,326.958466 729.573608,324.527618 
	C733.898071,322.067841 738.514587,320.126709 742.955139,317.864197 
	C747.613892,315.490540 752.569519,313.637329 758.012573,309.750061 
	C740.724304,303.964111 727.596558,289.968903 707.762146,292.458038 
	C710.523499,301.690186 714.844482,309.697754 718.920776,318.595642 
M421.198792,303.358093 
	C414.743744,300.266571 408.275940,297.201233 401.839813,294.070770 
	C399.253052,292.812592 396.554565,292.201721 393.700073,291.903076 
	C390.205933,291.537476 389.011810,293.348511 389.457520,296.316376 
	C390.868073,305.709747 392.751312,314.950195 397.894684,323.231659 
	C399.767365,326.246979 401.548676,326.913940 404.768311,325.290924 
	C413.535980,320.871124 422.440094,316.722534 431.264832,312.414581 
	C432.234467,311.941223 433.487244,311.582184 433.630188,310.024933 
	C429.716858,307.926666 425.783112,305.817444 421.198792,303.358093 
M603.058777,316.348694 
	C609.161682,319.368042 615.334961,322.255585 621.339966,325.458405 
	C624.690002,327.245178 626.396973,326.328735 627.858276,323.066071 
	C631.533813,314.859344 632.966248,306.270386 632.611938,297.363800 
	C632.410278,292.292938 630.631958,291.193146 625.853394,293.320953 
	C619.338745,296.221863 612.892822,299.290619 606.518921,302.489655 
	C601.875305,304.820282 597.017395,306.846619 592.675110,310.049164 
	C595.486206,313.542480 599.212280,314.317291 603.058777,316.348694 
z"/>
</svg>