<svg version="1.1" id="Layer_1" xmlns="http://www.w3.org/2000/svg" xmlns:xlink="http://www.w3.org/1999/xlink" x="0px" y="0px"
	 width="100%" viewBox="0 0 1024 1024" enable-background="new 0 0 1024 1024" xml:space="preserve">
<path fill="#000000" opacity="1.000000" stroke="none" 
	d="
M573.236938,156.632233 
	C647.934753,170.877319 711.146851,205.373978 762.243713,261.091370 
	C806.080261,308.891876 833.563721,365.130554 845.375488,428.990387 
	C850.552124,456.977356 852.393250,485.173584 850.050171,513.495117 
	C844.008789,586.517517 818.021851,651.505249 770.488159,707.561890 
	C726.581848,759.340576 671.788330,794.446594 606.770874,813.568665 
	C581.135559,821.108154 554.888794,825.344360 528.129944,826.409851 
	C447.526428,829.619080 374.720245,807.191101 310.163910,759.067749 
	C262.566559,723.586548 227.124313,678.132324 203.280548,623.658142 
	C189.481247,592.131775 180.599228,559.240356 177.037460,525.128540 
	C169.401520,451.997101 183.948868,383.219818 220.840607,319.625488 
	C260.378143,251.470276 317.371063,203.086151 390.602264,174.145370 
	C438.807709,155.094696 488.966980,148.432190 540.610107,152.504669 
	C551.417725,153.356934 562.156921,154.592300 573.236938,156.632233 
M680.848145,231.672256 
	C537.891113,138.597977 348.074310,178.732086 254.762985,322.841766 
	C163.822372,463.290100 201.644150,652.986084 345.695404,746.744690 
	C485.672302,837.851318 676.567993,801.542847 771.158630,655.548279 
	C862.289368,514.893860 824.029907,325.698181 680.848145,231.672256 
z"/>
</svg>