<svg version="1.1" id="Layer_1" xmlns="http://www.w3.org/2000/svg" xmlns:xlink="http://www.w3.org/1999/xlink" x="0px" y="0px"
	 width="100%" viewBox="0 0 1024 1024" enable-background="new 0 0 1024 1024" xml:space="preserve">
<path fill="#000000" opacity="1.000000" stroke="none" 
	d="
M204.772095,699.918579 
	C174.705185,713.902283 143.386475,719.644836 110.732185,718.169983 
	C101.601707,717.757568 92.504356,716.578308 83.529419,714.711060 
	C76.952591,713.342773 73.651031,710.641846 73.860573,706.433716 
	C74.134933,700.924377 78.150017,699.058960 82.779045,697.826660 
	C115.829742,689.028748 142.548050,670.615967 163.782486,644.057617 
	C183.848297,618.960938 196.394836,590.285461 202.425461,558.904236 
	C212.350189,507.259216 206.812378,457.373505 182.478653,410.384216 
	C160.668045,368.267212 127.661736,339.245941 80.964294,327.209442 
	C76.669968,326.102539 73.696159,323.518860 73.874039,318.811096 
	C74.043678,314.321533 77.027870,312.091370 81.255371,311.307861 
	C100.835770,307.678802 120.495621,306.739105 140.379501,308.484283 
	C171.535736,311.218811 200.223312,321.134827 226.614609,337.597015 
	C268.632812,363.806854 297.564209,400.491821 313.220795,447.549255 
	C314.006439,449.910553 314.785614,452.273987 315.360474,454.010345 
	C352.760773,358.210510 420.771210,304.858307 526.122986,308.284576 
	C606.328186,310.893005 683.675720,368.275726 710.299927,455.169189 
	C713.874329,444.484406 717.329651,434.297241 721.938110,424.535278 
	C741.460205,383.182251 771.518433,351.710571 811.739990,330.327515 
	C846.572327,311.809479 883.932495,304.609253 923.327637,308.540344 
	C930.452271,309.251282 937.498047,310.395050 944.563843,311.482697 
	C948.997314,312.165100 951.740173,314.568909 952.050171,318.858002 
	C952.389771,323.555603 949.373840,326.140411 945.019531,327.216766 
	C931.020508,330.677185 917.822876,336.036407 905.386658,343.380554 
	C875.836365,360.831329 855.083923,386.068481 840.287231,416.592865 
	C828.829895,440.228363 822.483887,465.250275 820.156738,491.368378 
	C816.803894,528.997925 821.117615,565.591858 836.304016,600.333984 
	C857.551636,648.942322 891.753296,683.679626 944.188782,698.090576 
	C949.597168,699.576904 952.657776,702.882446 952.133057,706.901306 
	C951.497498,711.768982 948.190918,713.619812 943.567993,714.459106 
	C877.734192,726.410828 819.893066,709.844360 769.856384,665.732910 
	C741.239746,640.504944 722.174194,609.124146 711.131042,572.737427 
	C710.940002,572.107788 710.728088,571.484497 710.265198,570.050415 
	C695.856750,615.906250 669.852600,652.729065 631.104004,680.144470 
	C592.241211,707.640503 548.889587,720.935364 501.306946,717.999084 
	C416.375854,712.758057 342.035217,655.179382 315.949951,570.029236 
	C297.861115,629.811157 261.074554,673.030579 204.772095,699.918579 
M457.138275,694.250305 
	C491.023804,704.717163 525.189514,706.086670 559.531189,696.871948 
	C608.525269,683.725464 646.937073,655.781006 673.889648,612.822754 
	C700.557068,570.319092 709.011292,524.111877 698.828735,474.891632 
	C689.908264,431.772034 668.280823,395.902039 634.582947,367.640900 
	C592.091431,332.004822 542.811096,317.646210 488.016327,324.686432 
	C441.284607,330.690704 401.962585,352.091766 371.069244,387.792084 
	C331.837891,433.127838 315.347107,485.873260 326.474701,544.989319 
	C340.485718,619.424011 385.377960,668.464783 457.138275,694.250305 
M126.664383,328.733124 
	C146.541977,340.241028 163.458771,355.207153 177.349014,373.408600 
	C206.861694,412.081421 220.058228,456.527405 222.187698,504.542053 
	C223.612701,536.672729 218.605042,568.003601 207.181030,598.078369 
	C189.916824,643.528015 161.203094,679.206177 117.046555,701.283813 
	C116.541000,701.536621 115.702065,701.635864 116.543648,703.331665 
	C188.127945,702.024719 245.414536,672.730286 281.401703,610.334534 
	C320.890778,541.867188 318.756317,471.465942 274.970337,405.374573 
	C238.343857,350.089935 184.514099,323.570465 118.408981,322.854706 
	C118.188454,323.277222 117.967934,323.699768 117.747406,324.122314 
	C120.501991,325.546875 123.256577,326.971466 126.664383,328.733124 
M837.400391,690.049255 
	C860.735229,699.159180 884.834656,703.763733 910.001770,702.683960 
	C909.930969,702.212219 909.958862,701.971069 909.878662,701.927185 
	C908.281128,701.051392 906.683594,700.173828 905.061523,699.344666 
	C885.819031,689.508545 869.305054,676.163818 855.268066,659.839111 
	C821.510132,620.579346 806.269653,574.167114 803.914917,523.179871 
	C802.362671,489.570709 807.465759,456.783783 819.676941,425.326355 
	C833.362915,390.069672 854.426147,360.277405 885.375061,337.897247 
	C892.835083,332.502716 900.876709,328.133392 909.570557,323.418365 
	C822.820862,319.826141 739.688293,381.783875 721.790833,474.776031 
	C704.422241,565.020386 748.639526,653.898132 837.400391,690.049255 
z"/>
</svg>