<svg version="1.1" id="Layer_1" xmlns="http://www.w3.org/2000/svg" xmlns:xlink="http://www.w3.org/1999/xlink" x="0px" y="0px"
	 width="100%" viewBox="0 0 1024 1024" enable-background="new 0 0 1024 1024" xml:space="preserve">
<path fill="#000000" opacity="1.000000" stroke="none" 
	d="
M535.468628,1025.000000 
	C537.671387,1023.644104 540.557556,1024.116211 543.357544,1024.113281 
	C700.277100,1023.951111 857.196716,1023.825684 1014.116272,1023.656006 
	C1024.703125,1023.644531 1023.701965,1025.175049 1023.726135,1014.099365 
	C1023.817505,972.288025 1023.901855,930.476685 1024.029541,888.665405 
	C1024.036499,886.351685 1024.408569,884.039001 1024.805420,881.362915 
	C1025.000000,928.966858 1025.000000,976.933777 1025.000000,1025.000000 
	C861.979126,1025.000000 698.958191,1025.000000 535.468628,1025.000000 
z"/>
<path fill="#000000" opacity="1.000000" stroke="none" 
	d="
M1.000000,899.468628 
	C2.214626,901.161438 1.882044,903.539795 1.892592,905.846863 
	C2.060835,942.646362 2.208400,979.445862 2.347116,1016.245422 
	C2.375252,1023.709473 2.349588,1023.709778 9.646581,1023.710449 
	C94.902679,1023.718201 180.158798,1023.693420 265.414886,1023.749878 
	C298.218170,1023.771606 331.021362,1023.969788 363.824463,1024.123169 
	C365.635986,1024.131714 367.446045,1024.467896 369.628387,1024.825684 
	C247.108765,1025.000000 124.217522,1025.000000 1.000000,1025.000000 
	C1.000000,983.312988 1.000000,941.625183 1.000000,899.468628 
z"/>
<path fill="#000000" opacity="1.000000" stroke="none" 
	d="
M2.500000,1.000000 
	C1.373425,4.317761 1.906097,7.867087 1.997852,11.334777 
	C2.756325,39.999542 1.772796,68.660721 1.855050,97.323746 
	C1.858826,98.639511 1.547165,99.956184 1.191209,101.636215 
	C1.000000,69.658531 0.983481,37.317028 1.060560,4.975742 
	C1.063635,3.685741 -0.057321,1.891557 2.500000,1.000000 
z"/>
<path fill="#000000" opacity="1.000000" stroke="none" 
	d="
M699.026611,245.927826 
	C732.445740,269.847626 760.692261,298.338928 783.260742,332.312012 
	C810.858215,373.855438 829.034973,419.123505 835.373474,468.717651 
	C847.545227,563.952271 822.520447,648.556396 760.887085,722.025635 
	C716.079651,775.437744 659.461914,810.657349 592.089966,828.619873 
	C559.598267,837.282715 526.485840,840.177307 493.071716,838.002808 
	C429.961212,833.895630 372.691132,812.933472 322.047333,775.098022 
	C251.593033,722.462524 207.173798,652.950195 192.102127,566.077087 
	C179.592682,493.972565 191.411850,425.175781 225.962830,360.561554 
	C259.983948,296.938232 309.885040,249.614853 374.682709,218.177185 
	C406.537506,202.722305 440.310120,193.435852 475.567383,189.554840 
	C525.704102,184.035950 574.574036,189.277817 622.177490,206.100403 
	C649.538086,215.769394 674.881592,229.295029 699.026611,245.927826 
M814.763062,416.660645 
	C814.094238,414.777435 813.405090,412.901184 812.759644,411.010040 
	C772.512573,293.083282 663.749084,205.788559 536.310791,197.021301 
	C499.228577,194.470169 462.758636,197.618240 427.066864,207.883072 
	C364.962677,225.744049 312.881622,259.577728 271.370880,308.959503 
	C227.581116,361.052460 202.423981,421.160034 197.089600,489.299164 
	C194.414566,523.468811 197.251678,557.122925 205.892914,590.272339 
	C219.807983,643.653259 245.998917,690.351685 284.135040,730.016479 
	C342.490875,790.711304 413.737823,824.584595 498.076202,829.514771 
	C532.069946,831.501892 565.607361,827.463745 598.321777,817.853088 
	C658.377197,800.210266 709.163330,767.798401 750.415833,720.763245 
	C797.882202,666.643250 824.908386,603.674683 829.458740,531.698730 
	C831.915771,492.833069 827.272400,454.567871 814.763062,416.660645 
z"/>
<path fill="#000000" opacity="1.000000" stroke="none" 
	d="
M352.000885,724.714355 
	C328.562988,724.131470 315.665070,706.019409 314.352448,690.478455 
	C312.868286,672.907410 324.258148,655.763428 341.615479,652.046021 
	C346.955109,650.902405 348.681885,649.081543 349.193542,643.565186 
	C352.941040,603.162415 373.843475,572.519348 405.034821,548.158997 
	C419.631439,536.759155 434.351440,525.643494 445.353180,510.398804 
	C456.155884,495.429871 461.234558,478.701202 461.643860,460.415863 
	C461.899841,448.979248 460.287079,437.376221 464.796112,426.340881 
	C465.865540,423.723663 466.710754,420.942627 468.208588,418.586243 
	C472.638153,411.617371 471.859009,404.736298 468.595886,397.677094 
	C465.255585,390.450897 460.160309,384.472931 454.865112,378.726532 
	C440.349976,362.974579 426.852264,346.546600 418.117432,326.729797 
	C417.489716,325.305695 416.604309,324.133820 415.147125,323.503723 
	C395.506531,315.010712 374.901672,311.179413 353.658508,310.351288 
	C352.719757,312.939362 354.111572,314.595825 354.898102,316.327545 
	C374.002655,358.390869 404.870911,387.202698 449.637634,400.336609 
	C452.193481,401.086517 454.721863,401.929688 457.274261,402.691864 
	C459.750092,403.431213 461.659882,404.712311 461.032104,407.632751 
	C460.369293,410.716064 457.846375,410.801758 455.470093,410.287018 
	C447.646332,408.592255 440.046234,406.089813 432.613770,403.160370 
	C389.405609,386.130096 360.926575,354.707153 344.028259,312.084381 
	C340.972656,304.377136 342.583038,302.035187 350.909088,301.934570 
	C369.919159,301.704834 388.287048,305.475555 406.329041,311.146729 
	C407.722473,311.584717 409.136322,311.957886 410.431519,312.329834 
	C411.250763,311.298248 410.794861,310.480835 410.515717,309.759705 
	C405.962402,297.997467 403.567841,285.843414 403.407257,273.207245 
	C403.310211,265.573303 405.065979,263.968567 412.222534,266.543243 
	C437.469666,275.626282 459.261780,289.992462 477.143066,310.031128 
	C495.098938,330.153320 506.332672,354.081543 515.062805,379.259460 
	C516.879089,384.497559 519.014832,386.582947 524.971313,387.091064 
	C544.596375,388.765137 561.666443,396.267700 574.228455,412.215668 
	C581.341248,421.245605 588.450500,430.279633 595.679993,439.215820 
	C600.279846,444.901642 601.310120,451.068115 599.064392,457.956390 
	C594.267090,472.671326 585.391235,482.935333 569.366211,485.570282 
	C566.742737,486.001617 564.178162,486.855286 561.545532,487.155548 
	C552.189331,488.222778 548.734314,493.824738 549.524292,503.412201 
	C551.068237,522.151306 567.041626,534.194092 585.998596,532.404541 
	C597.484497,531.320251 607.408813,526.611267 617.449219,521.714783 
	C620.264832,520.341614 620.190430,518.453430 619.621948,515.977844 
	C618.439392,510.828339 616.527222,505.821259 617.489746,500.307892 
	C619.109680,491.028137 625.596741,485.176666 634.510620,485.323700 
	C643.248962,485.467865 650.119019,491.836639 651.243286,500.878998 
	C651.407288,502.198334 651.402893,503.538971 651.468689,504.870117 
	C651.726746,510.088745 653.398926,513.664490 658.739014,516.443237 
	C669.664673,522.128601 671.347839,533.863098 663.632385,543.448853 
	C662.918884,544.335327 662.266724,545.271179 661.691528,546.042603 
	C662.165833,547.972229 663.714294,548.529297 664.786194,549.513977 
	C672.377014,556.487305 672.471558,565.511536 664.759583,572.416931 
	C663.094116,573.908264 662.751282,575.170776 663.336243,577.139893 
	C669.447754,597.714355 675.549011,618.291992 681.572083,638.892456 
	C682.518433,642.129211 684.138733,642.828979 687.461609,642.143433 
	C700.069031,639.542175 712.379639,636.170471 723.946594,630.360596 
	C727.994324,628.327454 730.835938,629.589539 731.225342,633.747681 
	C734.066711,664.086975 728.210876,692.039185 706.221985,714.437256 
	C681.251099,739.872925 638.092224,739.516174 612.311523,714.103333 
	C595.913757,697.939514 587.927917,677.823425 586.749023,655.009521 
	C586.389832,648.059265 586.071777,641.028259 587.632019,634.102478 
	C588.709045,629.321533 590.591797,628.172180 595.035889,630.355835 
	C607.103943,636.286011 619.979675,639.568176 633.036743,642.323975 
	C636.447205,643.043823 639.033264,643.039856 638.680420,638.302734 
	C637.234436,618.888428 635.900085,599.465881 634.505798,580.047729 
	C634.484192,579.747498 634.222351,579.464600 633.931152,578.898560 
	C629.196899,579.269165 625.401123,582.083130 621.432434,584.324829 
	C612.005554,589.649597 602.687378,595.148682 592.688477,599.400269 
	C579.826660,604.869141 566.534851,608.268738 552.493103,608.130737 
	C549.704102,608.103394 548.057739,609.052490 547.310669,611.672852 
	C547.265137,611.832581 547.219421,611.999207 547.136047,612.140381 
	C542.121155,620.624756 542.359863,628.443115 545.929443,638.178955 
	C554.331177,661.094666 549.179504,682.411560 533.002258,700.839783 
	C529.821716,704.462952 526.410767,707.883911 522.729614,711.798523 
	C531.949768,711.798523 541.158813,711.888245 550.364929,711.765259 
	C555.965271,711.690430 561.317261,712.751526 566.457458,714.799988 
	C576.108215,718.645935 582.938232,725.296326 586.188232,735.336365 
	C588.485779,742.433777 586.743958,745.031311 579.349304,745.217163 
	C573.853455,745.355347 568.351440,745.229614 562.853210,745.301025 
	C561.242981,745.322021 559.515442,744.861633 558.067688,746.002747 
	C558.620056,757.413879 558.620056,757.415588 546.911682,757.415039 
	C497.419983,757.412659 447.928253,757.449463 398.436646,757.379028 
	C385.419952,757.360474 377.526917,745.183716 383.492249,734.469849 
	C384.760376,732.192200 386.696930,730.286743 388.620819,727.833313 
	C384.679840,724.545959 380.780579,721.265747 376.847626,718.026428 
	C375.308838,716.759094 374.007782,717.891052 372.766449,718.648987 
	C366.515198,722.465759 359.752533,724.527039 352.000885,724.714355 
M541.556763,556.999084 
	C535.319275,552.093079 530.319397,546.044739 526.248230,539.330139 
	C520.134705,529.246887 512.553101,520.425903 503.795776,512.666016 
	C490.949463,501.282837 478.170532,489.899475 469.311981,473.809052 
	C467.854431,481.263916 466.362854,487.704620 463.931671,493.902161 
	C454.420929,518.147095 436.604980,535.408264 416.136139,550.255493 
	C397.656799,563.659668 382.007996,579.540100 371.135620,599.709778 
	C359.167969,621.911438 353.770172,645.430054 359.377533,670.518616 
	C364.126709,691.767395 376.027130,708.354858 393.769897,720.907837 
	C400.529633,725.690369 400.590637,729.508606 394.287506,734.648071 
	C390.993439,737.333984 389.181793,740.543701 390.613495,744.680298 
	C392.021515,748.748352 395.729218,748.915161 399.346680,748.914551 
	C447.331055,748.906311 495.315430,748.911194 543.299805,748.877258 
	C544.889587,748.876160 546.648254,749.376038 548.110535,747.956604 
	C548.377075,745.557556 546.840576,743.898315 545.413940,742.378967 
	C540.217468,736.845154 534.066223,733.182312 526.183838,733.174316 
	C504.191284,733.152039 482.198700,733.118591 460.206146,733.076416 
	C457.098938,733.070435 453.744232,732.911987 453.359039,728.937500 
	C452.993347,725.164185 456.348877,724.562073 459.048035,723.835632 
	C468.512177,721.288330 477.200562,717.082397 484.799347,710.973511 
	C502.461914,696.774048 511.712097,678.828064 508.818848,655.588257 
	C503.595856,613.634827 455.030884,592.662720 421.040039,617.755432 
	C419.033539,619.236694 417.151581,620.886902 415.216431,622.464294 
	C413.215393,624.095398 411.103973,624.933105 409.044220,622.710571 
	C407.055054,620.564148 407.652008,618.465637 409.589661,616.578247 
	C410.186249,615.997131 410.791718,615.424866 411.402771,614.858948 
	C443.316711,585.299072 496.802399,597.726562 513.176270,638.525208 
	C514.545166,641.936157 515.696411,645.434509 517.166687,649.493713 
	C526.531799,635.965759 534.267700,622.536987 539.336609,608.088257 
	C538.547607,607.242798 538.364624,606.869385 538.092224,606.785156 
	C536.824951,606.393188 535.541626,606.043518 534.248474,605.746399 
	C517.812134,601.969788 503.597168,593.908752 490.718384,583.245544 
	C486.842163,580.036133 483.584473,576.255981 480.449524,572.357483 
	C478.834076,570.348633 478.061310,568.185913 480.336029,566.182190 
	C482.619751,564.170532 484.672302,565.342102 486.498474,567.059570 
	C487.710663,568.199524 488.855164,569.416809 489.972076,570.651855 
	C494.353790,575.496948 499.288086,579.702576 504.700592,583.341187 
	C526.675232,598.113831 550.257812,604.024292 576.321716,596.334045 
	C590.839783,592.050415 603.909363,584.713867 616.864380,577.152222 
	C624.259521,572.835815 631.886719,569.071533 640.478943,568.105591 
	C645.246155,567.569702 650.119324,568.049255 654.922180,567.731079 
	C658.079163,567.522095 660.747925,565.953979 661.686646,562.680542 
	C662.660339,559.284912 660.781433,556.821350 658.228699,555.014221 
	C652.682251,551.087708 646.433960,549.813049 639.726135,550.714355 
	C627.180176,552.400024 615.898499,557.894165 604.246155,562.340576 
	C582.827881,570.513672 561.786621,572.223572 541.556763,556.999084 
M547.342468,531.151306 
	C545.458984,522.040039 542.260132,513.244385 541.182129,503.927032 
	C539.773010,491.747681 546.122925,482.240082 558.059509,479.353058 
	C561.774841,478.454468 565.525879,477.688782 569.282715,476.979614 
	C580.747925,474.815308 586.896973,467.105133 590.615723,456.766296 
	C592.402832,451.797607 591.726807,447.394958 588.346558,443.235596 
	C581.730835,435.095062 575.376404,426.741577 568.732849,418.624420 
	C552.518982,398.814301 531.535828,391.905457 506.796051,397.034210 
	C500.631744,398.312164 497.387482,396.850555 493.960022,392.017761 
	C481.395721,374.301880 467.330322,357.867188 450.370850,344.139923 
	C444.119476,339.080017 437.444550,334.593414 429.172333,330.415436 
	C435.016541,341.438110 441.318481,350.589996 448.601105,359.084167 
	C457.046265,368.934326 466.480530,377.990234 473.300262,389.153625 
	C480.084106,400.258362 481.537079,411.383789 475.082520,423.602020 
	C468.400391,436.251007 468.044495,449.774811 473.634216,463.166870 
	C479.749268,477.817505 489.890137,489.386719 501.786682,499.580170 
	C514.620605,510.576691 526.385071,522.496765 535.032898,537.211182 
	C537.570190,541.528503 540.779724,545.406311 544.671936,548.605286 
	C545.951294,549.656799 547.031128,551.505859 549.510010,550.752319 
	C549.698853,544.387878 548.222168,538.220764 547.342468,531.151306 
M676.036438,722.640564 
	C707.243835,711.957947 731.729004,668.903198 722.765381,640.185913 
	C680.499207,657.330566 638.165649,656.360535 595.703735,640.190308 
	C594.419617,643.891785 594.134277,647.526672 594.436646,651.163513 
	C595.349365,662.143188 597.200317,672.919312 601.425598,683.201965 
	C614.469604,714.945251 643.706177,730.664246 676.036438,722.640564 
M464.013245,344.466278 
	C472.713226,352.735596 481.040161,361.357635 488.459839,370.808075 
	C492.468292,375.913666 496.350037,381.121002 500.196655,386.350281 
	C501.952057,388.736694 504.186646,389.407837 506.752380,388.286194 
	C509.935974,386.894501 507.914612,384.520996 507.267273,382.753296 
	C504.749664,375.877991 502.115143,369.040375 499.324188,362.271210 
	C483.601044,324.136566 457.546387,295.786346 419.775269,278.616486 
	C417.557587,277.608398 415.388763,276.221863 412.211060,276.387421 
	C412.358612,279.225281 412.274780,282.028778 412.687469,284.757172 
	C414.188293,294.679718 417.344086,304.114899 421.191986,313.366821 
	C422.494141,316.497711 424.344330,318.577881 427.404846,320.045349 
	C440.536469,326.341675 452.647461,334.221588 464.013245,344.466278 
M535.757141,637.048462 
	C530.745239,644.283081 525.817322,651.578247 520.672424,658.716919 
	C519.040039,660.981995 518.212097,663.237000 518.040100,666.025635 
	C517.142944,680.572632 511.848206,693.425110 503.071136,705.027649 
	C497.166321,712.833313 489.299042,718.282837 480.392456,724.666687 
	C483.759552,724.666687 485.856323,724.666504 487.953125,724.666687 
	C500.108917,724.667603 512.265076,724.726929 524.420349,724.650757 
	C533.852966,724.591675 541.963074,727.923340 549.144409,733.840393 
	C550.414062,734.886597 551.445435,736.522949 553.223267,736.543945 
	C561.131836,736.637573 569.042114,736.584595 577.518860,736.584595 
	C576.486511,733.022095 574.958801,730.674133 572.871521,728.797363 
	C567.133667,723.638245 560.555237,720.323364 552.636841,720.315247 
	C537.150696,720.299438 521.664490,720.298523 506.178314,720.306396 
	C503.645294,720.307678 501.442871,719.739136 500.864380,716.885925 
	C500.345642,714.327209 501.865173,712.850220 503.997009,711.832520 
	C504.898132,711.402344 505.793793,710.958435 506.675049,710.489136 
	C520.471069,703.140930 531.596497,693.092529 537.258179,678.212646 
	C542.466003,664.525452 543.021301,650.674683 535.757141,637.048462 
M326.711517,672.267395 
	C319.054077,686.725647 322.504913,702.161682 335.080353,711.166748 
	C346.183105,719.117126 363.427490,717.325439 369.117371,709.662659 
	C358.173126,695.912537 351.525757,680.203186 349.487946,662.593750 
	C349.166931,659.820007 347.571411,659.077393 344.889374,659.755981 
	C337.525696,661.619141 331.332947,665.146057 326.711517,672.267395 
M664.580566,610.812988 
	C661.615601,600.766907 658.574341,590.742371 655.732483,580.661621 
	C654.887878,577.665344 653.468323,575.963806 650.185791,576.281128 
	C647.929871,576.499146 645.571228,575.568481 643.141846,576.928589 
	C644.013672,592.139954 644.858521,607.376770 645.774475,622.609375 
	C646.123474,628.412781 646.656250,634.204895 647.062866,640.005188 
	C647.219788,642.243408 647.940796,643.602966 650.528137,643.965698 
	C658.337280,645.060730 666.046021,644.615479 674.265259,643.270996 
	C671.048645,632.520569 667.917358,622.055115 664.580566,610.812988 
M563.170715,536.569946 
	C561.017090,535.911438 559.345947,533.961548 556.642395,534.082275 
	C557.151611,540.976501 557.692383,547.728577 558.128296,554.487305 
	C558.295654,557.082031 560.178345,557.699158 562.112366,558.275269 
	C569.612915,560.509460 577.223877,560.423218 584.852844,559.143738 
	C596.463135,557.196411 607.003540,552.055237 617.854370,547.870117 
	C621.026917,546.646484 624.624878,546.277100 627.416138,543.826050 
	C626.261719,538.836731 625.013916,534.078430 622.937744,529.527039 
	C619.901978,529.657654 617.731140,531.322815 615.375549,532.435364 
	C598.747375,540.289124 581.802917,544.295898 563.170715,536.569946 
M645.659668,525.671448 
	C644.840393,518.237427 643.874084,510.829376 643.471191,503.340485 
	C643.111694,496.659576 638.415894,492.633972 632.833496,493.378693 
	C627.672119,494.067261 624.304871,500.013641 625.708313,506.228607 
	C628.201416,517.269287 631.626099,528.049805 635.003418,538.841492 
	C635.554810,540.603333 635.955811,542.620605 638.337891,542.578308 
	C641.273193,542.526428 644.291504,543.191162 647.601807,541.772827 
	C646.967346,536.706787 646.332642,531.638611 645.659668,525.671448 
M654.822388,530.914673 
	C655.778442,533.305847 654.618835,536.212891 656.579285,538.403564 
	C661.760681,532.958069 660.870300,526.994141 654.016174,523.651001 
	C654.234741,525.973083 654.430542,528.053528 654.822388,530.914673 
z"/>
</svg>