<svg version="1.1" id="Layer_1" xmlns="http://www.w3.org/2000/svg" xmlns:xlink="http://www.w3.org/1999/xlink" x="0px" y="0px"
	 width="100%" viewBox="0 0 1024 1024" enable-background="new 0 0 1024 1024" xml:space="preserve">
<path fill="#000000" opacity="1.000000" stroke="none" 
	d="
M330.594757,862.391846 
	C332.858185,860.407227 335.250000,860.670715 337.567352,860.666443 
	C350.232880,860.643311 362.898499,860.617126 375.563904,860.647766 
	C377.983521,860.653625 380.105469,860.506958 381.597351,858.104919 
	C386.027832,850.971558 392.960480,846.984192 400.418335,843.861267 
	C418.407288,836.328308 437.465729,833.254456 456.633423,830.730347 
	C462.406555,829.970093 468.200684,829.145630 474.006500,828.933044 
	C478.096619,828.783203 478.984467,827.002686 478.969269,823.353760 
	C478.875580,800.856201 478.945251,778.357971 478.951141,755.859924 
	C478.964752,704.031128 478.933289,652.202271 479.057831,600.373779 
	C479.067871,596.192078 477.969788,593.267639 474.647858,590.512024 
	C467.039886,584.201050 462.609222,575.925110 461.672302,565.987976 
	C461.301758,562.058411 459.911285,559.398438 456.006317,557.531189 
	C404.983398,533.133118 374.668213,491.240997 356.866974,439.069824 
	C345.703888,406.353455 342.615295,372.481232 343.623779,338.114624 
	C343.750824,333.785034 343.584778,329.446991 343.701843,325.116882 
	C343.840057,320.004639 345.930847,317.977509 351.075439,317.728760 
	C352.073181,317.680481 353.074951,317.713318 354.074860,317.713318 
	C459.898987,317.714050 565.723083,317.714752 671.547241,317.720673 
	C673.212646,317.720764 674.901550,317.620575 676.538513,317.854034 
	C679.880066,318.330597 682.131958,320.176666 682.259338,323.717987 
	C684.016418,372.602295 680.439331,420.648346 658.915588,465.673706 
	C639.399780,506.498505 610.731628,538.559387 569.181580,558.004456 
	C566.383545,559.313904 565.460083,561.058960 565.196533,564.110535 
	C564.288208,574.627563 560.336121,583.994629 551.904541,590.577454 
	C547.934265,593.677185 546.949585,596.964111 546.958130,601.594910 
	C547.066345,660.589417 547.034302,719.584229 547.041016,778.578918 
	C547.042664,793.244202 547.165527,807.910767 546.994568,822.573975 
	C546.945068,826.818481 547.923401,828.534912 552.703918,828.977173 
	C577.252075,831.247864 601.706787,834.281555 624.853088,843.562073 
	C632.846191,846.766846 640.257385,850.860168 644.876282,858.564758 
	C646.289246,860.921570 648.449585,860.651794 650.589355,860.654358 
	C663.254883,860.669434 675.920471,860.650879 688.585999,860.674744 
	C694.206299,860.685303 697.069397,862.562378 697.101074,866.152222 
	C697.134155,869.901123 693.971375,872.113342 688.325439,872.163696 
	C682.659729,872.214233 676.993225,872.169312 671.327026,872.169434 
	C561.336609,872.171204 451.346161,872.173828 341.355743,872.172485 
	C339.356415,872.172485 337.340729,872.280945 335.360901,872.071716 
	C329.754608,871.479309 327.858032,867.887085 330.594757,862.391846 
M665.242249,365.269073 
	C563.940613,365.272369 462.639038,365.273560 361.337433,365.284119 
	C355.302795,365.284760 354.939850,365.681305 355.403015,371.390442 
	C357.538300,397.710449 362.331085,423.409302 372.271729,448.051361 
	C383.983398,477.083649 400.384308,502.810577 424.169159,523.455750 
	C445.438049,541.917053 469.833588,554.262207 497.919373,557.433411 
	C536.174866,561.752991 570.025635,550.196167 599.475464,525.770264 
	C629.541626,500.833130 648.137634,468.383240 659.804810,431.608948 
	C666.123230,411.693420 669.413269,391.208252 670.721069,370.377472 
	C670.936646,366.944122 670.157471,364.768738 665.242249,365.269073 
M490.385406,675.499939 
	C490.392456,724.125122 490.426239,772.750366 490.356842,821.375427 
	C490.351166,825.367615 490.587433,827.972473 495.843994,827.803650 
	C507.322266,827.434937 518.823120,827.558960 530.309570,827.766418 
	C534.355164,827.839417 535.666687,826.079102 535.580078,822.425964 
	C535.469604,817.765930 535.390747,813.103638 535.395813,808.442444 
	C535.457275,751.991943 535.539612,695.541443 535.608948,639.090942 
	C535.623718,627.101196 535.529297,615.110596 535.652649,603.122131 
	C535.690735,599.419983 534.655945,598.318848 530.677979,598.725891 
	C519.237305,599.896729 507.701447,599.792725 496.267822,598.809387 
	C491.475342,598.397278 490.229156,599.284729 490.272522,604.060974 
	C490.485748,627.539001 490.379578,651.019958 490.385406,675.499939 
M533.500000,353.791443 
	C570.156677,353.779388 606.813416,353.768036 643.470093,353.754730 
	C651.134644,353.751953 658.800903,353.648071 666.463013,353.779999 
	C669.690186,353.835541 670.979919,352.598206 670.882019,349.382172 
	C670.750244,345.054657 670.882812,340.719116 670.901184,336.387024 
	C670.931335,329.302032 670.931091,329.296661 663.745300,329.296509 
	C564.772156,329.294373 465.799042,329.293732 366.825928,329.293457 
	C364.326630,329.293457 361.821472,329.411377 359.329498,329.278595 
	C356.336639,329.119141 355.095367,330.371826 355.171783,333.374817 
	C355.286224,337.870392 355.177887,342.371429 355.178009,346.870148 
	C355.178192,353.720825 355.183136,353.740479 362.046326,353.742950 
	C418.864227,353.763367 475.682098,353.775909 533.500000,353.791443 
M616.994507,852.558044 
	C613.679016,851.460815 610.408569,850.195740 607.040894,849.293091 
	C582.657715,842.756958 557.751831,839.968628 532.588745,839.164246 
	C496.889099,838.022949 461.368622,839.462769 426.386475,847.403809 
	C415.396637,849.898499 404.683716,853.337341 394.103943,860.360962 
	C473.692261,860.360962 552.018921,860.360962 631.118958,860.360962 
	C626.869507,856.397705 622.193665,854.791077 616.994507,852.558044 
M546.223267,580.731018 
	C550.599121,576.175903 553.134338,570.842468 553.625610,563.638306 
	C526.808594,571.763855 500.459351,571.708557 474.432953,564.398071 
	C472.916687,566.184570 473.323517,567.653503 473.682037,569.100342 
	C476.230103,579.382812 485.738892,587.342834 496.430908,587.628174 
	C506.729645,587.903137 517.041260,587.652832 527.345825,587.765198 
	C534.308472,587.841064 540.390808,585.677368 546.223267,580.731018 
z"/>
<path fill="#000000" opacity="1.000000" stroke="none" 
	d="
M393.350586,413.736389 
	C399.444214,437.975983 409.146637,460.112701 423.889648,479.889160 
	C436.033905,496.179535 451.075165,509.107361 469.185516,518.403259 
	C470.667786,519.164062 472.137970,519.950195 473.638275,520.673889 
	C477.032288,522.311218 478.465668,525.071350 476.943024,528.455505 
	C475.342896,532.011963 472.101807,532.282104 468.851257,530.732788 
	C458.301331,525.704346 448.082916,520.104919 439.099548,512.515747 
	C406.725403,485.166077 389.531067,449.260742 380.699768,408.676727 
	C379.817352,404.621552 379.222687,400.488647 378.758972,396.362152 
	C378.382782,393.014587 379.588287,390.315765 383.305725,389.791168 
	C386.961792,389.275208 388.916351,391.377625 389.608856,394.743134 
	C390.881348,400.927673 392.061005,407.131348 393.350586,413.736389 
z"/>
</svg>