<svg version="1.1" id="Layer_1" xmlns="http://www.w3.org/2000/svg" xmlns:xlink="http://www.w3.org/1999/xlink" x="0px" y="0px"
	 width="100%" viewBox="0 0 1024 1024" enable-background="new 0 0 1024 1024" xml:space="preserve">
<path fill="#000000" opacity="1.000000" stroke="none" 
	d="
M533.016174,330.018250 
	C556.928711,306.539368 580.647034,283.369385 604.173950,260.006653 
	C607.486389,256.717346 609.521729,256.701050 612.525940,260.171021 
	C616.335022,264.570709 620.481689,268.712097 624.771973,272.649719 
	C627.809998,275.437988 627.797363,277.318665 624.769104,280.249084 
	C607.887268,296.585693 591.191345,313.114624 574.444580,329.590668 
	C526.814758,376.450592 479.195953,423.321716 431.548279,470.163422 
	C429.458832,472.217560 427.964722,474.253571 427.974976,477.463074 
	C428.068237,506.624115 428.020752,535.785583 428.034393,564.946899 
	C428.034912,566.096191 428.236053,567.245422 428.350311,568.464783 
	C430.791931,568.898254 431.596252,566.867188 432.763947,565.717346 
	C481.915771,517.316162 531.019531,468.866119 580.146973,420.440186 
	C588.334595,412.369446 596.694153,404.470947 604.783020,396.303558 
	C607.584045,393.475403 609.488403,393.573212 612.085327,396.500153 
	C616.061951,400.982208 620.162598,405.409363 624.642090,409.372101 
	C628.024963,412.364655 627.790955,414.190308 624.654480,417.261963 
	C597.154724,444.193085 569.834167,471.307098 542.416504,498.322266 
	C505.741577,534.458923 469.062714,570.591736 432.267059,606.605225 
	C429.129639,609.675964 427.919708,612.793762 427.929779,617.118530 
	C428.042511,665.442810 427.991882,713.767517 427.974792,762.092102 
	C427.972198,769.377747 427.947601,769.384521 420.912170,769.392517 
	C415.079895,769.399109 409.237030,769.171143 403.418823,769.455261 
	C399.133575,769.664490 397.981049,767.835938 398.009613,763.871765 
	C398.138214,746.042603 398.070679,728.212097 398.070648,710.382019 
	C398.070465,561.908875 398.069855,413.435699 398.068054,264.962555 
	C398.067963,256.660461 398.062653,256.654663 406.141693,256.637848 
	C411.307404,256.627075 416.501587,256.974396 421.631042,256.543243 
	C426.925354,256.098206 428.098846,258.375183 428.039398,263.177521 
	C427.835144,279.671814 427.992188,296.170410 427.992493,312.667389 
	C427.993225,349.993927 427.970703,387.320496 428.005920,424.647003 
	C428.008057,426.911224 427.577332,429.265503 428.934784,432.211639 
	C463.719086,398.057312 498.240021,364.161530 533.016174,330.018250 
z"/>
</svg>