<svg version="1.1" id="Layer_1" xmlns="http://www.w3.org/2000/svg" xmlns:xlink="http://www.w3.org/1999/xlink" x="0px" y="0px"
	 width="100%" viewBox="0 0 2048 2048" enable-background="new 0 0 2048 2048" xml:space="preserve">
<path fill="none" opacity="1.000000" stroke="#000000" stroke-linecap="round" stroke-linejoin="round" stroke-width="14.000000"
	d="
M511.500000,763.000000 
	C506.728241,761.989685 503.009979,759.394165 499.436981,756.067688 
	C487.461792,744.918518 473.334381,738.406494 457.016602,735.892334 
	C423.508362,730.729553 388.695587,751.462341 374.880585,779.441040 
	C367.880127,793.618713 364.176422,808.512695 364.201813,823.999695 
	C364.237549,845.798401 370.690460,866.032532 382.481415,884.511841 
	C399.986572,911.946777 423.974182,932.489990 450.959747,950.061829 
	C471.914368,963.706543 493.867584,975.875793 513.472046,991.535034 
	C524.052368,999.986267 532.547913,1010.134705 538.645935,1022.427612 
	C541.878113,1028.943359 547.086182,1033.772583 555.506287,1033.076416 
	C558.858765,1032.799194 561.514282,1031.489502 563.994324,1029.492920 
	C566.022034,1027.860596 568.000000,1026.166626 570.000000,1024.500000 
"/>
<path fill="none" opacity="1.000000" stroke="#000000" stroke-linecap="round" stroke-linejoin="round" stroke-width="14.000000"
	d="
M1496.500000,1033.500000 
	C1502.611450,1032.747437 1507.740234,1030.320557 1510.476440,1024.489014 
	C1521.277710,1001.467834 1541.030151,987.747009 1561.434814,974.400391 
	C1582.436768,960.663208 1604.359375,948.269165 1623.993774,932.492249 
	C1645.964600,914.837891 1664.999634,894.659546 1676.435303,868.471741 
	C1689.906006,837.624146 1690.757935,806.412292 1674.251831,776.637573 
	C1661.176514,753.051697 1640.366211,739.369202 1613.013794,735.891113 
	C1588.399536,732.761230 1568.014526,740.997070 1549.969604,756.965698 
	C1547.623779,759.041748 1545.172485,761.219543 1541.991943,761.965881 
	C1538.691162,762.740479 1537.508545,765.115295 1536.458740,767.984924 
	C1532.374878,779.147034 1532.160400,790.889038 1530.975586,802.497498 
	C1530.276733,809.344543 1529.339966,816.167542 1528.486450,822.998291 
	C1528.422363,823.511108 1527.914917,824.074219 1528.037231,824.489014 
	C1530.530762,832.946472 1525.689697,840.451843 1524.937866,848.494202 
	C1523.398315,864.962219 1520.518799,881.262512 1517.397095,897.480225 
	C1513.285767,918.838440 1509.010254,940.188171 1502.548462,961.015076 
	C1502.014893,962.734497 1501.584595,964.851807 1502.098755,966.468567 
	C1504.596313,974.321289 1499.848511,979.947205 1496.484131,985.991150 
	C1490.584839,996.588196 1485.802734,1007.671204 1481.398071,1018.960266 
	C1479.897217,1022.807312 1480.699951,1024.974731 1483.973389,1027.042114 
	C1487.791504,1029.453247 1490.576050,1033.847900 1496.000000,1033.000000 
"/>
<path fill="none" opacity="1.000000" stroke="#000000" stroke-linecap="round" stroke-linejoin="round" stroke-width="14.000000"
	d="
M1216.500000,701.500000 
	C1215.552490,694.019897 1217.655273,686.818054 1218.492920,679.499207 
	C1221.278320,655.160278 1224.795776,630.908447 1227.047852,606.504395 
	C1227.709229,599.337524 1228.973999,592.229919 1229.014038,585.000061 
	C1229.042603,579.824402 1227.469971,574.862183 1228.180542,569.458008 
	C1228.698364,565.518921 1223.989746,563.345337 1220.470459,562.082397 
	C1208.972900,557.956177 1196.997925,555.651001 1185.000854,553.495422 
	C1167.946411,550.431091 1150.691650,548.935364 1133.490967,547.084473 
	C1123.040161,545.959839 1112.508057,545.473450 1101.998413,545.037537 
	C1074.345337,543.890625 1046.680176,542.686829 1019.001038,543.073120 
	C989.812439,543.480347 960.636047,544.329102 931.493713,546.411987 
	C904.136841,548.367188 876.853333,550.611572 849.999695,556.498657 
	C843.180786,557.993530 836.353577,559.476318 830.004089,562.508545 
	C822.114563,566.276245 821.504089,567.549988 823.419434,575.179138 
	C849.645203,584.192993 876.696777,588.016541 903.999695,590.503601 
	C922.467712,592.185791 940.968567,593.240051 959.496521,594.076660 
	C986.491150,595.295410 1013.489258,595.626709 1040.500000,595.490051 
	C1069.872192,595.341492 1099.200806,594.203125 1128.505127,592.070496 
	C1150.128418,590.496826 1171.648315,588.372559 1193.013184,584.574402 
	C1204.416260,582.547241 1215.211304,578.352356 1226.500000,576.000000 
"/>
<path fill="none" opacity="1.000000" stroke="#000000" stroke-linecap="round" stroke-linejoin="round" stroke-width="14.000000"
	d="
M516.500000,731.000000 
	C536.742493,737.270508 557.489441,740.939087 578.489380,743.584167 
	C595.289429,745.700317 612.128479,747.216492 628.999817,748.502136 
	C672.452698,751.813477 715.989502,751.276245 759.498108,750.821533 
	C776.994263,750.638733 794.514832,749.440002 812.012207,748.167969 
	C833.948364,746.573242 855.777222,744.263611 877.484070,740.897278 
	C887.577332,739.332031 897.546387,736.855347 907.478516,734.412659 
	C911.804993,733.348511 916.105225,732.233704 920.500000,731.500000 
"/>
<path fill="none" opacity="1.000000" stroke="#000000" stroke-linecap="round" stroke-linejoin="round" stroke-width="14.000000"
	d="
M1534.000000,731.500000 
	C1522.352173,733.529236 1511.183594,737.568176 1499.508911,739.552246 
	C1483.902588,742.204346 1468.231812,744.259888 1452.508545,746.073608 
	C1436.374390,747.934692 1420.163818,748.692444 1403.988647,749.839172 
	C1394.531982,750.509521 1384.990356,750.791870 1375.498901,750.892334 
	C1347.168701,751.192078 1318.823608,751.450195 1290.503662,750.834229 
	C1272.999878,750.453430 1255.485718,749.375549 1237.991577,748.117371 
	C1214.362183,746.417969 1190.900146,743.573547 1167.494751,740.034790 
	C1156.503784,738.372864 1145.883911,735.102661 1135.030640,732.852112 
	C1133.727905,732.581970 1132.077393,733.357300 1131.000000,732.000000 
"/>
<path fill="none" opacity="1.000000" stroke="#000000" stroke-linecap="round" stroke-linejoin="round" stroke-width="14.000000"
	d="
M998.500000,997.000000 
	C998.319397,1000.661377 999.367249,1004.038269 1000.415833,1007.525330 
	C1003.849426,1018.943298 1001.679688,1029.742065 996.003357,1040.001831 
	C993.150757,1045.157837 990.037842,1050.196289 987.564880,1055.530029 
	C983.164673,1065.020630 983.637573,1074.829590 987.037598,1084.486816 
	C991.681458,1097.676880 996.642700,1110.760864 999.492554,1124.501587 
	C1004.014587,1146.304199 1005.301208,1168.251831 1003.644043,1190.510742 
	C1002.441101,1206.668457 999.296204,1222.312622 993.922424,1237.472534 
	C986.439148,1258.583374 972.018188,1273.873657 952.489563,1284.480835 
	C944.377808,1288.886963 935.975220,1292.644409 927.003967,1295.015137 
	C923.972595,1295.816284 920.911072,1297.038574 919.085632,1299.562012 
	C916.397156,1303.278442 912.636963,1303.513428 909.016663,1302.901245 
	C896.175964,1300.729858 886.942444,1308.207764 883.009399,1318.003784 
	C880.967468,1323.089478 881.763428,1325.186401 887.010254,1327.980713 
	C895.619629,1332.565796 905.182129,1334.218506 914.515015,1336.436768 
	C928.647095,1339.795776 943.111877,1341.276489 957.512817,1342.885010 
	C966.299866,1343.866455 975.173828,1344.227661 984.006897,1344.911011 
	C1004.469482,1346.494141 1025.026855,1346.689941 1045.492188,1345.816772 
	C1072.247925,1344.675171 1099.073730,1343.335938 1125.480957,1338.397827 
	C1137.669067,1336.118896 1150.005371,1334.082764 1161.500244,1329.000610 
	C1169.344604,1325.532227 1170.644409,1320.424927 1165.505981,1313.495483 
	C1158.855957,1304.527832 1149.752075,1301.291016 1139.016724,1302.634033 
	C1136.270020,1302.977783 1134.704834,1302.680664 1132.933472,1300.555420 
	C1130.140503,1297.204224 1126.093506,1295.747681 1122.003540,1294.488403 
	C1102.027832,1288.337891 1084.586182,1278.354858 1070.925537,1262.062378 
	C1060.798096,1249.983765 1055.126953,1236.022217 1051.512451,1220.996948 
	C1047.560791,1204.570557 1045.841797,1187.815186 1046.127197,1171.002197 
	C1046.581177,1144.268433 1050.379272,1118.035400 1060.440063,1092.975952 
	C1062.953369,1086.715698 1065.480591,1080.428223 1066.068237,1073.505737 
	C1066.965332,1062.939087 1062.589111,1054.247559 1057.622681,1045.430908 
	C1053.774292,1038.598633 1050.093262,1031.657104 1048.763672,1023.538696 
	C1047.858032,1018.009888 1048.665771,1013.072754 1050.046021,1008.012573 
	C1051.080566,1004.220093 1052.435059,1000.524963 1052.000000,996.500000 
"/>
<path fill="none" opacity="1.000000" stroke="#000000" stroke-linecap="round" stroke-linejoin="round" stroke-width="14.000000"
	d="
M904.500000,906.000000 
	C901.742126,899.095337 903.780823,892.321655 904.982788,885.496948 
	C908.606506,864.922302 911.871521,844.297180 914.033447,823.503479 
	C915.525635,809.152039 917.591919,794.857300 918.925476,780.493103 
	C920.195007,766.818542 920.990173,753.101990 922.953186,739.493225 
	C923.138184,738.210632 923.039490,736.619995 922.423706,735.543579 
	C921.067017,733.172363 921.222473,730.994751 921.941589,728.483276 
	C923.174377,724.177673 920.296753,720.137939 914.491272,718.023987 
	C900.571167,712.955505 886.123352,710.066284 871.497559,708.017212 
	C861.343384,706.594666 851.128052,705.566467 841.018005,703.891235 
	C836.656982,703.168640 832.758667,701.694092 827.945129,702.749695 
	C821.633240,704.133911 814.990906,702.241821 808.512512,701.811340 
	C794.846680,700.903259 781.165466,700.595276 767.508606,699.843933 
	C739.167358,698.284729 710.831848,699.152405 682.499878,699.125061 
	C665.667236,699.108765 648.822876,700.142273 632.003479,701.063416 
	C619.652466,701.739746 607.287903,702.619263 595.009888,704.082886 
	C572.656799,706.747620 550.201660,709.017639 528.518188,715.560303 
	C525.405151,716.499573 522.240662,717.363953 519.436707,719.413391 
	C515.982544,721.938110 514.707092,724.541626 515.300293,729.026428 
	C515.904602,733.595215 513.599670,738.168518 513.901428,743.006165 
	C514.309692,749.550964 516.015625,756.162048 512.266479,762.653931 
	C511.320038,764.292725 513.358765,767.983154 514.567383,770.467224 
	C516.742737,774.938110 517.570557,779.760010 517.884277,784.507629 
	C518.747314,797.568115 521.269287,810.509583 521.707886,823.509827 
	C522.145020,836.468689 525.935059,848.748962 527.031738,861.497253 
	C528.132751,874.295532 530.715149,886.889099 533.081421,899.484680 
	C536.941895,920.034241 541.421265,940.457947 547.390259,960.532654 
	C548.067810,962.811584 549.090515,965.315735 548.046875,968.018127 
	C545.970398,973.394836 548.561462,977.604980 551.416504,982.053589 
	C559.377319,994.458496 565.335571,1007.840820 569.496582,1022.000977 
	C569.690125,1022.659790 569.611084,1023.570496 570.032410,1023.965393 
	C581.045227,1034.285034 586.480164,1048.601685 595.970642,1060.024414 
	C612.847839,1080.337891 632.258728,1097.414062 656.493591,1108.514038 
	C657.710327,1109.071289 658.790955,1109.925903 660.007629,1110.483276 
	C664.287415,1112.443970 665.976501,1114.449219 664.292114,1120.087280 
	C660.986267,1131.152954 667.085510,1141.627319 679.004272,1148.492554 
	C679.971436,1149.049561 681.004517,1149.491089 681.999207,1150.001465 
	C686.303528,1152.210449 689.193176,1154.717163 689.827271,1160.463867 
	C690.486450,1166.439087 692.970459,1172.164673 693.149658,1178.495728 
	C693.476135,1190.034180 687.873291,1199.190918 682.429260,1208.458496 
	C680.141968,1212.351929 677.918945,1216.212158 676.503479,1220.501099 
	C674.042908,1227.956787 674.938904,1235.278320 677.506836,1242.497559 
	C683.156860,1258.381836 688.899231,1274.274536 691.395081,1291.015625 
	C692.798584,1300.429810 693.905029,1309.926514 694.024353,1319.499756 
	C694.264709,1338.782593 693.947449,1358.010742 690.008911,1377.001831 
	C686.067810,1396.005737 678.210999,1413.122925 664.406006,1426.905884 
	C655.126770,1436.170166 643.831299,1442.812622 632.013367,1448.527588 
	C617.217102,1455.682861 601.599548,1460.548706 586.014404,1465.544922 
	C583.910095,1466.219482 581.396179,1467.013306 580.120056,1468.596802 
	C577.029663,1472.431030 573.180054,1473.663574 568.537903,1474.674194 
	C560.433105,1476.438354 553.470520,1486.037842 552.987915,1494.499268 
	C552.755798,1498.569214 555.029053,1500.412842 558.453857,1502.093994 
	C565.470886,1505.538696 573.092712,1506.699463 580.525146,1508.389404 
	C593.698242,1511.384888 607.058716,1513.504028 620.500671,1514.993896 
	C632.803650,1516.357788 645.158569,1517.097900 657.492371,1518.094116 
	C686.804077,1520.462158 716.164795,1520.460815 745.496216,1519.824219 
	C767.358093,1519.349854 789.213989,1518.027832 811.018677,1515.672852 
	C831.349243,1513.476807 851.311340,1509.879028 871.025024,1504.593384 
	C871.984680,1504.336060 872.577209,1503.702393 873.487732,1503.454712 
	C881.369568,1501.312012 885.710144,1497.367065 880.042419,1486.477905 
	C876.554016,1479.775757 871.475769,1475.414185 863.998535,1474.007935 
	C861.656128,1473.567383 859.556580,1474.182007 858.017212,1476.014404 
	C854.730103,1479.927124 849.958435,1480.726196 845.484192,1481.394165 
	C827.897705,1484.020142 810.283203,1486.304443 792.511292,1487.649414 
	C761.031799,1490.031738 729.531311,1490.996948 698.002197,1490.385864 
	C677.823730,1489.994751 657.626526,1488.991821 637.512329,1487.348755 
	C620.589111,1485.966553 603.697510,1483.819580 586.997986,1480.510254 
	C582.545837,1479.628052 578.719116,1477.770264 576.000000,1474.000000 
"/>
<path fill="none" opacity="1.000000" stroke="#000000" stroke-linecap="round" stroke-linejoin="round" stroke-width="14.000000"
	d="
M1384.000000,1115.500000 
	C1389.022339,1131.250122 1385.096313,1140.674805 1370.540039,1149.069458 
	C1365.304199,1152.088867 1360.696899,1154.565918 1353.939331,1153.332031 
	C1347.385498,1152.135010 1340.331421,1153.630737 1333.500610,1154.010498 
	C1327.276245,1154.356567 1321.157227,1153.307495 1314.999756,1152.753052 
	C1313.835083,1152.648193 1312.666870,1152.514526 1311.500000,1152.511108 
	C1303.868408,1152.489502 1301.271973,1156.169556 1304.549805,1162.975952 
	C1309.976685,1174.244385 1308.825195,1185.001465 1303.632080,1196.062012 
	C1300.671875,1202.366821 1296.750488,1208.097290 1293.922485,1214.465576 
	C1290.031616,1223.227051 1289.848633,1231.848145 1292.402466,1241.027100 
	C1296.277832,1254.956787 1302.075806,1268.316895 1304.922485,1282.515503 
	C1307.166748,1293.709717 1309.027588,1305.006592 1308.999756,1316.500000 
	C1308.986084,1322.187134 1310.437866,1327.773193 1310.020142,1333.501465 
	C1308.488037,1354.506348 1307.163452,1375.532104 1299.507935,1395.503052 
	C1291.273193,1416.984375 1276.620728,1432.471069 1256.571411,1443.628418 
	C1239.097900,1453.352539 1220.267578,1459.261475 1201.479858,1465.438721 
	C1198.909546,1466.283813 1196.184814,1466.977661 1194.578613,1469.060547 
	C1191.694214,1472.800903 1187.868896,1473.672485 1183.532959,1474.646606 
	C1173.693848,1476.857300 1168.775024,1486.662964 1168.007202,1495.000610 
	C1167.539307,1500.080200 1171.268555,1501.683350 1175.011963,1502.965088 
	C1185.103760,1506.421143 1195.562500,1508.424561 1205.998535,1510.507202 
	C1225.818604,1514.462158 1245.928223,1516.101807 1266.005005,1517.945801 
	C1273.307373,1518.616333 1280.677856,1518.509155 1287.997925,1519.029541 
	C1309.983765,1520.592407 1332.000122,1520.098267 1353.999268,1519.916382 
	C1374.537109,1519.746704 1395.028687,1518.375244 1415.508911,1516.602905 
	C1439.213867,1514.551514 1462.569336,1510.858154 1485.505249,1504.518921 
	C1488.497314,1503.692017 1491.330566,1502.674683 1494.036621,1501.061401 
	C1497.513306,1498.989014 1497.938965,1495.846924 1497.448608,1492.507568 
	C1496.169067,1483.796265 1486.572021,1474.485596 1477.992310,1473.572510 
	C1476.728149,1473.437988 1475.273438,1472.883423 1473.942383,1474.451172 
	C1468.334839,1481.057007 1460.113403,1481.287231 1452.486328,1482.406616 
	C1439.543091,1484.306030 1426.598145,1486.211182 1413.506470,1487.094971 
	C1400.507812,1487.972656 1387.522949,1488.961060 1374.502197,1489.549072 
	C1354.839722,1490.436768 1335.159302,1491.068726 1315.504395,1490.374268 
	C1296.996704,1489.720459 1278.479370,1489.257080 1259.982422,1487.710815 
	C1244.418457,1486.409668 1228.906250,1484.911377 1213.516602,1482.398438 
	C1205.560791,1481.099243 1196.766846,1481.421021 1191.000000,1474.000000 
"/>
<path fill="none" opacity="1.000000" stroke="#000000" stroke-linecap="round" stroke-linejoin="round" stroke-width="14.000000"
	d="
M747.000000,1154.500000 
	C746.666626,1156.833374 746.917175,1159.463013 745.907227,1161.452881 
	C738.167419,1176.701538 742.483398,1190.473022 750.451965,1204.028198 
	C753.971313,1210.014771 757.492554,1216.047729 759.027405,1222.993896 
	C761.173645,1232.706543 758.021423,1241.631470 754.939575,1250.479004 
	C750.256653,1263.922974 745.869080,1277.502930 743.659546,1291.525146 
	C740.664490,1310.532104 740.007202,1329.768066 741.528931,1348.997681 
	C742.642273,1363.066650 744.732178,1377.015015 749.045166,1390.485596 
	C756.891052,1414.990723 773.008911,1432.466431 795.482422,1444.532715 
	C812.356262,1453.592407 830.414124,1459.550781 848.490112,1465.529907 
	C853.187927,1467.083984 857.976624,1468.717896 860.000000,1474.000000 
"/>
<path fill="none" opacity="1.000000" stroke="#000000" stroke-linecap="round" stroke-linejoin="round" stroke-width="14.000000"
	d="
M1361.000000,1155.000000 
	C1361.093140,1158.485352 1360.063721,1161.730469 1359.023560,1165.007446 
	C1355.055420,1177.507935 1356.829590,1189.309326 1363.486694,1200.507935 
	C1366.232910,1205.127319 1369.022217,1209.737061 1371.460083,1214.520264 
	C1376.360596,1224.135254 1375.865479,1234.089844 1372.466797,1243.988525 
	C1368.440430,1255.715332 1364.001099,1267.248169 1361.323975,1279.461426 
	C1358.600220,1291.888672 1356.758911,1304.404297 1356.143921,1317.007080 
	C1355.155640,1337.265503 1355.796875,1357.559448 1360.056274,1377.487915 
	C1366.825317,1409.157349 1385.191772,1431.902466 1413.980957,1446.537476 
	C1429.552246,1454.453003 1445.955566,1460.136475 1462.506592,1465.479614 
	C1467.298828,1467.026733 1471.470703,1469.377319 1474.500000,1473.500000 
"/>
<path fill="none" opacity="1.000000" stroke="#000000" stroke-linecap="round" stroke-linejoin="round" stroke-width="14.000000"
	d="
M520.500000,832.500000 
	C505.483673,833.384949 498.595795,828.328674 493.562622,811.980713 
	C490.672821,802.594543 487.675323,793.247620 481.442230,785.546753 
	C467.804138,768.697266 442.246887,764.456848 423.395752,777.347534 
	C408.927582,787.241028 402.065186,800.779785 400.001007,817.500122 
	C397.014160,841.693848 406.647491,861.952942 420.603241,880.421997 
	C436.649445,901.657532 458.103363,916.902771 479.995483,931.506775 
	C495.377319,941.767761 511.152832,951.446655 525.990784,962.512329 
	C528.555725,964.425232 531.131287,966.358704 533.469910,968.532349 
	C537.187988,971.988342 541.430603,974.094788 546.500000,974.500000 
"/>
<path fill="none" opacity="1.000000" stroke="#000000" stroke-linecap="round" stroke-linejoin="round" stroke-width="14.000000"
	d="
M1503.500000,974.500000 
	C1510.706543,973.862915 1515.734009,969.174866 1520.987671,964.984558 
	C1534.436523,954.258240 1549.176025,945.441528 1563.462402,935.943542 
	C1579.043823,925.584473 1594.368896,914.888550 1608.594116,902.609070 
	C1619.860352,892.883911 1629.890381,882.183655 1637.402222,869.442383 
	C1649.496094,848.929199 1655.721924,827.162720 1647.439941,803.521057 
	C1641.678955,787.075500 1630.785767,775.304871 1613.472412,771.113953 
	C1596.294434,766.955688 1579.322510,771.958191 1567.449219,787.962341 
	C1562.178711,795.066406 1559.757202,803.199890 1557.479858,811.494507 
	C1555.917847,817.184143 1553.423828,822.294006 1549.059570,826.560974 
	C1543.609497,831.889648 1537.491699,834.168030 1530.000000,832.500000 
"/>
<path fill="none" opacity="1.000000" stroke="#000000" stroke-linecap="round" stroke-linejoin="round" stroke-width="14.000000"
	d="
M1539.000000,763.000000 
	C1534.324341,757.247070 1535.622681,750.442322 1536.173096,744.014832 
	C1536.485596,740.364380 1536.392578,736.938354 1535.427856,733.520386 
	C1535.147461,732.526733 1534.139526,731.585632 1534.541260,730.515503 
	C1535.475708,728.026672 1536.443115,725.252625 1534.886353,723.081543 
	C1532.905640,720.319275 1529.870483,718.693420 1526.531616,717.417358 
	C1513.907104,712.592224 1500.702881,710.190979 1487.482544,708.110962 
	C1473.727417,705.946716 1459.858521,704.402039 1445.992065,703.082947 
	C1434.697510,702.008423 1423.326416,701.767700 1412.001343,700.981384 
	C1375.366211,698.437866 1338.670166,698.576538 1302.003174,699.191833 
	C1282.839600,699.513306 1263.641113,700.181885 1244.479126,701.744080 
	C1235.434204,702.481445 1226.168579,704.863342 1216.994385,702.018188 
	C1216.538208,701.876709 1215.906494,701.820984 1215.513672,702.026245 
	C1206.532715,706.718750 1196.494995,705.310364 1186.990356,706.943604 
	C1170.346436,709.803589 1153.460083,711.556519 1137.520142,717.553528 
	C1129.129883,720.710144 1128.443481,722.357910 1130.009521,730.998291 
	C1130.102539,731.511597 1130.619019,732.131042 1130.458496,732.480957 
	C1125.631104,743.004395 1130.106445,753.567200 1130.740967,763.985352 
	C1131.891113,782.870422 1134.537964,801.662720 1136.490356,820.500977 
	C1138.955566,844.291382 1142.197876,867.969177 1146.480103,891.503601 
	C1146.960449,894.143555 1147.515625,896.846680 1147.414307,899.496704 
	C1147.278687,903.039917 1147.320557,906.755432 1142.530518,908.107971 
	C1139.114990,909.072449 1137.339478,912.536377 1135.043823,915.040161 
	C1120.386230,931.025208 1103.031982,943.248718 1083.496582,952.492798 
	C1083.023682,952.716553 1082.376587,952.696472 1082.018066,953.019897 
	C1072.573730,961.537170 1060.020752,959.807556 1048.943237,962.789246 
	C1040.437500,965.078613 1031.416870,965.320312 1022.499329,965.019897 
	C1009.900391,964.595520 997.572998,962.655762 985.488586,959.038208 
	C982.104309,958.025085 978.655090,956.704773 975.000000,958.000000 
"/>
<path fill="none" opacity="1.000000" stroke="#000000" stroke-linecap="round" stroke-linejoin="round" stroke-width="14.000000"
	d="
M875.249939,793.000000 
	C874.666626,801.166687 874.415222,809.373596 873.429443,817.491455 
	C871.503296,833.353943 869.340454,849.192810 866.964478,864.994629 
	C861.769653,899.543396 855.163757,933.808228 843.948059,966.982422 
	C833.871765,996.786682 819.757446,1024.431519 798.465637,1047.968872 
	C795.548035,1051.194214 792.089661,1053.924072 789.028137,1057.027832 
	C787.115356,1058.966919 784.987610,1059.358765 782.500000,1058.750000 
"/>
<path fill="none" opacity="1.000000" stroke="#000000" stroke-linecap="round" stroke-linejoin="round" stroke-width="14.000000"
	d="
M1490.000000,793.500000 
	C1489.682129,806.079224 1487.998047,818.542419 1486.428467,830.990967 
	C1482.896484,859.005066 1478.346680,886.858398 1472.537720,914.507935 
	C1465.833618,946.418091 1456.432129,977.380005 1441.505859,1006.502991 
	C1431.308228,1026.399780 1417.681152,1043.669800 1401.500000,1059.000000 
"/>
<path fill="none" opacity="1.000000" stroke="#000000" stroke-linecap="round" stroke-linejoin="round" stroke-width="14.000000"
	d="
M1075.500000,959.000000 
	C1080.713257,970.079773 1074.539673,983.189026 1065.573120,988.620667 
	C1058.183960,993.096619 1051.097778,996.632080 1041.975220,995.152771 
	C1034.562500,993.950806 1027.052246,996.648560 1019.498047,996.023376 
	C1014.339661,995.596497 1009.233459,994.600708 1003.996094,994.939087 
	C1001.184631,995.120605 998.672424,996.807068 995.395020,994.660217 
	C988.276062,989.996887 979.997742,986.936646 975.513245,978.992493 
	C972.289185,973.281067 972.083130,967.104492 973.880798,961.038757 
	C974.696472,958.286560 974.304321,956.774231 971.998535,955.502686 
	C965.335999,951.828430 958.530518,948.391479 952.027771,944.454102 
	C937.615234,935.727478 924.499756,925.348206 913.550354,912.457275 
	C910.919678,909.360107 907.909851,907.323303 904.130493,906.353394 
	C897.893982,913.353577 897.885925,922.288269 896.073303,930.516174 
	C887.644592,968.776855 875.421265,1005.584717 854.447815,1038.967163 
	C837.814697,1065.441406 817.292664,1088.184692 789.486145,1103.474854 
	C784.917725,1105.986816 779.978333,1107.859985 775.549194,1110.580078 
	C770.388428,1113.749512 764.875610,1115.210327 759.052979,1116.706177 
	C741.574463,1121.197021 723.903198,1122.884033 706.006165,1121.889038 
	C695.851990,1121.324585 685.778137,1119.308350 676.057312,1116.313965 
	C672.623657,1115.256104 669.376343,1115.213379 666.000000,1115.000000 
"/>
<path fill="none" opacity="1.000000" stroke="#000000" stroke-linecap="round" stroke-linejoin="round" stroke-width="14.000000"
	d="
M1146.500000,907.000000 
	C1152.273438,913.217407 1152.226807,921.513184 1153.868774,929.028687 
	C1161.567871,964.269043 1172.406738,998.343140 1190.021729,1029.987915 
	C1209.544067,1065.058838 1236.598755,1092.275635 1272.890625,1110.221191 
	C1279.621094,1113.549194 1286.557129,1114.971069 1293.489258,1117.035889 
	C1300.370483,1119.085571 1307.375610,1120.165039 1314.475220,1121.174683 
	C1321.352295,1122.152832 1328.162231,1121.866211 1335.000488,1121.964966 
	C1346.746460,1122.134521 1358.179077,1120.144409 1369.538574,1117.146362 
	C1374.023315,1115.962646 1379.110107,1115.517822 1383.328369,1114.369507 
	C1387.789185,1113.155273 1392.289917,1109.294067 1397.007812,1107.016113 
	C1424.889038,1093.554688 1445.999390,1072.526611 1463.460449,1047.472412 
	C1467.395630,1041.826294 1470.786133,1035.802856 1474.524780,1030.015991 
	C1475.889526,1027.903809 1477.526489,1025.962402 1480.000000,1025.000000 
"/>
<path fill="none" opacity="1.000000" stroke="#000000" stroke-linecap="round" stroke-linejoin="round" stroke-width="14.000000"
	d="
M916.000000,1303.000000 
	C921.343323,1309.427002 929.002258,1310.347412 936.503113,1311.479248 
	C972.815308,1316.959351 1009.398804,1317.655396 1045.997314,1316.875854 
	C1068.235229,1316.402344 1090.493896,1315.383911 1112.516968,1311.598511 
	C1116.196777,1310.966064 1119.861450,1310.224121 1123.524536,1309.659180 
	C1128.318115,1308.919678 1131.619751,1306.497559 1134.500000,1303.000000 
"/>
<path fill="none" opacity="1.000000" stroke="#000000" stroke-linecap="round" stroke-linejoin="round" stroke-width="15.000000"
	d="
M823.500000,576.500000 
	C820.292725,582.274414 821.644836,588.614197 822.238647,594.475830 
	C823.099915,602.976929 823.974854,611.503052 825.007263,619.999084 
	C826.142029,629.336304 827.373291,638.661926 828.489258,648.001282 
	C829.703369,658.162292 830.744019,668.344666 832.034485,678.495605 
	C832.775391,684.322876 833.865173,690.088013 834.183899,695.990051 
	C834.277405,697.721313 834.049316,699.333313 834.000000,701.000000 
"/>
<path fill="none" opacity="1.000000" stroke="#000000" stroke-linecap="round" stroke-linejoin="round" stroke-width="15.000000"
	d="
M768.500000,1116.000000 
	C774.176819,1127.709595 770.685791,1139.523560 759.503906,1146.506226 
	C757.975525,1147.460815 756.545898,1148.578735 754.991089,1149.484741 
	C750.824463,1151.912598 747.067017,1154.733887 741.416870,1152.734985 
	C738.210449,1151.600586 734.090515,1152.421631 730.515381,1153.083008 
	C722.317444,1154.599854 714.195251,1154.021362 705.993774,1153.323120 
	C700.488403,1152.854248 694.835815,1151.916504 689.500000,1154.500000 
"/>
<path fill="none" opacity="1.000000" stroke="#000000" stroke-linecap="round" stroke-linejoin="round" stroke-width="14.000000"
	d="
M1280.000000,1115.500000 
	C1275.473511,1130.708130 1278.974731,1139.448975 1292.997925,1148.003540 
	C1296.511963,1150.147095 1300.000000,1152.333252 1303.500000,1154.500000 
"/>
</svg>