<svg version="1.1" id="Layer_1" xmlns="http://www.w3.org/2000/svg" xmlns:xlink="http://www.w3.org/1999/xlink" x="0px" y="0px"
	 width="100%" viewBox="0 0 1024 1024" enable-background="new 0 0 1024 1024" xml:space="preserve">
<path fill="#000000" opacity="1.000000" stroke="none" 
	d="
M298.462555,616.507568 
	C369.841217,493.283722 441.027435,370.372070 513.003784,246.096130 
	C616.101379,424.038879 718.605896,600.957947 821.631897,778.777100 
	C615.525269,778.777100 410.577576,778.777100 204.383865,778.777100 
	C235.934052,724.351868 267.102051,670.585815 298.462555,616.507568 
M240.310059,744.756470 
	C236.675140,751.138611 233.040207,757.520752 229.175125,764.307007 
	C418.959320,764.307007 607.572327,764.307007 797.193115,764.307007 
	C702.311584,600.595154 607.968994,437.813019 513.251892,274.384796 
	C511.753448,276.692780 510.708466,278.157562 509.809814,279.707214 
	C472.035797,344.848114 434.268677,409.993011 396.513733,475.144958 
	C344.559814,564.799377 292.616364,654.459961 240.310059,744.756470 
z"/>
<path fill="#000000" opacity="1.000000" stroke="none" 
	d="
M595.753540,559.132324 
	C600.190247,563.237671 603.872864,563.136353 608.515625,559.410217 
	C614.859863,554.318420 622.087830,550.343933 628.661743,545.515808 
	C632.510986,542.688660 633.553223,545.621643 635.075073,547.885559 
	C636.699707,550.302673 639.154480,552.581055 635.053345,555.297424 
	C627.851074,560.067932 620.873474,565.177673 613.838684,570.119446 
	C614.613037,573.051331 616.937622,573.999878 618.555115,575.543213 
	C624.099060,580.832886 629.606750,586.169312 635.341736,591.246704 
	C638.533508,594.072510 638.188049,596.198425 635.276367,598.940552 
	C629.090271,604.766357 623.093201,610.791992 616.387817,616.042725 
	C615.365967,616.842957 614.050781,617.398315 613.732178,619.645447 
	C620.062988,624.150879 626.679626,628.828857 633.261902,633.554749 
	C637.751099,636.777954 637.391174,642.206787 632.583374,645.188354 
	C630.626343,646.402039 629.453369,644.881348 628.157959,644.009033 
	C620.695984,638.983948 613.208374,633.991882 605.871887,628.787903 
	C603.337952,626.990479 601.459106,626.893066 598.763977,628.661194 
	C593.231384,632.290833 587.378845,635.432739 581.697876,638.752197 
	C581.931824,641.441833 583.869507,642.698120 585.244141,644.278198 
	C591.914551,651.945618 598.498291,659.695679 605.391174,667.159424 
	C609.346069,671.441895 605.545837,673.106812 603.242249,675.476135 
	C600.594177,678.199707 598.644287,677.491882 596.304260,674.768127 
	C588.378479,665.542725 580.106018,656.614136 572.227112,647.350098 
	C569.738159,644.423584 567.464172,643.968994 563.999756,645.264587 
	C559.196960,647.060730 554.192078,648.316711 548.532288,650.028137 
	C551.897278,658.019592 555.163208,665.782104 558.434387,673.542419 
	C560.892639,679.374390 563.208191,685.272583 565.864136,691.013245 
	C568.234070,696.135864 564.052002,696.282654 561.277832,697.737610 
	C558.244507,699.328552 556.267578,699.302673 554.761292,695.567322 
	C549.467834,682.440063 543.754700,669.481323 538.526611,656.329102 
	C537.102356,652.746094 535.081238,651.811279 531.684692,652.558289 
	C530.547241,652.808472 529.403931,653.074768 528.248901,653.195862 
	C519.063049,654.158752 519.063416,654.148499 519.070740,663.249268 
	C519.082886,678.248901 518.956665,693.250610 519.183411,708.246948 
	C519.255493,713.011902 517.259033,714.229431 512.901917,714.191223 
	C508.701080,714.154480 506.948090,712.842896 506.996124,708.394836 
	C507.170654,692.230530 506.913452,676.061462 507.103516,659.897522 
	C507.158844,655.190979 505.529022,653.416443 500.795502,653.238831 
	C489.315643,652.808167 489.332062,652.631409 484.836548,663.495972 
	C480.506622,673.960449 475.987732,684.351074 471.895782,694.907410 
	C470.334900,698.934143 468.484100,699.277832 464.779205,697.687744 
	C461.075287,696.098083 458.733398,694.873657 460.841980,690.143127 
	C465.654541,679.346375 470.046082,668.361877 474.591522,657.446472 
	C475.544128,655.158875 476.423004,652.840637 477.528687,650.049744 
	C471.108490,648.056458 464.984436,646.165222 458.867706,644.250610 
	C456.684875,643.567383 455.948425,645.366272 454.902283,646.549500 
	C446.736237,655.785889 438.491486,664.956116 430.506378,674.346924 
	C427.762054,677.574402 425.679535,678.150818 422.424042,675.018738 
	C419.580811,672.283264 417.693970,670.438782 421.305573,666.591492 
	C429.497681,657.864624 437.218201,648.695129 445.582794,639.191650 
	C438.416626,635.067383 431.597504,631.060059 424.684692,627.221497 
	C422.908997,626.235474 421.577057,627.899780 420.258789,628.809937 
	C412.992249,633.826904 405.662445,638.760864 398.555176,643.995972 
	C395.258972,646.424011 393.286438,645.673645 391.393097,642.467590 
	C389.708008,639.614075 387.171265,637.170593 391.696075,634.261658 
	C398.807648,629.689880 405.613312,624.642273 412.347321,619.936768 
	C412.036102,617.251953 410.201233,616.468262 408.821198,615.357300 
	C402.316956,610.121338 396.450439,604.205505 390.443420,598.430115 
	C387.757294,595.847534 387.944305,594.005676 390.508789,591.433655 
	C397.447693,584.474548 404.618439,577.786011 412.184418,571.926331 
	C412.297394,569.372131 410.455933,568.837158 409.178284,567.927124 
	C403.207336,563.674316 397.279633,559.351013 391.163605,555.314880 
	C386.625549,552.320068 390.186920,550.028076 391.485931,547.488831 
	C392.876404,544.770813 394.469604,543.239380 397.681244,545.518250 
	C405.017334,550.723572 412.594330,555.591858 419.882690,560.860962 
	C422.628784,562.846252 424.674377,562.829224 427.499115,561.026245 
	C432.948242,557.548279 438.675903,554.506592 444.190186,551.340210 
	C444.500580,548.906433 442.736755,547.871399 441.586792,546.550781 
	C434.802460,538.759827 428.167694,530.824219 421.077606,523.319824 
	C417.261780,519.281067 420.069824,517.435059 422.592194,514.867371 
	C425.261871,512.149719 427.292816,511.981140 429.929535,515.057068 
	C437.845184,524.291321 446.070770,533.259949 453.975555,542.503235 
	C456.224823,545.133362 458.220215,546.107117 461.661591,544.801147 
	C466.604858,542.925171 471.766113,541.623657 477.084015,540.000671 
	C476.323792,535.726135 474.314514,532.062744 472.770691,528.267944 
	C468.879791,518.703735 465.015472,509.117554 460.707703,499.738953 
	C458.645111,495.248383 460.777191,494.088562 464.282501,492.500214 
	C467.978516,490.825500 470.099884,490.650909 471.846954,495.071014 
	C476.804779,507.614380 482.277496,519.953430 487.327271,532.461792 
	C488.930389,536.432800 490.754059,537.936157 495.479340,537.078918 
	C506.916138,535.003906 506.962616,535.347229 506.966553,523.802246 
	C506.971283,509.802551 507.146423,495.800934 506.951813,481.804260 
	C506.883698,476.904999 508.832092,475.631775 513.481750,475.599335 
	C518.463257,475.564667 519.234131,477.846283 519.191650,482.039429 
	C519.029480,498.037506 519.283630,514.041199 518.993408,530.035706 
	C518.904114,534.958923 520.984070,536.417175 525.367859,536.678040 
	C536.604553,537.346497 536.585327,537.423828 540.922241,527.193787 
	C545.473022,516.459290 550.227661,505.806702 554.534302,494.975555 
	C556.149414,490.913544 558.141541,490.555939 561.690796,492.298706 
	C564.835876,493.843018 567.651367,494.650848 565.494934,499.458801 
	C560.385559,510.850708 555.846252,522.499390 551.142029,534.070862 
	C550.413879,535.861938 549.175171,537.584412 549.727173,540.013794 
	C555.302490,541.823181 560.951111,543.697144 566.628235,545.480469 
	C569.222046,546.295227 570.552307,544.408630 572.008850,542.762634 
	C579.628052,534.152710 587.280090,525.571716 594.920166,516.980225 
	C600.089294,511.167419 600.172729,511.154388 605.564941,516.657471 
	C606.359497,517.468323 606.997192,518.432922 607.987732,519.678955 
	C599.066589,529.893677 590.231079,540.010376 580.891602,550.704163 
	C586.062012,553.631897 590.753967,556.288757 595.753540,559.132324 
M513.427429,640.538574 
	C515.074036,640.299072 516.717224,640.033081 518.367676,639.824036 
	C544.614136,636.498962 562.811096,612.111084 557.534790,586.442932 
	C553.620911,567.402710 541.866333,554.914490 522.760620,550.710327 
	C504.136719,546.612183 488.249420,552.540771 476.827545,567.711487 
	C465.221130,583.127319 464.450867,600.149048 473.762970,616.988525 
	C482.070801,632.011841 495.632629,639.286133 513.427429,640.538574 
M568.222290,559.344299 
	C564.540649,558.096741 561.074280,556.085083 556.121216,555.867188 
	C565.980164,567.703918 571.086853,580.766663 570.891235,595.348694 
	C570.697388,609.801819 565.744141,622.848816 556.178406,634.111572 
	C558.344543,633.882629 560.082886,633.420715 561.778076,632.834290 
	C582.245850,625.753784 599.962769,614.169434 615.960510,599.755676 
	C620.968567,595.243530 621.052124,594.635071 616.061951,590.182983 
	C601.928040,577.573242 586.509644,566.932068 568.222290,559.344299 
M442.507385,622.948242 
	C451.117676,627.602173 459.910492,631.812561 470.837219,634.695496 
	C460.469604,622.649841 455.170380,609.684143 455.041138,595.130615 
	C454.910278,580.393616 460.169495,567.290833 469.641571,555.740479 
	C444.690613,563.061707 423.869415,576.643677 405.488647,594.846863 
	C406.746857,596.245056 407.546112,597.292480 408.501251,598.170227 
	C418.711578,607.553345 429.680603,615.906738 442.507385,622.948242 
z"/>
<path fill="#000000" opacity="1.000000" stroke="none" 
	d="
M740.000000,746.695312 
	C749.330872,746.696716 758.161682,746.696716 766.992554,746.699951 
	C775.100220,746.702942 778.074463,749.200134 780.074402,757.985229 
	C602.166565,757.985229 424.345581,757.985229 246.477066,757.985229 
	C247.680939,749.577148 250.858994,746.696899 258.635162,746.696838 
	C418.923431,746.695679 579.211731,746.695557 740.000000,746.695312 
z"/>
<path fill="#000000" opacity="1.000000" stroke="none" 
	d="
M491.200165,423.637146 
	C492.618134,420.352509 491.546295,418.466370 489.029419,416.611877 
	C480.490326,410.320038 472.119659,403.799622 463.800842,397.455109 
	C464.622650,395.148773 466.179352,395.750214 467.371185,395.708618 
	C476.683472,395.383789 485.997650,394.966553 495.312500,394.934082 
	C498.930542,394.921478 500.685974,393.545715 501.806091,390.216583 
	C505.136322,380.318970 508.713806,370.504608 512.252075,360.495178 
	C514.812622,361.264801 514.790222,363.292084 515.354553,364.871246 
	C518.432495,373.484772 521.567993,382.079773 524.479614,390.749664 
	C525.488953,393.755188 527.177063,394.863342 530.315918,394.899078 
	C539.299194,395.001404 548.279541,395.376892 557.260254,395.668854 
	C558.846680,395.720398 560.524597,395.388062 561.972046,396.286285 
	C561.880798,398.596954 560.039978,399.126038 558.811890,400.084686 
	C551.990967,405.408997 545.276001,410.894257 538.184998,415.836914 
	C534.475220,418.422729 533.906982,420.976776 535.296936,425.049561 
	C538.087341,433.226257 540.449097,441.550415 542.920959,449.833618 
	C543.329773,451.203339 544.228882,452.550171 543.636169,454.121643 
	C542.056396,454.994934 541.126099,453.757996 540.111023,453.051361 
	C532.598694,447.822327 524.964478,442.750641 517.682007,437.216980 
	C514.268921,434.623505 511.830475,434.851746 508.544128,437.310028 
	C501.618225,442.490936 494.407898,447.292297 487.298248,452.226227 
	C485.971802,453.146759 484.763153,454.360138 481.922424,454.626251 
	C485.080750,444.048889 488.076538,434.015869 491.200165,423.637146 
M524.695801,426.107300 
	C524.188416,424.350067 523.906860,422.484924 523.129089,420.856842 
	C521.190186,416.798401 522.261719,414.016052 526.055908,411.747620 
	C528.543274,410.260529 530.717773,408.249969 533.032410,406.473846 
	C529.446655,405.324280 526.169800,405.147339 522.920654,405.371338 
	C519.278198,405.622467 517.408691,404.065216 516.491516,400.616577 
	C515.711670,397.684509 514.470642,394.875092 513.009888,390.841125 
	C511.477692,395.123566 510.193420,398.017365 509.426422,401.042297 
	C508.570099,404.419403 506.651245,405.528320 503.301666,405.427979 
	C500.266052,405.337036 497.111633,404.861115 493.888489,405.985779 
	C495.600250,409.159637 498.415955,410.457916 500.828735,412.126404 
	C503.668701,414.090302 504.677765,416.188232 503.439972,419.695984 
	C502.391693,422.666748 500.985626,425.710846 501.145264,429.732483 
	C503.988190,427.728058 506.414154,426.274261 508.534302,424.462555 
	C511.706543,421.751740 514.526306,421.509216 517.656067,424.559784 
	C519.714539,426.566193 522.194946,428.097107 525.434814,429.326263 
	C525.135071,428.008209 524.992554,427.381531 524.695801,426.107300 
z"/>
<path fill="#000000" opacity="1.000000" stroke="none" 
	d="
M525.516785,590.592163 
	C531.001831,591.473572 534.182190,588.067871 537.493958,585.078247 
	C543.141907,593.208374 540.122620,607.586365 531.335022,615.421387 
	C520.820618,624.796082 505.293060,624.616760 494.431366,614.995300 
	C484.449677,606.153381 482.989502,590.537964 490.806183,579.018433 
	C497.096283,569.748596 512.031311,563.949890 522.909973,570.287781 
	C519.295776,574.049805 515.813049,578.053955 517.702759,583.727783 
	C518.878906,587.259277 521.530396,589.500183 525.516785,590.592163 
z"/>
</svg>