<svg version="1.1" id="Layer_1" xmlns="http://www.w3.org/2000/svg" xmlns:xlink="http://www.w3.org/1999/xlink" x="0px" y="0px"
	 width="100%" viewBox="0 0 1024 1024" enable-background="new 0 0 1024 1024" xml:space="preserve">
<path fill="#000000" opacity="1.000000" stroke="none" 
	d="
M547.087158,822.306030 
	C518.602844,824.669495 490.743530,823.488281 463.087952,818.341614 
	C425.334930,811.315857 390.258331,797.461487 357.702026,777.087280 
	C314.819031,750.250549 280.444702,715.062317 254.183777,671.917969 
	C234.219284,639.118103 221.429840,603.626160 214.586700,565.873352 
	C210.218674,541.775513 209.606033,517.451172 210.945267,493.196228 
	C213.818314,441.162201 229.649170,393.061035 257.281128,348.837616 
	C273.817688,322.371826 293.530151,298.587738 317.119171,278.152008 
	C357.697906,242.997604 404.063354,219.470352 456.833557,208.572906 
	C482.969421,203.175659 509.328979,201.393692 535.800659,202.927948 
	C586.310608,205.855438 633.635803,219.714523 677.115967,246.110580 
	C713.538757,268.222260 743.903503,296.748596 768.783875,331.226471 
	C774.146667,338.657898 771.276978,347.177307 763.027832,348.753448 
	C759.127563,349.498688 756.271423,347.620178 753.632385,345.186707 
	C746.162048,338.298492 738.670837,331.469086 730.515869,325.344849 
	C700.458374,302.772186 666.891602,288.362396 629.682800,283.579102 
	C565.555481,275.335327 507.925385,291.786713 458.244934,333.089874 
	C415.044006,369.006042 388.068848,415.008026 379.293579,470.862793 
	C369.725861,531.761597 382.653503,587.718567 418.528656,637.920837 
	C455.308899,689.389648 505.344452,720.523865 567.716980,730.300537 
	C628.055481,739.758362 682.531189,723.939209 731.389771,687.841003 
	C750.450073,673.758606 766.533203,656.747009 780.393372,637.585999 
	C782.828491,634.219543 785.515747,631.514771 790.132812,631.638000 
	C797.422852,631.832703 801.890991,638.377563 799.019531,645.303101 
	C795.698364,653.313232 791.444336,660.883728 786.996399,668.315491 
	C760.549500,712.503845 726.144104,749.048096 682.472534,776.602600 
	C644.879150,800.321960 603.942139,814.936462 559.971619,821.137634 
	C555.858948,821.717712 551.692871,821.919250 547.087158,822.306030 
M590.524414,264.657654 
	C630.527344,262.913727 668.417297,271.487518 704.611206,288.343018 
	C608.232300,201.478226 430.235077,185.069977 311.622742,307.469330 
	C190.804260,432.145325 199.840759,629.669495 337.582062,741.419189 
	C467.385193,846.728577 644.810852,817.494995 739.192444,704.284912 
	C731.713867,708.988342 725.129089,713.399841 718.295227,717.384216 
	C669.442200,745.867004 617.071411,756.347900 561.186035,746.888306 
	C520.171204,739.945862 483.133362,723.540955 450.876190,697.098633 
	C392.248322,649.039612 361.210876,587.070496 358.991821,511.208923 
	C358.164215,482.914703 362.604431,455.124420 371.918335,428.307861 
	C390.825104,373.871338 425.005615,331.389160 473.595795,300.674805 
	C508.928284,278.340790 547.657166,266.262329 590.524414,264.657654 
z"/>
</svg>