<svg version="1.1" id="Layer_1" xmlns="http://www.w3.org/2000/svg" xmlns:xlink="http://www.w3.org/1999/xlink" x="0px" y="0px"
	 width="100%" viewBox="0 0 1024 1024" enable-background="new 0 0 1024 1024" xml:space="preserve">
<path fill="#000000" opacity="1.000000" stroke="none" 
	d="
M529.000977,841.313232 
	C517.002502,840.002563 507.173767,843.289246 497.049316,849.279480 
	C473.365234,863.292358 447.144592,870.151428 419.734863,872.549805 
	C386.223572,875.482178 353.805634,871.611572 323.495605,856.303406 
	C281.958618,835.325073 257.898621,801.519714 253.153168,755.188477 
	C251.139847,735.531738 252.321701,715.614075 254.546310,695.841370 
	C257.605804,668.647888 262.479706,641.865540 271.420105,615.960876 
	C299.538788,534.487793 353.635254,477.111542 432.487915,442.785828 
	C447.908966,436.072815 463.583618,429.869415 477.833130,420.748352 
	C505.395020,403.106110 521.379761,378.023254 526.761841,345.775818 
	C529.852844,327.255188 531.019775,308.454620 535.493896,290.132141 
	C541.266235,266.493530 552.412354,246.098602 570.536133,229.711044 
	C573.885986,226.682129 575.767456,222.891296 577.272644,218.784531 
	C584.093018,200.175110 593.377869,182.965973 606.186646,167.737930 
	C609.964783,163.246262 614.203552,159.261063 618.828308,155.691879 
	C625.986084,150.167892 632.661072,152.132263 635.515625,160.682510 
	C637.622986,166.994736 639.393799,173.418716 641.380371,179.772324 
	C641.956238,181.614197 642.099121,183.718735 644.324585,185.268372 
	C647.399719,181.598785 650.441772,177.925049 653.531189,174.291702 
	C658.962158,167.904770 664.979492,162.162109 672.340820,158.031555 
	C679.961365,153.755554 685.884155,156.545883 687.211548,165.221024 
	C689.376587,179.370529 690.216003,193.661270 691.299194,207.922241 
	C691.551147,211.238480 692.100037,214.569443 691.956604,217.869492 
	C691.752075,222.576874 694.252380,224.360336 698.258301,225.974518 
	C709.497986,230.503464 719.542786,236.946777 727.676331,246.132050 
	C735.397766,254.851913 739.947449,265.098175 742.306885,276.362457 
	C744.641846,287.509369 750.631287,296.339661 760.644470,301.270874 
	C773.624878,307.663391 775.555664,316.722198 772.774536,330.550812 
	C766.593140,361.286560 747.460876,379.055145 716.998901,385.112854 
	C715.367615,385.437256 713.768188,385.927643 712.132751,386.223877 
	C695.929321,389.158539 692.402954,402.900543 693.739075,414.682831 
	C695.687012,431.859131 702.183472,447.847656 706.222229,464.472778 
	C717.028625,508.956818 710.610596,550.933716 688.613525,590.906616 
	C677.946655,610.290344 666.186584,629.161743 659.027954,650.319214 
	C651.673645,672.054565 647.771973,694.407898 646.135742,717.263123 
	C644.799377,735.929871 645.327271,754.504517 646.905701,773.122131 
	C647.318359,777.989136 649.709961,778.995422 653.731689,779.764954 
	C668.310608,782.554321 679.382141,789.937134 684.038940,804.746033 
	C689.981018,823.642212 677.352112,841.128906 657.496277,841.248230 
	C626.164978,841.436523 594.831848,841.305359 563.499451,841.309204 
	C552.166565,841.310608 540.833618,841.311462 529.000977,841.313232 
M688.986267,555.555420 
	C695.048584,538.605347 698.154846,521.077881 697.458557,503.137543 
	C696.811951,486.475067 693.700195,470.117401 688.817139,454.105865 
	C684.307129,439.317688 679.358521,424.614807 679.609375,408.804840 
	C679.903137,390.294586 690.093750,377.165863 708.114502,372.794983 
	C714.584351,371.225708 721.116455,369.912903 727.389221,367.620270 
	C747.202454,360.378662 757.178467,342.819061 759.659790,323.715332 
	C760.173889,319.757355 759.175781,316.504089 755.331482,314.487305 
	C740.476929,306.694550 731.917236,294.443420 728.444092,278.027832 
	C725.243652,262.901031 716.364502,251.644440 702.863892,243.908798 
	C686.331543,234.435989 668.395264,229.992386 649.617188,228.396561 
	C644.366577,227.950348 641.030762,225.621155 639.475464,220.405838 
	C635.669250,207.642654 631.644714,194.944427 627.680908,182.228516 
	C626.508606,178.467804 625.786072,174.535172 623.686768,170.778046 
	C619.305176,173.563065 616.243042,177.272995 613.367493,181.086746 
	C596.703674,203.186920 586.615601,228.147797 581.480225,255.208786 
	C580.169861,262.113800 578.217773,265.067108 574.128052,264.806641 
	C568.419617,264.443146 567.775208,259.968872 567.364502,254.528854 
	C558.830750,265.528992 553.615906,277.035889 550.210083,289.465790 
	C544.821533,309.132019 543.743286,329.502777 540.338562,349.493103 
	C534.270508,385.121124 516.309021,412.850708 485.820831,432.469055 
	C468.464325,443.637482 449.068176,450.496887 430.529022,459.160522 
	C391.270477,477.506622 357.284912,502.653564 330.167511,536.655090 
	C307.653198,564.884827 291.825684,596.639526 281.355316,631.098999 
	C273.580902,656.685791 269.509705,682.979492 267.422974,709.574097 
	C266.159180,725.680969 265.130157,741.893860 267.638000,757.942932 
	C274.971985,804.877136 302.827148,834.881042 346.544617,850.628967 
	C382.067749,863.425171 418.217041,861.791992 454.175629,852.000427 
	C482.415009,844.310913 507.426239,830.806946 526.856689,808.470032 
	C545.003418,787.609131 554.943420,763.878418 550.748718,735.491211 
	C546.763367,708.520996 524.586853,688.743652 495.955902,693.452454 
	C487.957397,694.767944 480.406769,697.634521 475.837738,705.105225 
	C472.623474,710.360901 473.165985,717.281311 476.877991,721.959656 
	C480.266174,726.229858 485.332031,727.382874 491.771820,725.371948 
	C492.882324,725.025146 494.007874,724.715454 495.142151,724.457397 
	C505.850555,722.021118 516.220154,728.138794 519.356628,738.577393 
	C521.753418,746.554138 520.969666,754.405151 518.558289,762.147705 
	C511.824402,783.769836 496.549316,797.918640 477.167236,807.996521 
	C448.471527,822.917114 417.800018,827.220276 385.960968,822.949097 
	C367.428528,820.462891 350.029877,814.436768 334.694580,803.311157 
	C325.250031,796.459290 317.511444,788.056946 311.844147,777.844421 
	C309.565430,773.738159 310.477631,769.720886 313.761719,767.690796 
	C317.267303,765.523682 321.112335,766.515747 323.469910,770.653198 
	C333.069214,787.499695 347.956024,797.669373 365.804321,803.769714 
	C390.909149,812.350281 416.419647,812.597229 442.092041,806.341187 
	C458.492798,802.344604 473.730011,795.822571 486.744934,784.903748 
	C497.672699,775.735840 505.524963,764.488342 506.677429,749.813293 
	C507.507782,739.239990 503.750793,736.525146 493.478668,739.440857 
	C485.251160,741.776184 477.634003,740.639465 470.744934,735.517883 
	C455.949066,724.518066 455.995850,702.203796 470.797211,689.964050 
	C492.601593,671.933228 527.969055,675.664185 548.092651,697.987976 
	C556.782471,707.627869 561.586975,719.134033 564.679382,731.547729 
	C565.785950,731.096741 565.575989,730.351501 565.622253,729.742859 
	C566.719055,715.309021 563.526428,701.558655 558.472900,688.233459 
	C542.896118,647.160522 514.773621,620.899109 470.269897,614.213196 
	C465.660950,613.520752 462.815063,610.427673 463.116364,606.682251 
	C463.429688,602.787415 466.396088,600.629517 471.410736,600.692688 
	C472.574219,600.707336 473.752075,600.743530 474.896606,600.932190 
	C511.376801,606.943359 539.456787,625.551819 558.944946,657.028259 
	C559.916809,658.597961 560.898560,660.161438 562.311340,662.426147 
	C562.612610,660.816040 562.746338,660.333557 562.788452,659.843262 
	C564.769958,636.743164 570.117004,614.546753 580.526611,593.707825 
	C583.153320,588.449341 586.350281,586.706970 590.172913,588.442505 
	C594.316956,590.323975 595.316345,594.257385 592.805298,599.489929 
	C576.545410,633.371399 573.122437,668.940552 578.795288,705.706238 
	C580.798035,718.686279 580.911865,731.715637 577.413452,744.357361 
	C570.572815,769.077026 555.372192,789.602051 542.607300,811.321350 
	C541.109558,813.869812 538.839600,815.972778 536.874817,818.236450 
	C534.342468,821.153992 531.756897,824.025269 528.522644,827.674255 
	C536.704590,827.674255 543.699524,827.455750 550.672485,827.752808 
	C555.154358,827.943665 558.824341,826.604919 562.114563,823.773621 
	C583.015381,805.787781 595.339233,783.257812 597.661926,755.647766 
	C598.903381,740.890442 597.698853,726.386658 591.539551,712.579651 
	C589.496643,708.000183 591.381287,703.864624 595.490112,703.013367 
	C599.994629,702.080261 602.314392,704.965027 603.781494,708.582153 
	C608.069214,719.153259 610.744385,730.173767 611.204712,741.552429 
	C612.474792,772.947021 602.651978,800.507263 581.856384,824.115845 
	C581.127808,824.942993 579.937744,825.535034 580.212952,827.099609 
	C580.590698,827.249268 581.024719,827.571289 581.459106,827.571777 
	C606.624390,827.599426 631.797791,827.979980 656.951660,827.446411 
	C669.825989,827.173340 675.469177,814.917786 668.538147,804.019714 
	C665.950623,799.951233 662.352173,797.098267 657.914856,795.261475 
	C654.190796,793.719849 650.263855,792.955261 646.313354,792.382202 
	C636.723816,790.991150 634.764587,788.951843 633.725098,779.539795 
	C630.918091,754.124268 630.895935,728.751160 633.536560,703.284912 
	C636.837708,671.448364 644.982544,641.208496 660.311218,612.959351 
	C670.391357,594.382812 681.643250,576.372559 688.986267,555.555420 
M656.176819,193.653381 
	C654.388733,196.049728 652.499329,198.377975 650.833923,200.856720 
	C647.485291,205.840607 651.006714,213.924484 656.866089,214.978195 
	C662.253113,215.946976 667.703064,216.705078 672.979431,218.105453 
	C677.232117,219.234131 677.963379,217.508789 677.702942,213.927109 
	C677.281616,208.134216 677.318604,202.289108 676.567261,196.543854 
	C675.606506,189.197632 676.307129,181.665604 674.105896,173.848206 
	C666.788391,179.304245 661.868774,186.354462 656.176819,193.653381 
z"/>
</svg>