<svg version="1.1" id="Layer_1" xmlns="http://www.w3.org/2000/svg" xmlns:xlink="http://www.w3.org/1999/xlink" x="0px" y="0px"
	 width="100%" viewBox="0 0 1024 1024" enable-background="new 0 0 1024 1024" xml:space="preserve">
<path fill="#000000" opacity="1.000000" stroke="none" 
	d="
M446.945862,743.898132 
	C434.388397,763.108826 423.348999,782.608337 418.872437,805.140442 
	C416.485107,817.156860 415.554016,829.167175 417.988556,841.286865 
	C420.128204,851.938538 416.142944,855.923340 405.207825,854.026184 
	C376.906036,849.115906 350.009308,840.119385 325.130371,825.650879 
	C274.371368,796.131531 235.789474,755.025635 209.125381,702.739746 
	C204.109741,692.904480 206.459473,689.242249 217.451813,687.513794 
	C237.203125,684.408020 255.001160,676.403503 271.439209,665.115295 
	C287.887573,653.820007 301.878510,639.744568 316.125488,625.971558 
	C338.821350,604.030884 365.199097,588.939026 396.177460,582.263367 
	C405.774811,580.195251 415.531860,579.364990 426.319214,579.708130 
	C422.538849,575.120361 418.964355,570.731689 423.606598,566.093079 
	C429.742157,559.962219 434.354462,566.573547 439.815002,569.405701 
	C440.795990,564.584290 441.651764,560.250244 442.562653,555.927856 
	C444.464905,546.901550 447.734772,538.384338 452.101471,530.266846 
	C456.853271,521.433533 464.636841,518.472351 473.942413,522.055359 
	C475.184174,522.533508 476.398865,523.091248 477.596741,523.672546 
	C485.709686,527.609863 485.607697,527.530945 491.378540,520.708069 
	C503.750061,506.081268 515.774353,491.122742 528.796631,477.094513 
	C543.184387,461.595367 553.819519,443.954346 562.444275,424.854645 
	C566.761902,415.293030 571.287231,405.815582 576.032715,396.459351 
	C580.823669,387.013275 584.236267,377.198608 585.558716,366.674438 
	C587.228333,353.387512 595.702209,345.614960 607.357178,341.067322 
	C617.573669,337.080933 626.696777,331.813293 634.834900,324.345551 
	C683.170593,279.991638 726.907288,231.278595 770.189514,182.129150 
	C775.673279,175.902054 781.485840,170.810562 790.571533,171.635620 
	C793.625854,171.913010 796.593872,172.416779 799.128784,174.056717 
	C806.490234,178.819077 812.808533,184.760635 817.228027,192.370621 
	C821.679016,200.034729 820.049683,208.820816 813.241089,215.638840 
	C790.751465,238.159821 768.228333,260.647339 745.693298,283.122833 
	C737.069275,291.724030 728.740295,300.489624 722.624634,311.220123 
	C719.222900,317.188751 713.875061,321.688110 708.322144,325.726929 
	C687.262268,341.044403 668.044189,358.529419 648.790283,375.985504 
	C637.146423,386.542145 628.098206,398.948975 621.218018,413.033142 
	C616.026611,423.660126 610.662720,434.202698 605.395935,444.792999 
	C602.035217,451.550690 600.014160,458.754913 598.362488,466.082123 
	C596.739502,473.281677 593.357117,479.557343 587.734131,484.347015 
	C566.303467,502.601837 549.280823,524.941956 530.584229,545.729919 
	C527.911377,548.701721 525.459473,551.879456 522.691223,554.755920 
	C520.505920,557.026733 520.463318,558.818176 522.712524,561.085938 
	C524.453796,562.841614 525.880127,564.953003 527.230225,567.045776 
	C533.613159,576.939880 531.926636,585.848755 522.081726,592.454224 
	C512.625671,598.798889 502.436066,603.692200 491.287781,606.383057 
	C489.560577,606.799988 487.846436,607.270996 486.040649,607.739197 
	C486.817505,610.352478 488.972839,611.209534 490.516846,612.615417 
	C494.699036,616.423523 495.445251,620.364075 492.567047,623.955078 
	C489.985107,627.176453 486.011200,627.278625 481.434082,624.256836 
	C480.763153,623.813904 480.053009,623.430481 478.648193,622.596252 
	C478.805237,629.063660 480.164093,634.799988 480.483154,640.616211 
	C481.567535,660.382751 478.197052,679.359863 471.596924,697.902771 
	C465.735107,714.371521 456.854553,729.200806 446.945862,743.898132 
M465.883148,644.528687 
	C466.034241,634.432495 463.917297,624.744873 461.042664,615.114624 
	C457.595490,603.566467 449.845062,597.348511 438.231384,595.588989 
	C434.124817,594.966858 429.961609,594.459473 425.816345,594.393250 
	C393.645691,593.879211 365.601379,605.235657 340.400055,624.499390 
	C324.614563,636.565735 311.579498,651.670349 296.440399,664.478516 
	C276.845764,681.056274 255.390976,693.987305 230.253586,700.201965 
	C228.689438,700.588684 226.937134,700.613708 225.538025,702.728333 
	C250.025284,746.610718 283.210724,782.544922 326.164276,809.128540 
	C349.467865,823.550964 374.710602,833.316772 402.160583,838.365723 
	C400.505524,812.150696 405.603271,788.228027 417.087616,765.607178 
	C423.964905,752.060913 432.210999,739.364990 440.506592,726.678528 
	C456.620331,702.035767 466.352722,675.360291 465.883148,644.528687 
M649.743896,330.246704 
	C639.240479,342.429138 625.903503,350.312622 611.046265,355.983856 
	C604.652039,358.424622 600.696960,362.936584 600.006531,370.075104 
	C599.035095,380.118866 595.989929,389.519470 591.458069,398.581573 
	C583.189392,415.116302 575.288391,431.835663 567.300903,448.510071 
	C563.251343,456.963684 558.533997,464.992157 552.454102,472.143982 
	C542.096680,484.327393 531.623962,496.412659 521.244080,508.576996 
	C513.373047,517.801147 505.570953,527.084106 497.482452,536.643066 
	C500.271057,539.114624 502.982758,541.084839 505.147430,543.537842 
	C508.407410,547.231995 510.619263,546.237488 513.436584,542.906860 
	C521.397705,533.495178 529.541748,524.233826 537.770996,515.054260 
	C549.665344,501.786530 560.829651,487.785675 574.588135,476.332153 
	C579.849548,471.952240 583.354004,466.907501 584.744751,460.260468 
	C586.180115,453.399841 588.116211,446.679657 591.254333,440.378784 
	C598.234497,426.363586 605.168274,412.323700 612.319763,398.395996 
	C616.831604,389.609039 622.478638,381.551758 629.524231,374.575958 
	C650.380493,353.926331 672.172791,334.336578 695.621277,316.643982 
	C702.976257,311.094452 709.808655,305.170502 714.203125,296.768341 
	C716.591614,292.201599 720.167236,288.350433 723.782227,284.640900 
	C747.508057,260.294952 771.111572,235.820480 795.657410,212.298096 
	C806.833374,201.588196 809.037964,202.166245 794.187683,188.871979 
	C790.137878,185.246597 787.115234,185.547714 783.415955,189.618942 
	C776.806396,196.893173 770.348755,204.305328 763.745178,211.585037 
	C743.599365,233.793259 724.401062,256.879852 703.330200,278.223083 
	C686.009888,295.767365 667.979187,312.610352 649.743896,330.246704 
M510.623322,582.085083 
	C516.547852,578.636719 517.007080,577.775146 513.723633,573.629028 
	C501.904694,558.704773 487.552673,546.696045 471.155640,537.058594 
	C467.805969,535.089783 465.811005,535.720459 464.074707,539.169067 
	C459.614441,548.028076 456.337616,557.299927 455.425140,567.149658 
	C453.525360,587.656616 464.982727,597.376404 485.184357,592.752930 
	C494.027588,590.728943 502.226959,587.105896 510.623322,582.085083 
z"/>
</svg>