<svg version="1.1" id="Layer_1" xmlns="http://www.w3.org/2000/svg" xmlns:xlink="http://www.w3.org/1999/xlink" x="0px" y="0px"
	 width="100%" viewBox="0 0 1024 1024" enable-background="new 0 0 1024 1024" xml:space="preserve">
<path fill="#000000" opacity="1.000000" stroke="none" 
	d="
M422.612366,217.512985 
	C405.100677,260.064850 387.805176,302.290253 370.299255,344.428284 
	C368.625916,348.456085 369.160278,350.973999 372.130676,354.046387 
	C396.106384,378.845032 419.922577,403.797882 443.805939,428.685944 
	C444.696899,429.614380 445.471863,430.793427 446.963470,430.957764 
	C448.191925,430.375580 448.325317,429.132965 448.644806,428.063599 
	C452.199280,416.166443 458.168945,405.725983 467.318512,397.238251 
	C469.146027,395.542969 469.408508,393.954803 468.695221,391.517700 
	C464.367340,376.730225 467.114807,363.206757 476.566376,351.068298 
	C480.226501,346.367645 484.869232,345.388672 488.658325,348.344849 
	C492.177704,351.090607 492.289978,355.591827 488.957825,360.352753 
	C482.317200,369.840790 480.720581,377.613312 484.083984,385.339233 
	C503.322174,376.991394 522.717285,377.153046 542.541321,385.580078 
	C544.776367,379.125183 543.898987,373.223633 541.475525,367.531067 
	C540.317627,364.811340 538.434082,362.389526 536.794678,359.888184 
	C533.791748,355.306549 534.096252,351.137390 537.715759,348.352173 
	C541.365662,345.543549 545.672974,346.188843 549.060364,350.429993 
	C558.634460,362.417175 561.587524,375.919342 557.776855,390.809753 
	C557.186218,393.117584 556.456482,395.047302 558.665649,397.131226 
	C568.355408,406.271454 574.787720,417.387787 578.118042,430.295044 
	C578.230286,430.729950 578.552185,431.110809 578.995605,431.914001 
	C597.374329,412.791595 615.579041,393.836121 633.801331,374.897583 
	C640.849182,367.572754 647.857666,360.206848 655.051208,353.027100 
	C657.433105,350.649811 657.625122,348.580261 656.357178,345.516998 
	C635.529175,295.195435 614.816772,244.826050 594.084900,194.464676 
	C593.387573,192.770798 592.622070,191.087250 592.125977,189.331711 
	C590.872742,184.896271 592.789612,181.032318 596.799255,179.626953 
	C600.610840,178.291000 604.373718,179.844788 606.219788,183.994232 
	C609.467346,191.294098 612.481018,198.698868 615.541870,206.080750 
	C634.868774,252.691177 654.126892,299.330292 673.572510,345.891113 
	C675.862549,351.374512 674.613159,355.223175 670.681580,359.302521 
	C641.888245,389.177795 613.251648,419.204010 584.504272,449.123718 
	C581.507996,452.242188 579.260925,455.459625 579.802063,460.074615 
	C582.273926,461.082947 584.114807,459.578217 585.983704,458.766541 
	C621.737000,443.238312 657.439575,427.592743 693.236572,412.166168 
	C697.188293,410.463196 699.099182,408.078186 700.194458,403.988831 
	C713.279846,355.132172 726.536377,306.321381 739.738342,257.495941 
	C741.163940,252.223633 744.560669,249.774475 749.127319,250.808258 
	C753.655518,251.833344 755.832947,256.363403 754.325867,262.021545 
	C745.247742,296.101624 736.134216,330.172272 727.020691,364.242920 
	C722.806824,379.996338 718.326294,395.683868 714.452515,411.520142 
	C712.831726,418.145996 709.404358,422.115601 703.149231,424.808350 
	C661.231506,442.853149 619.426086,461.158844 577.583984,479.379333 
	C575.029114,480.491882 572.206238,481.335999 571.953674,484.829102 
	C573.522461,486.196472 575.267517,485.657410 576.847961,485.640686 
	C600.515503,485.390320 624.168396,485.996704 647.754883,487.850861 
	C665.988464,489.284241 684.191895,491.173950 702.227722,494.464020 
	C707.246399,495.379517 710.177856,497.727478 712.059143,502.380280 
	C729.039001,544.375793 746.146423,586.319885 763.198547,628.286194 
	C772.853088,652.046448 782.458313,675.826721 792.129395,699.580261 
	C793.413208,702.733398 793.712891,705.634949 791.378479,708.468384 
	C789.359253,710.919312 786.788818,711.718140 783.795654,711.226440 
	C780.452881,710.677368 778.780640,708.283447 777.597046,705.345215 
	C770.378174,687.425476 763.149414,669.509644 755.880676,651.610046 
	C743.034607,619.976013 730.152710,588.356567 717.295471,556.727051 
	C711.463257,542.379517 705.586121,528.049377 699.892700,513.646790 
	C698.781738,510.836395 697.288330,509.552734 694.211365,509.047546 
	C672.177673,505.429657 650.013672,503.302887 627.716675,502.195404 
	C611.743469,501.402008 595.781860,501.210083 578.958557,501.314453 
	C583.017700,505.755096 586.608459,509.269470 592.013306,510.742493 
	C614.034363,516.744202 634.942017,525.330261 653.355896,539.069580 
	C675.891418,555.884216 691.696411,577.170837 696.896240,605.508545 
	C699.577393,620.119873 697.426270,634.392517 694.815369,648.622986 
	C687.279846,689.693176 671.241638,727.989380 655.734070,766.428589 
	C646.014343,790.521301 635.940979,814.471375 626.020874,838.483215 
	C625.448669,839.868103 624.942993,841.298035 624.208435,842.594849 
	C622.070190,846.369812 618.913025,848.119690 614.600220,846.717468 
	C610.693176,845.447266 608.607056,841.296631 610.085693,836.913147 
	C612.106140,830.923401 614.492371,825.046448 616.943359,819.214172 
	C632.041992,783.285767 647.080566,747.330261 660.786926,710.843201 
	C669.987183,686.351562 677.760010,661.414612 681.461304,635.410095 
	C686.802185,597.886658 670.974487,570.178223 640.929749,549.327209 
	C630.240479,541.908936 618.700439,536.029968 605.215881,531.411621 
	C609.363831,539.381653 613.370178,546.245361 615.945801,553.705078 
	C634.353882,607.021851 630.156799,657.484558 594.998413,703.021362 
	C577.384216,725.835083 554.009705,740.668091 524.747375,743.937927 
	C494.628448,747.303467 468.073700,738.433655 445.486084,718.224609 
	C420.343964,695.729919 406.423126,667.355774 401.570435,634.137451 
	C396.276398,597.898010 402.506409,563.943237 420.955872,531.665588 
	C414.518921,532.856262 409.206696,535.845337 403.852142,538.522034 
	C385.916840,547.487732 369.619873,558.620911 358.098724,575.493713 
	C344.178650,595.879639 341.124939,618.119934 345.680115,642.249451 
	C352.931610,680.661743 367.072479,716.716797 381.670532,752.662292 
	C391.821625,777.657715 402.260437,802.536194 412.538666,827.480103 
	C413.806213,830.556396 415.093475,833.653442 415.985840,836.848633 
	C417.294525,841.534485 415.494598,845.197021 411.540375,846.694153 
	C407.656189,848.164734 403.869781,846.588928 401.864838,842.039490 
	C397.835510,832.896545 394.056061,823.642090 390.260101,814.398071 
	C379.948792,789.287781 369.481689,764.238892 359.449738,739.017151 
	C347.134460,708.054626 336.407867,676.648499 330.295563,643.690613 
	C321.999115,598.955627 338.278351,564.865479 373.653717,538.544617 
	C390.829773,525.764832 410.278290,517.415588 430.832336,511.797424 
	C437.243561,510.044983 442.330933,506.955841 446.944031,501.474487 
	C435.780884,501.474487 425.034271,501.069092 414.329437,501.565125 
	C396.208252,502.404755 378.049408,502.918579 360.029510,505.288086 
	C350.795563,506.502289 341.590698,507.959015 332.338104,508.998749 
	C329.061035,509.367035 327.453369,510.740692 326.239899,513.754822 
	C308.948578,556.704895 291.549072,599.611450 274.151733,642.518738 
	C265.766113,663.200317 257.332642,683.862427 248.914810,704.530945 
	C247.701172,707.510803 246.365753,710.386230 242.769562,711.184326 
	C236.505936,712.574341 231.425201,707.079224 233.747177,700.917297 
	C238.385391,688.608765 243.366898,676.427917 248.310562,664.236450 
	C266.648163,619.014648 285.023041,573.807983 303.395996,528.600525 
	C307.094238,519.500854 310.919617,510.452179 314.537476,501.320984 
	C316.121918,497.321991 318.921722,495.335358 323.074829,494.642273 
	C343.437378,491.244202 363.921997,489.065552 384.514801,487.579468 
	C406.639313,485.982849 428.773865,485.586517 450.934265,485.650299 
	C451.896118,485.653076 452.858612,485.434082 453.954132,485.302399 
	C454.030701,482.020020 451.937195,480.882202 449.578552,479.856323 
	C417.043579,465.705109 384.517456,451.533508 351.990479,437.363892 
	C341.759796,432.907166 331.565643,428.364349 321.289520,424.015137 
	C316.640289,422.047455 313.936371,418.926178 312.605713,413.931030 
	C299.198151,363.600525 285.612732,313.317505 272.119080,263.009888 
	C270.211975,255.899719 272.603973,251.181610 278.154144,250.719635 
	C282.778625,250.334717 285.186615,252.792862 286.335480,257.052094 
	C295.953552,292.709900 305.612885,328.356537 315.257446,364.007202 
	C318.992889,377.815155 322.751892,391.616821 326.428741,405.440369 
	C327.156830,408.177704 328.411194,410.110931 331.183777,411.313751 
	C368.621918,427.555389 406.020142,443.889069 443.432709,460.189819 
	C444.174896,460.513214 444.970215,460.714630 446.113068,461.097778 
	C446.997528,456.157715 445.053467,452.708008 441.937805,449.467529 
	C418.376709,424.962311 394.877319,400.397766 371.359131,375.851257 
	C365.825439,370.075592 360.368225,364.224060 354.733582,358.548645 
	C351.253876,355.043732 350.538879,351.386169 352.455963,346.768097 
	C374.739868,293.088470 396.927277,239.368774 419.166168,185.670441 
	C421.481842,180.078918 425.624359,177.883194 429.982239,179.732162 
	C434.212524,181.526993 435.508362,185.594452 433.293182,191.247330 
	C429.891724,199.927277 426.288147,208.528000 422.612366,217.512985 
M430.206055,547.702332 
	C403.708405,599.821777 412.279114,661.986450 451.721405,702.366577 
	C468.920502,719.974609 489.876221,730.021301 514.634521,729.343811 
	C540.605103,728.633179 562.291443,717.365051 579.140869,697.728333 
	C605.233643,667.318909 615.112244,631.733765 609.773499,592.272217 
	C604.515686,553.408447 586.976929,522.014893 551.610413,502.327271 
	C545.760315,499.070709 544.919250,492.453217 549.617371,487.534332 
	C563.145569,473.370300 566.869263,456.547150 563.768982,437.685822 
	C558.371643,404.849335 522.894531,385.489655 492.544983,398.873108 
	C459.564331,413.416840 450.419861,459.278015 475.219116,485.765625 
	C481.703705,492.691742 481.003815,498.712006 473.036652,503.133484 
	C454.410431,513.470276 440.650421,528.483704 430.206055,547.702332 
z"/>
</svg>