<svg version="1.1" id="Layer_1" xmlns="http://www.w3.org/2000/svg" xmlns:xlink="http://www.w3.org/1999/xlink" x="0px" y="0px"
	 width="100%" viewBox="0 0 1024 1024" enable-background="new 0 0 1024 1024" xml:space="preserve">
<path fill="#000000" opacity="1.000000" stroke="none" 
	d="
M564.978271,827.998169 
	C559.102966,832.752441 558.911194,839.752014 564.196655,843.987122 
	C569.684631,848.384583 571.810913,854.396912 571.954712,861.146973 
	C572.052368,865.730896 569.510864,868.234436 564.829407,868.310547 
	C556.498657,868.446045 548.164062,868.342041 539.831116,868.354553 
	C535.255127,868.361450 532.291321,865.852051 531.859314,861.622070 
	C530.372803,847.064697 528.936829,832.466125 530.830566,817.824341 
	C531.274536,814.391418 533.181946,811.666870 535.734497,809.347229 
	C540.727539,804.809814 542.266663,799.248169 541.043884,792.610352 
	C539.098511,782.050232 538.609131,771.460754 542.041016,761.233948 
	C540.606262,759.836487 539.078369,759.723572 537.650330,759.350891 
	C521.149414,755.045349 510.417358,744.596863 505.038727,728.547424 
	C503.206635,723.080688 504.526581,719.257080 508.366943,718.058105 
	C511.986511,716.928162 514.723755,719.119141 516.613831,724.659180 
	C521.434326,738.788696 533.707153,747.908630 547.117615,747.773987 
	C551.000610,747.734924 553.197266,745.394592 555.640625,743.247253 
	C557.405640,741.695984 555.922485,740.171204 554.949890,738.892822 
	C551.519714,734.383911 548.259094,729.712952 544.491333,725.499512 
	C528.206421,707.288391 517.506775,686.018982 509.654022,663.111877 
	C506.685120,654.451294 503.457642,645.878418 500.270294,637.294434 
	C499.597656,635.482849 499.309143,633.385193 497.225159,632.036255 
	C494.421906,634.693298 492.749786,638.168640 490.574738,641.252136 
	C482.699890,652.416260 475.114319,663.793152 466.971710,674.757202 
	C459.377563,684.982727 454.334991,695.789734 452.734039,708.749634 
	C449.636688,733.822388 438.219757,755.970093 426.108551,777.741943 
	C421.899902,785.307617 418.195312,793.152649 414.213593,800.845764 
	C408.947266,811.020752 406.187592,821.944885 404.311096,833.162109 
	C403.540955,837.765869 402.198425,842.245850 400.332214,846.532959 
	C396.330902,855.725098 388.606384,859.996094 379.229095,856.650330 
	C354.142303,847.699463 329.002197,838.807190 304.860840,827.447449 
	C297.851318,824.149048 296.724304,819.405518 300.649841,812.724426 
	C306.124359,803.407227 314.935974,800.993164 324.741089,802.142944 
	C335.642731,803.421326 346.298828,802.866211 357.015869,800.795959 
	C361.268097,799.974487 363.635010,798.132690 364.861572,793.782959 
	C371.820648,769.104492 376.774933,743.958679 382.613831,719.020508 
	C386.139923,703.960510 389.442993,688.847107 393.082764,673.815002 
	C397.854431,654.108215 407.396759,636.197449 414.649445,617.422913 
	C415.837738,614.346741 417.660980,611.475220 417.916779,608.113342 
	C416.769531,606.423279 415.023438,606.529541 413.415680,606.261841 
	C404.546600,604.784973 403.177124,602.755066 405.323761,594.212036 
	C409.905029,575.980225 414.512451,557.754944 419.086487,539.521240 
	C422.729584,524.998535 426.210419,510.433258 430.050201,495.963013 
	C431.065521,492.136780 430.389954,489.928436 427.039551,487.644073 
	C404.526428,472.294556 384.446991,453.991333 364.516479,435.525696 
	C362.421295,433.584534 360.470886,431.495239 361.118958,428.199554 
	C361.578552,425.862579 359.586884,425.434814 358.131439,424.884979 
	C351.651459,422.436890 345.735626,419.117004 341.000244,413.984070 
	C338.786957,411.584961 336.593658,412.511658 334.200500,413.521332 
	C316.552612,420.966766 298.888275,428.373322 281.225189,435.782684 
	C279.398499,436.548981 277.609833,437.613464 275.495300,436.841248 
	C272.974823,435.920746 271.146179,434.315155 270.781586,431.541718 
	C270.350983,428.265747 272.004974,426.089294 274.882385,424.849640 
	C282.836609,421.422760 290.818054,418.058685 298.800171,414.696960 
	C308.010437,410.817993 317.204742,406.898651 326.466614,403.146362 
	C329.389404,401.962219 330.725739,400.565002 329.588348,397.182861 
	C327.312408,390.415283 328.952820,384.214600 333.731781,379.131378 
	C340.701202,371.718140 348.964325,366.072571 359.082306,364.004944 
	C369.295532,361.917908 377.420258,366.121033 383.632812,373.969208 
	C386.074554,377.053894 388.030670,377.296295 391.538116,375.798492 
	C419.263824,363.958282 447.094757,352.364777 474.876190,340.654694 
	C483.303223,337.102631 489.427704,325.490417 487.957794,316.399200 
	C487.571106,314.007507 486.586700,313.550049 484.259735,313.763245 
	C468.488464,315.208252 459.161652,309.811829 455.352264,294.771667 
	C446.309570,259.069611 447.819458,224.541855 471.347015,194.020187 
	C488.285980,172.045685 511.052216,160.144455 538.754395,157.603943 
	C551.789124,156.408554 564.319336,158.405563 576.517334,162.776718 
	C601.554138,171.748688 617.155334,189.278580 623.159058,215.165634 
	C624.087219,219.167740 625.512329,221.771652 629.472351,223.731491 
	C639.394592,228.642075 642.924011,240.277908 638.143799,250.221878 
	C633.507874,259.865509 621.804871,264.152954 611.775635,259.881927 
	C601.872437,255.664566 596.807251,244.143311 600.996826,234.096909 
	C602.486938,230.523422 601.516724,228.562775 599.105225,226.336731 
	C595.486145,222.996033 591.321289,220.597275 586.719299,219.004700 
	C580.343811,216.798370 575.057861,219.249268 572.570251,225.500473 
	C571.148132,229.074219 570.819336,232.934494 569.949646,236.650864 
	C566.294434,252.270645 561.392456,267.453033 553.120728,281.345459 
	C547.780701,290.314148 547.192505,299.813232 549.862671,310.598724 
	C589.418091,294.609985 628.660950,278.747559 668.696289,262.564819 
	C662.774414,258.206360 657.973206,254.234802 654.868103,248.523087 
	C652.488159,244.145416 651.491394,239.485474 651.021179,234.679245 
	C650.594299,230.316391 652.929077,227.999786 657.493103,227.644913 
	C667.108276,226.897278 676.013794,228.967957 683.638489,234.347733 
	C685.486145,234.008209 685.890259,232.801346 686.430237,231.821304 
	C691.015015,223.499878 698.226257,218.405975 706.906006,215.148193 
	C714.136963,212.434204 717.586365,214.767929 718.375549,222.377655 
	C719.089539,229.261841 718.459595,235.961380 716.384949,242.538910 
	C718.516235,243.920242 720.087708,242.535904 721.667786,241.919571 
	C729.736145,238.772614 737.744690,235.471664 745.827026,232.362000 
	C749.477295,230.957596 752.877197,231.448410 754.825623,235.242416 
	C756.536316,238.573807 754.733398,241.959305 750.511292,244.004898 
	C749.762634,244.367599 748.982239,244.666931 748.208252,244.974686 
	C736.446350,249.651627 724.682495,254.323593 712.920776,259.000977 
	C711.243652,259.667908 709.391785,260.033722 707.886292,262.082458 
	C714.842468,267.441010 721.354187,273.301086 726.890259,280.165100 
	C735.533203,290.881378 742.176208,302.443665 742.307922,316.704346 
	C742.512390,338.839600 729.210815,355.699951 707.664551,360.792969 
	C685.109070,366.124481 662.698730,355.242676 655.111206,335.018188 
	C650.466248,322.637329 652.270142,310.433563 657.153931,298.519806 
	C660.173523,291.153778 664.151245,284.263092 667.750366,276.630341 
	C631.420288,291.270172 595.090210,305.910034 558.666626,320.587555 
	C559.055542,321.595673 559.095581,322.199615 559.414612,322.454590 
	C573.377258,333.615936 581.836121,348.600647 589.006836,364.561218 
	C600.343262,389.793976 610.618469,415.439789 619.896606,441.499481 
	C624.708374,455.014252 623.352295,467.555573 615.444519,479.568420 
	C608.820740,489.630554 601.063538,498.767456 593.025818,507.661011 
	C590.066895,510.935028 588.955688,513.863403 589.948242,518.377930 
	C596.054199,546.149170 601.828125,573.993469 607.716248,601.812683 
	C609.214905,608.893250 607.010620,611.856873 599.784424,612.172729 
	C594.459106,612.405640 589.121765,612.360291 583.795776,612.582825 
	C580.712158,612.711609 578.924194,613.875305 579.500061,617.611389 
	C581.855042,632.891479 584.064880,648.195068 586.166687,663.512268 
	C586.870361,668.640259 588.863831,673.110474 591.993042,677.102539 
	C603.681763,692.014526 613.371704,708.083618 620.129761,725.823853 
	C621.330444,728.975586 623.185913,730.168396 626.495667,730.056396 
	C633.821350,729.808533 641.176086,730.130249 648.481934,729.652832 
	C659.035278,728.963074 665.981506,722.892151 666.792480,714.473450 
	C667.165955,710.596680 666.300476,707.260437 663.576294,704.373779 
	C659.344971,699.890015 655.215393,695.310242 651.045654,690.768494 
	C639.359253,678.039368 644.247681,662.924133 652.993652,652.298523 
	C655.319519,649.472778 658.437988,649.601135 661.627441,651.261292 
	C667.389404,654.260498 673.264526,657.044128 679.003113,660.086182 
	C682.265198,661.815552 685.189697,662.136536 688.917175,660.880371 
	C710.797607,653.506653 734.989014,669.423035 738.366577,692.799744 
	C739.732361,702.252380 739.284546,711.482544 736.259644,720.398743 
	C733.006348,729.988342 734.861572,739.904785 733.451050,749.612610 
	C731.236816,764.852539 727.642334,779.608826 717.735718,791.645081 
	C710.557800,800.366089 709.860962,809.971375 710.526306,820.265137 
	C710.697876,822.918945 711.063049,825.561584 711.381592,828.204285 
	C712.140503,834.500549 713.103699,840.015869 719.991577,843.646301 
	C726.513855,847.083923 728.788391,854.178284 728.296692,861.742188 
	C728.023560,865.943359 725.793213,868.243835 721.643921,868.299561 
	C712.812622,868.418335 703.978516,868.400024 695.146179,868.343262 
	C690.855835,868.315674 688.559448,865.760437 687.352478,861.855469 
	C682.828796,847.219727 678.255737,832.599304 673.690857,817.976318 
	C673.145508,816.229187 672.539429,814.500977 671.958496,812.764954 
	C671.491211,811.368408 670.642700,810.423340 669.050110,810.551331 
	C667.521301,810.674194 665.820801,810.903320 665.537598,812.732666 
	C664.517517,819.321655 660.066528,823.620972 655.577271,827.862183 
	C653.358826,829.958130 653.384033,831.839172 654.800781,834.448792 
	C658.694336,841.620544 662.302185,848.947388 666.017517,856.215759 
	C666.471436,857.103699 666.912048,857.999756 667.323608,858.908020 
	C668.926147,862.444275 668.415100,865.642029 664.952332,867.548767 
	C661.226074,869.600586 658.043945,868.099670 656.089661,864.609436 
	C652.672791,858.507080 649.547058,852.242371 646.244507,846.075012 
	C645.405334,844.507874 645.033447,842.568054 642.106384,841.206116 
	C638.402283,845.106873 634.063904,849.003296 630.524048,853.524841 
	C618.192444,869.276611 601.069946,869.224854 583.637268,868.088135 
	C579.831909,867.839966 578.020264,865.009277 577.689819,861.188110 
	C576.824951,851.187012 581.341309,842.747437 590.923218,838.041077 
	C594.997375,836.039917 597.506653,833.405579 598.774170,829.091187 
	C600.274353,823.985229 601.863464,818.848328 604.064819,814.021667 
	C606.230103,809.273926 605.557373,805.403809 602.293518,801.653259 
	C600.684387,799.804260 599.908813,797.238953 596.586975,795.510559 
	C592.027832,811.995667 580.856873,822.129028 564.978271,827.998169 
M474.024597,546.234070 
	C475.072662,542.623596 477.682404,540.262817 480.734619,538.482117 
	C485.011444,535.986938 485.230865,533.088257 482.888000,528.963318 
	C478.695709,521.582092 474.890839,513.979614 470.972839,506.444244 
	C468.467407,501.625641 469.106689,498.089417 472.739349,496.044312 
	C476.381622,493.993835 479.690155,495.415222 482.281128,500.278625 
	C485.961182,507.186310 489.566650,514.133667 493.207458,521.062317 
	C494.134674,522.826843 494.948944,525.127441 497.429565,524.577759 
	C501.661987,523.639954 506.494507,523.687012 508.298767,518.171936 
	C508.992737,516.050537 510.798279,514.271362 512.185364,512.401489 
	C525.085693,495.010864 537.930725,477.578217 550.982666,460.301941 
	C553.554810,456.897339 553.728821,454.149719 551.696167,450.403015 
	C541.372314,431.373627 531.313538,412.200562 521.116821,393.101959 
	C518.485718,388.173950 518.926697,384.079681 522.483765,382.246490 
	C526.020447,380.423859 529.362305,381.955780 531.999634,386.832489 
	C542.298340,405.875977 552.089478,425.213959 563.010254,443.892334 
	C568.350525,453.026062 567.816833,459.773071 561.237793,468.009125 
	C548.773560,483.612671 537.429321,500.107117 525.430664,516.089539 
	C522.987671,519.343689 522.589478,521.505676 525.978516,524.345459 
	C530.822266,528.404175 535.384827,532.822693 539.834290,537.318298 
	C542.295776,539.805237 543.961304,539.545288 546.437073,537.250732 
	C558.424683,526.140198 569.613953,514.252197 580.681641,502.257538 
	C589.035950,493.203583 597.117859,483.897583 604.092041,473.680328 
	C610.248047,464.661774 611.589966,455.522552 607.749390,444.924316 
	C598.155518,418.449921 587.542603,392.420532 576.068848,366.716553 
	C569.495728,351.991119 560.458984,339.298676 547.653259,329.320374 
	C544.916199,327.187592 542.689148,326.875824 539.528137,328.163116 
	C523.956970,334.504425 508.324524,340.698273 492.652527,346.786804 
	C489.511932,348.006958 487.438263,349.977203 485.620300,352.730621 
	C475.934448,367.400726 470.390747,383.655975 466.276886,400.610840 
	C452.510132,457.348877 439.081635,514.171204 424.365753,570.675964 
	C422.367126,578.350220 420.625610,586.091431 418.640198,594.318970 
	C452.318176,598.469910 485.402924,601.299866 519.525818,600.685120 
	C517.859375,597.227417 516.582214,594.895630 515.587036,592.449158 
	C513.222229,586.636108 510.457153,581.547668 502.720612,583.199707 
	C501.977448,583.358459 501.097626,582.927429 500.290833,582.730957 
	C490.249359,580.285400 484.549713,572.561584 479.030243,564.831604 
	C475.304474,559.613770 472.832977,553.774719 474.024597,546.234070 
M405.374664,789.944458 
	C409.068939,782.856995 412.704651,775.738281 416.468903,768.688171 
	C426.522552,749.858521 436.751526,731.009338 439.543335,709.465210 
	C441.699585,692.825745 447.750305,678.290283 457.985046,664.947815 
	C469.227081,650.292114 479.703217,635.022827 489.366638,619.238647 
	C492.191406,614.624695 491.655090,613.614136 486.257629,613.268433 
	C470.815399,612.279724 455.357971,611.543701 439.999847,609.439941 
	C432.165405,608.366760 432.139374,608.610352 429.133331,616.102966 
	C428.141541,618.575134 427.055389,621.010193 426.094849,623.494080 
	C419.792328,639.792114 411.099304,655.232544 406.682861,672.158936 
	C400.555695,695.641663 395.723907,719.461182 390.257568,743.117981 
	C385.803314,762.394592 381.582764,781.724060 376.175018,800.776855 
	C374.303040,807.372314 370.539459,810.745911 363.912476,812.108337 
	C350.950317,814.772888 338.025482,816.513000 324.772827,814.564758 
	C320.975616,814.006531 316.786865,813.319641 313.354675,817.523071 
	C319.435883,820.836426 325.669891,822.972107 331.784698,825.337219 
	C347.776215,831.522461 363.763672,837.722473 379.836578,843.690918 
	C385.648285,845.849060 387.534424,844.774963 389.260864,839.313477 
	C390.211700,836.305542 391.086060,833.252014 391.689392,830.159424 
	C394.378418,816.375183 398.092163,802.950745 405.374664,789.944458 
M657.120728,674.330444 
	C657.160400,679.926270 661.197266,683.210999 664.424316,686.964417 
	C668.748535,691.994019 674.397278,695.960571 677.265076,702.153259 
	C684.680420,718.165894 674.416626,736.784607 655.895020,741.215454 
	C648.655701,742.947205 641.299805,742.140869 633.993103,742.443420 
	C631.941528,742.528381 629.668762,741.748718 627.693481,743.684265 
	C628.170105,745.068237 628.587341,746.490112 629.141357,747.856628 
	C635.683411,763.991943 643.282410,779.364990 655.925293,791.940552 
	C660.273254,796.265320 664.301208,798.333679 670.287659,797.820984 
	C679.758545,797.009827 680.486816,797.734985 683.270569,806.741699 
	C687.841614,821.531494 692.440369,836.312744 697.057922,851.088074 
	C697.684570,853.093262 697.901978,855.632263 700.798401,855.706604 
	C705.035461,855.815369 709.277466,855.734558 713.766174,855.734558 
	C712.878906,852.788391 710.858276,852.088989 709.019958,851.659424 
	C704.089233,850.507385 701.927429,847.310608 701.083130,842.566650 
	C699.475403,833.533813 698.222961,824.414429 698.179626,815.291321 
	C698.127258,804.259766 699.840515,793.825317 707.422485,784.497620 
	C717.382874,772.244080 720.531128,757.105530 721.781616,741.583801 
	C722.148560,737.029541 721.042664,735.121094 715.897766,735.125000 
	C705.333374,735.132935 696.367981,727.285583 694.928223,717.181824 
	C693.227417,705.245544 698.504639,695.417358 705.365662,686.337341 
	C707.279846,683.804138 710.364807,683.738647 713.033447,685.598755 
	C715.706848,687.462219 716.385010,690.195129 715.076233,693.109436 
	C713.990723,695.526733 712.415649,697.719727 711.136597,700.055542 
	C708.710815,704.485718 706.738892,709.046082 707.345886,714.297668 
	C707.890381,719.007996 711.189026,722.289307 715.826172,722.675537 
	C720.460571,723.061523 723.506775,720.878601 724.802917,715.902771 
	C727.064087,707.222412 727.413879,698.496460 725.031921,689.752258 
	C721.409668,676.455200 703.314453,667.830017 690.890198,673.719238 
	C686.749390,675.682068 682.919861,675.741699 678.920959,673.823181 
	C673.965149,671.445557 668.924805,669.218994 664.107605,666.585693 
	C660.300842,664.504700 658.551880,665.927429 657.663330,669.552368 
	C657.348816,670.835571 657.295776,672.182922 657.120728,674.330444 
M555.613037,241.929611 
	C556.999756,235.936325 558.144348,229.874390 559.819702,223.962906 
	C564.424683,207.713928 579.054260,201.237534 594.372253,208.357422 
	C600.532532,211.220749 605.830566,215.297714 611.629272,220.480865 
	C607.202881,201.894165 598.396667,187.874298 582.129333,179.183212 
	C550.338074,162.198120 509.215790,169.585541 485.377350,196.743851 
	C481.258850,201.435944 476.742310,205.960236 474.551941,212.250183 
	C475.514923,212.913635 476.253815,213.622284 477.134644,214.000519 
	C501.612518,224.511795 526.114929,234.966049 550.582336,245.501648 
	C553.745239,246.863602 554.792908,245.269547 555.613037,241.929611 
M508.514771,289.679108 
	C512.027466,288.091217 514.811584,289.187531 516.544495,292.377716 
	C518.349915,295.701477 517.078125,298.590088 514.177551,300.627625 
	C510.914703,302.919739 507.488220,304.982300 504.097321,307.087372 
	C502.660522,307.979309 501.140686,308.743103 501.177460,310.760895 
	C501.288574,316.855011 501.613525,322.950958 500.518341,328.933716 
	C502.757477,329.657745 504.188599,328.617981 505.688354,328.028473 
	C514.360657,324.619812 522.907654,320.845367 531.726013,317.873932 
	C536.672485,316.207153 537.279114,313.692902 536.442505,309.038452 
	C534.326355,297.265442 535.429626,285.901123 541.983154,275.401672 
	C545.122620,270.372040 548.441406,265.312958 549.388367,258.569366 
	C522.697449,247.230331 496.005768,235.891006 468.990234,224.414078 
	C468.180420,226.594971 467.605927,228.129120 467.040588,229.666656 
	C463.898743,238.211197 462.854309,247.194443 462.720947,256.139404 
	C462.535004,268.613922 463.631683,281.081360 467.864227,292.973419 
	C470.279419,299.759369 474.841980,302.039062 481.957092,301.165070 
	C491.701355,299.968109 499.891541,295.324554 508.514771,289.679108 
M510.213074,627.419128 
	C515.627258,642.808899 521.239319,658.122864 527.350281,673.254028 
	C531.853210,684.403625 536.849060,695.190857 544.423584,704.739929 
	C559.535522,723.791321 574.334595,743.091553 589.210388,762.329651 
	C598.585632,774.454102 607.863586,786.655884 616.226807,799.514771 
	C618.218933,802.577759 620.226929,805.651855 618.773865,809.718811 
	C615.694702,818.337219 612.635803,826.968506 609.853333,835.685364 
	C607.917786,841.748962 604.829590,846.342957 598.423401,848.464539 
	C595.437561,849.453369 592.430908,851.155823 591.556458,855.295227 
	C602.134277,856.388550 611.555359,855.664062 619.012939,847.462097 
	C623.718018,842.287415 628.592651,837.250610 633.632812,832.403076 
	C636.549622,829.597656 636.577393,827.198792 634.733459,823.669678 
	C619.617493,794.738647 604.664917,765.721985 589.737610,736.692749 
	C569.705688,697.736572 549.753967,658.739075 529.710266,619.788940 
	C528.623108,617.676331 528.217407,614.558777 525.176514,614.307617 
	C518.932373,613.791992 512.660095,613.655823 505.806702,614.373779 
	C507.319244,618.872437 508.631775,622.776245 510.213074,627.419128 
M722.563538,338.035950 
	C730.585266,328.020691 731.991272,316.826843 727.421021,305.152130 
	C721.226868,289.329163 709.391052,278.252106 695.417847,269.210968 
	C693.465698,267.947845 691.653076,267.972900 690.096069,269.838928 
	C679.249329,282.839325 669.357910,296.469727 665.700134,313.395081 
	C662.250427,329.357758 671.889648,344.930450 687.325562,348.268738 
	C700.412231,351.098969 712.513000,349.003143 722.563538,338.035950 
M541.239685,555.474792 
	C535.057068,561.683716 530.377502,569.294312 523.173279,574.578430 
	C521.293762,575.957092 522.657898,577.985413 523.452209,579.592712 
	C526.182068,585.116821 529.190796,590.514038 531.678955,596.142700 
	C533.365356,599.957520 535.858337,601.082275 539.877319,600.941467 
	C556.019165,600.375854 572.170471,600.078186 588.318726,599.699463 
	C593.958923,599.567139 594.271179,599.150391 593.085999,593.544739 
	C589.234070,575.324951 585.498596,557.079895 581.515015,538.889099 
	C580.483154,534.177124 580.205017,529.187134 576.955994,524.160950 
	C575.347656,525.365295 574.581726,527.150391 573.307678,528.429443 
	C565.549255,536.218506 557.681519,543.898926 549.835693,551.600708 
	C547.656921,553.739441 545.307922,555.576233 541.239685,555.474792 
M426.208496,413.231720 
	C432.866241,417.246338 439.523987,421.260986 446.933563,425.729004 
	C449.904541,413.685822 452.717285,402.446686 455.443665,391.186676 
	C458.184296,379.867889 462.071472,368.962860 467.591431,358.250397 
	C466.532074,358.344635 466.019226,358.271362 465.609741,358.443695 
	C442.583862,368.136597 419.564270,377.844574 396.553650,387.573669 
	C395.041748,388.212952 393.409912,388.779205 393.280975,390.897491 
	C393.137299,393.256866 394.438599,394.468903 396.320953,395.567047 
	C406.106934,401.275757 415.839020,407.076904 426.208496,413.231720 
M438.487152,461.102661 
	C439.848877,455.453827 441.067505,449.765106 442.626038,444.171112 
	C443.560242,440.818176 442.889191,438.677155 439.819794,436.734009 
	C425.346802,427.571533 410.694183,418.718445 395.871429,410.133942 
	C393.029938,408.488312 391.435516,409.100006 389.621033,411.433441 
	C386.152130,415.894440 382.691528,420.388092 378.871857,424.541168 
	C376.206024,427.439728 376.522949,429.291168 379.322449,431.876160 
	C394.974213,446.328827 411.091003,460.215149 428.230591,472.883545 
	C430.035004,474.217194 431.770081,475.928040 434.820526,475.764160 
	C435.949585,471.174438 437.090851,466.535065 438.487152,461.102661 
M588.075928,787.804443 
	C590.978577,786.643738 590.117065,784.996155 588.736755,783.178223 
	C581.593445,773.769714 574.429688,764.375977 567.384155,754.894531 
	C565.491333,752.347290 563.785400,752.585083 561.620300,754.397583 
	C556.405212,758.763550 553.708862,764.440002 552.196838,770.970825 
	C550.511658,778.249390 552.703674,785.151367 553.604492,792.187317 
	C554.836792,801.811279 552.736938,810.336792 545.594482,817.275696 
	C544.291199,818.541809 542.496948,819.690613 542.491760,821.641846 
	C542.463806,832.106995 541.557922,842.597229 543.188171,853.026672 
	C543.415100,854.478333 544.013916,855.645325 545.630249,855.694153 
	C549.325989,855.805969 553.067810,856.379150 557.276428,855.121033 
	C556.241516,854.155640 555.731384,853.483032 555.059204,853.082825 
	C546.928711,848.242371 546.718750,847.812073 548.219971,838.529846 
	C548.405457,837.383179 548.636230,836.225525 548.645386,835.071472 
	C548.724365,825.150085 553.032410,818.612122 562.733215,815.138855 
	C573.090637,811.430420 580.516113,804.268738 583.903870,793.433899 
	C584.552917,791.358093 585.585205,789.436401 588.075928,787.804443 
M641.531555,794.948303 
	C630.408630,783.203369 623.924683,768.692322 618.075317,754.018921 
	C608.187195,729.214050 598.207703,704.585754 581.006897,683.621887 
	C576.656372,678.319702 574.447266,671.810181 573.529236,664.830627 
	C571.448303,649.010376 569.009277,633.237305 566.761169,617.438660 
	C566.493774,615.559204 566.434204,613.470032 563.956238,613.470886 
	C556.714172,613.473450 549.415527,612.796448 541.248108,614.559998 
	C576.425232,682.875122 611.270508,750.545776 646.179993,818.341187 
	C654.054321,812.614746 654.473938,809.382263 648.771362,802.834778 
	C646.584167,800.323425 644.276062,797.917480 641.531555,794.948303 
M511.457092,566.970581 
	C516.256653,563.895203 520.579590,560.272583 524.161011,555.814636 
	C531.280945,546.952209 531.273621,546.947998 523.070129,539.030090 
	C521.512756,537.526917 520.004944,535.969482 518.396729,534.523254 
	C517.672668,533.872070 516.589172,532.818542 515.955994,532.992554 
	C509.796600,534.685120 502.987091,535.121887 498.018341,539.485168 
	C494.810394,542.302185 492.247467,545.927124 488.676392,548.419006 
	C486.635284,549.843201 486.438660,551.420776 487.397278,553.553101 
	C489.554657,558.352051 492.772034,562.309082 496.603088,565.856750 
	C502.720062,571.521240 503.715271,571.664856 511.457092,566.970581 
M365.025940,376.339905 
	C355.458832,376.518982 348.663696,381.882996 342.652954,388.521515 
	C341.157318,390.173370 340.738251,392.441833 342.222809,394.506012 
	C343.736267,396.610352 345.548523,395.289001 347.129272,394.640533 
	C354.175293,391.750183 361.205566,388.817383 368.180878,385.761505 
	C370.034760,384.949371 372.443024,384.801025 373.406830,382.391235 
	C371.818024,379.139984 369.061981,377.479462 365.025940,376.339905 
M353.058228,406.653320 
	C356.339874,411.018829 367.795135,415.875305 370.723175,414.142395 
	C377.156372,410.335022 382.323090,399.675995 379.623474,394.677094 
	C370.921875,398.488983 362.165955,402.324646 353.058228,406.653320 
M624.670898,247.378052 
	C628.075195,244.206436 628.867920,240.553375 625.942810,236.796127 
	C623.554993,233.729111 620.144775,232.998474 616.558044,234.564575 
	C613.036621,236.102142 611.873840,239.117661 612.421143,242.753067 
	C613.205872,247.965683 617.771729,249.900330 624.670898,247.378052 
M702.647888,231.346878 
	C697.711548,235.806686 694.425659,240.976654 695.249084,248.623322 
	C702.023438,243.774231 705.772339,237.924820 706.275879,229.419785 
	C704.877136,230.109085 704.023987,230.529510 702.647888,231.346878 
M670.891296,241.654999 
	C669.244446,241.444077 667.753479,239.656998 665.894104,241.064102 
	C668.891113,248.171295 674.067993,251.905243 680.058289,251.070755 
	C678.688721,246.556290 675.544983,243.875565 670.891296,241.654999 
z"/>
</svg>